<svg width="18" height="18" viewBox="0 0 18 18" fill="none" xmlns="http://www.w3.org/2000/svg">
<g opacity="0.7">
<path d="M15.1875 0H12.5156C10.9648 0 9.70312 1.26169 9.70312 2.8125V5.48438C9.70312 7.03519 10.9648 8.29688 12.5156 8.29688H15.1875C16.7383 8.29688 18 7.03519 18 5.48438V2.8125C18 1.26169 16.7383 0 15.1875 0ZM16.5938 5.48438C16.5938 6.25978 15.9629 6.89062 15.1875 6.89062H12.5156C11.7402 6.89062 11.1094 6.25978 11.1094 5.48438V2.8125C11.1094 2.03709 11.7402 1.40625 12.5156 1.40625H15.1875C15.9629 1.40625 16.5938 2.03709 16.5938 2.8125V5.48438Z" fill="white"/>
<path d="M5.48438 0H2.8125C1.26169 0 0 1.26169 0 2.8125V5.48438C0 7.03519 1.26169 8.29688 2.8125 8.29688H5.48438C7.03519 8.29688 8.29688 7.03519 8.29688 5.48438V2.8125C8.29688 1.26169 7.03519 0 5.48438 0ZM6.89062 5.48438C6.89062 6.25978 6.25978 6.89062 5.48438 6.89062H2.8125C2.03709 6.89062 1.40625 6.25978 1.40625 5.48438V2.8125C1.40625 2.03709 2.03709 1.40625 2.8125 1.40625H5.48438C6.25978 1.40625 6.89062 2.03709 6.89062 2.8125V5.48438Z" fill="white"/>
<path d="M5.48438 9.70312H2.8125C1.26169 9.70312 0 10.9648 0 12.5156V15.1875C0 16.7383 1.26169 18 2.8125 18H5.48438C7.03519 18 8.29688 16.7383 8.29688 15.1875V12.5156C8.29688 10.9648 7.03519 9.70312 5.48438 9.70312ZM6.89062 15.1875C6.89062 15.9629 6.25978 16.5938 5.48438 16.5938H2.8125C2.03709 16.5938 1.40625 15.9629 1.40625 15.1875V12.5156C1.40625 11.7402 2.03709 11.1094 2.8125 11.1094H5.48438C6.25978 11.1094 6.89062 11.7402 6.89062 12.5156V15.1875Z" fill="white"/>
<path d="M17.2969 14.4844C16.9085 14.4844 16.5938 14.7992 16.5938 15.1875C16.5938 15.9629 15.9629 16.5938 15.1875 16.5938H12.5156C11.7402 16.5938 11.1094 15.9629 11.1094 15.1875V12.5156C11.1094 11.7402 11.7402 11.1094 12.5156 11.1094H15.1875C15.7467 11.1094 16.2528 11.4405 16.4769 11.953C16.6324 12.3088 17.047 12.471 17.4028 12.3155C17.7586 12.1599 17.9209 11.7454 17.7653 11.3896C17.3173 10.3651 16.3055 9.70312 15.1875 9.70312H12.5156C10.9648 9.70312 9.70312 10.9648 9.70312 12.5156V15.1875C9.70312 16.7383 10.9648 18 12.5156 18H15.1875C16.7383 18 18 16.7383 18 15.1875C18 14.7992 17.6852 14.4844 17.2969 14.4844Z" fill="white"/>
</g>
</svg>
