<?xml version="1.0" encoding="utf-8"?>
<!-- Generator: Adobe Illustrator 27.8.0, SVG Export Plug-In . SVG Version: 6.00 Build 0)  -->
<svg version="1.1" id="Layer_1" xmlns="http://www.w3.org/2000/svg" xmlns:xlink="http://www.w3.org/1999/xlink" x="0px" y="0px"
	 viewBox="0 0 211.4 112.3" style="enable-background:new 0 0 211.4 112.3;" xml:space="preserve">
<style type="text/css">
	.st0{fill:#03115C;}
	.st1{fill:#06B8FF;}
	.st2{fill:#D91A00;}
</style>
<g>
	<g>
		<path class="st0" d="M94.8,19.1v12.7c0,0.3,0.1,0.6,0.2,0.9c0.1,0.3,0.3,0.5,0.5,0.8c0.2,0.2,0.5,0.4,0.8,0.5
			c0.3,0.1,0.6,0.2,0.9,0.2c0.3,0,0.6,0,0.9-0.2c0.3-0.1,0.5-0.3,0.7-0.5c0.2-0.2,0.4-0.5,0.5-0.8c0.1-0.3,0.1-0.6,0.1-0.9V19.1h2.3
			c0.5,0,1-0.2,1.4-0.6c0.4-0.4,0.6-0.9,0.6-1.4c0-0.3,0-0.5-0.1-0.8c-0.1-0.2-0.2-0.5-0.4-0.7c-0.2-0.2-0.4-0.3-0.7-0.4
			c-0.2-0.1-0.5-0.2-0.8-0.2h-2.3v-1.3c0-2.7,0.9-4,2.9-4h0.4c0.3,0,0.7,0,1-0.1c0.3-0.1,0.6-0.3,0.9-0.5c0.2-0.2,0.4-0.5,0.6-0.8
			c0.1-0.3,0.2-0.6,0.2-1c0-0.3-0.1-0.7-0.2-1c-0.1-0.3-0.3-0.6-0.6-0.8c-0.3-0.2-0.5-0.4-0.9-0.5c-0.3-0.1-0.7-0.1-1,0h-0.3
			c-4.8,0-7.5,3-7.5,8.5v1.3h-1.7c-0.5,0-1,0.3-1.4,0.6c-0.4,0.4-0.6,0.9-0.6,1.4c0,0.5,0.2,1,0.6,1.4c0.4,0.4,0.9,0.6,1.4,0.6H94.8
			z"/>
		<path class="st0" d="M114.4,34.4c1.1,0,2.1-0.2,3.1-0.6c1-0.4,1.9-1,2.6-1.8c0,0.6,0.3,1.1,0.7,1.5c0.4,0.4,1,0.6,1.6,0.6
			c0.3,0,0.6-0.1,0.9-0.2c0.3-0.1,0.6-0.3,0.8-0.5c0.2-0.2,0.4-0.5,0.5-0.8c0.1-0.3,0.2-0.6,0.2-0.9V17.3c0-0.3-0.1-0.6-0.2-0.9
			c-0.1-0.3-0.3-0.5-0.5-0.8c-0.2-0.2-0.5-0.4-0.8-0.5c-0.3-0.1-0.6-0.2-0.9-0.2c-0.6,0-1.1,0.2-1.6,0.6c-0.4,0.4-0.7,0.9-0.7,1.5
			c-1.5-1.7-3.9-2.3-5.8-2.3c-5.4,0-9.5,4.2-9.5,9.8S109,34.4,114.4,34.4z M109.7,24.5v-0.3c0-0.7,0.2-1.3,0.4-1.9
			c0.3-0.6,0.7-1.1,1.1-1.6c0.5-0.5,1-0.8,1.7-1c0.6-0.2,1.3-0.3,1.9-0.3h0.2c1.4,0,2.6,0.6,3.6,1.6c0.9,1,1.5,2.3,1.5,3.6
			c0,3.7-2.7,5.3-5.2,5.3h-0.2c-1.4-0.1-2.6-0.6-3.6-1.6C110.1,27.2,109.6,25.9,109.7,24.5z"/>
		<path class="st0" d="M153.9,31.8c0,0.6,0.2,1.2,0.7,1.6c0.4,0.4,1,0.7,1.6,0.7c0.6,0,1.2-0.2,1.7-0.7c0.4-0.4,0.7-1,0.7-1.6v-8.6
			c0-5.3-2.7-8.4-7.3-8.4c-1.2,0-2.4,0.3-3.4,0.8c-1.1,0.6-2,1.4-2.6,2.4c-1.1-2.2-3.1-3.3-5.7-3.3c-1.4,0-3.9,0.5-5.4,2.3
			c0-0.6-0.3-1.1-0.7-1.5c-0.4-0.4-1-0.6-1.6-0.6h-0.1c-0.3,0-0.6,0.1-0.9,0.2c-0.3,0.1-0.6,0.3-0.8,0.5c-0.2,0.2-0.4,0.5-0.5,0.8
			c-0.1,0.3-0.2,0.6-0.2,0.9v14.4c0,0.6,0.2,1.2,0.7,1.6c0.4,0.4,1,0.7,1.6,0.7c0.3,0,0.6-0.1,0.9-0.2c0.3-0.1,0.6-0.3,0.8-0.5
			c0.2-0.2,0.4-0.5,0.5-0.8c0.1-0.3,0.2-0.6,0.2-0.9v-7.9c0-4.2,3.2-4.5,4.2-4.5c2.1,0,3.4,1.7,3.4,4.1v8.3c0,0.6,0.2,1.2,0.7,1.6
			c0.4,0.4,1,0.7,1.6,0.7c0.3,0,0.6-0.1,0.9-0.2c0.3-0.1,0.6-0.3,0.8-0.5c0.2-0.2,0.4-0.5,0.5-0.8c0.1-0.3,0.2-0.6,0.2-0.9v-7.9
			c0-2.7,1.6-4.5,4-4.5c2.2,0,3.5,1.5,3.5,4.2V31.8z"/>
		<path class="st0" d="M167.8,17.3c0-0.3-0.1-0.6-0.2-0.9c-0.1-0.3-0.3-0.5-0.5-0.8c-0.2-0.2-0.5-0.4-0.8-0.5
			c-0.3-0.1-0.6-0.2-0.9-0.2c-0.6,0-1.2,0.3-1.6,0.7c-0.4,0.4-0.7,1-0.7,1.6v14.4c0,0.6,0.2,1.2,0.7,1.6c0.4,0.4,1,0.7,1.6,0.7
			c0.3,0,0.6,0,0.9-0.1c0.3-0.1,0.6-0.3,0.8-0.5s0.4-0.5,0.5-0.8c0.1-0.3,0.2-0.6,0.2-0.9V17.3z"/>
		<path class="st0" d="M165.4,11c0.8,0,1.5-0.3,2-0.8c0.5-0.5,0.8-1.3,0.8-2c0-0.8-0.3-1.5-0.8-2c-0.5-0.5-1.3-0.8-2-0.8
			c-0.4,0-0.8,0.1-1.1,0.2c-0.4,0.1-0.7,0.3-1,0.6c-0.3,0.3-0.5,0.6-0.7,0.9c-0.2,0.4-0.2,0.7-0.3,1.1c0,0.8,0.4,1.5,0.9,2
			C163.9,10.7,164.7,11,165.4,11z"/>
		<path class="st0" d="M174.8,34.1c0.3,0,0.6,0,0.9-0.2c0.3-0.1,0.6-0.3,0.8-0.5c0.2-0.2,0.4-0.5,0.5-0.8c0.1-0.3,0.2-0.6,0.2-0.9
			V7.5c0-0.3-0.1-0.6-0.2-0.9c-0.1-0.3-0.3-0.5-0.5-0.8c-0.2-0.2-0.5-0.4-0.8-0.5c-0.3-0.1-0.6-0.2-0.9-0.2c-0.6,0-1.2,0.3-1.6,0.7
			c-0.4,0.4-0.7,1-0.7,1.6v24.3c0,0.6,0.2,1.2,0.7,1.6C173.6,33.9,174.2,34.1,174.8,34.1z"/>
		<path class="st0" d="M186.5,32.8l-2.8,7.1c-0.1,0.3-0.2,0.6-0.1,0.9c0,0.3,0.1,0.6,0.2,0.9c0.1,0.3,0.3,0.5,0.6,0.7
			c0.2,0.2,0.5,0.4,0.8,0.4c0.2,0,0.4,0.1,0.6,0.1c0.5,0,0.9-0.2,1.3-0.4c0.4-0.3,0.7-0.6,0.9-1.1l9.7-23.4c0-0.1,0.1-0.2,0.1-0.2
			c0.2-0.6,0.1-1.2-0.2-1.7c-0.3-0.5-0.8-0.9-1.3-1.1c-0.6-0.1-1.2-0.1-1.7,0.2c-0.5,0.3-0.9,0.7-1.1,1.3L189,27.1l-4.3-10.5
			c-0.2-0.6-0.6-1-1.1-1.3c-0.5-0.3-1.1-0.3-1.7-0.2c-0.1,0-0.1,0.1-0.2,0.1c-0.5,0.2-1,0.7-1.2,1.2c-0.2,0.5-0.2,1.2,0,1.7
			L186.5,32.8z"/>
		<path class="st0" d="M102.2,55.3c1.1,0,2.2,0.3,3.1,0.9c1,0.6,2.6,0.6,3.2-0.5c0.3-0.5,0.5-1.1,0.4-1.7c-0.1-0.6-0.4-1.1-0.9-1.5
			c-1.7-1.2-3.7-1.8-5.8-1.7c-5.7,0-10,4.2-10,9.8c0,5.6,4.3,9.8,10,9.8c2.1,0,4.1-0.6,5.8-1.8c0.5-0.3,0.8-0.9,0.9-1.5
			c0.1-0.6,0-1.2-0.4-1.7c-0.6-1.1-2.2-1.1-3.2-0.6c-0.9,0.6-2,0.9-3.1,0.9c-2.6,0-5.4-1.8-5.4-5.2v-0.2c0.1-1.4,0.6-2.7,1.6-3.6
			C99.5,55.7,100.8,55.2,102.2,55.3z"/>
		<path class="st0" d="M120.7,50.8c-5.6,0-9.6,4-9.6,9.7c0,5.7,4,9.8,9.6,9.8c2.7,0,5.4-1,7.4-2.9c0.2-0.2,0.4-0.5,0.5-0.8
			s0.1-0.6,0.1-0.9c0-0.3-0.1-0.5-0.2-0.8c-0.1-0.2-0.3-0.4-0.5-0.6c-0.4-0.3-1-0.5-1.5-0.4c-0.5,0-1,0.2-1.5,0.6
			c-1.4,1.1-2.3,1.7-4.1,1.7c-2.7,0-4.6-1.5-5.1-3.9h12.2c0.6,0,1.1-0.2,1.5-0.6c0.4-0.4,0.6-1,0.6-1.5
			C129.9,54.7,126.1,50.8,120.7,50.8z M120.7,54.9c1.1-0.1,2.2,0.3,3.1,1c0.9,0.7,1.5,1.7,1.7,2.8h-9.7
			C116.3,56.4,118.1,54.9,120.7,54.9z"/>
		<path class="st0" d="M143.3,50.8c-1,0-2,0.2-2.9,0.6c-0.9,0.4-1.7,1-2.4,1.7c0-0.6-0.3-1.1-0.7-1.5c-0.4-0.4-1-0.6-1.6-0.6
			c-0.3,0-0.6,0.1-0.9,0.2c-0.3,0.1-0.6,0.3-0.8,0.5c-0.2,0.2-0.4,0.5-0.5,0.8s-0.2,0.6-0.2,0.9v14.5c0,0.6,0.2,1.2,0.7,1.6
			c0.4,0.4,1,0.7,1.6,0.7c0.3,0,0.6-0.1,0.9-0.2c0.3-0.1,0.6-0.3,0.8-0.5c0.2-0.2,0.4-0.5,0.5-0.8c0.1-0.3,0.2-0.6,0.2-0.9v-7.9
			c0-4.1,3-4.5,4.3-4.5c2.2,0,3.5,1.5,3.5,4.2v8.3c0,0.6,0.2,1.2,0.7,1.7c0.4,0.4,1,0.7,1.7,0.7c0.6,0,1.2-0.2,1.7-0.7
			c0.4-0.4,0.7-1,0.7-1.7V59C150.5,53.8,147.9,50.8,143.3,50.8z"/>
		<path class="st0" d="M163.2,51.1h-2.1v-4.7c0-0.3-0.1-0.6-0.2-0.9c-0.1-0.3-0.3-0.5-0.5-0.8c-0.2-0.2-0.5-0.4-0.8-0.5
			c-0.3-0.1-0.6-0.2-0.9-0.2c-0.3,0-0.6,0.1-0.9,0.2c-0.3,0.1-0.5,0.3-0.7,0.5c-0.2,0.2-0.4,0.5-0.5,0.8c-0.1,0.3-0.2,0.6-0.2,0.9
			v4.7H155c-0.3,0-0.5,0.1-0.8,0.2c-0.2,0.1-0.5,0.3-0.7,0.4c-0.2,0.2-0.3,0.4-0.4,0.7c-0.1,0.2-0.1,0.5-0.1,0.8
			c0,0.5,0.2,1,0.6,1.4c0.4,0.4,0.9,0.6,1.4,0.6h1.4v12.7c0,0.6,0.2,1.2,0.7,1.6c0.4,0.4,1,0.7,1.6,0.7c0.3,0,0.6-0.1,0.9-0.2
			c0.3-0.1,0.6-0.3,0.8-0.5c0.2-0.2,0.4-0.5,0.5-0.8c0.1-0.3,0.2-0.6,0.2-0.9V55h2.1c0.3,0,0.5,0,0.7-0.1c0.2-0.1,0.5-0.2,0.6-0.4
			c0.2-0.2,0.3-0.4,0.4-0.6c0.1-0.2,0.2-0.5,0.2-0.7c0-0.3,0-0.5-0.1-0.8c-0.1-0.2-0.2-0.5-0.4-0.7c-0.2-0.2-0.4-0.3-0.7-0.4
			C163.7,51.2,163.4,51.1,163.2,51.1z"/>
		<path class="st0" d="M178.7,50.9c-0.6-0.1-1.2-0.2-1.8-0.2c-2.1,0-3.6,1-4.6,3.1v-0.5c0-0.3-0.1-0.6-0.2-0.9s-0.3-0.5-0.5-0.8
			c-0.2-0.2-0.5-0.4-0.8-0.5c-0.3-0.1-0.6-0.2-0.9-0.2c-0.6,0-1.2,0.3-1.6,0.7c-0.4,0.4-0.7,1-0.7,1.6v14.5c0,0.6,0.2,1.2,0.7,1.7
			c0.4,0.4,1,0.7,1.7,0.7c0.6,0,1.2-0.2,1.7-0.7c0.4-0.4,0.7-1,0.7-1.7v-4.7c0-3,0.6-7.9,4.5-7.9h0.6c1.1,0.1,2.7,0.1,3-1.6
			c0.1-0.6,0-1.2-0.3-1.7C179.8,51.4,179.3,51.1,178.7,50.9z"/>
		<path class="st0" d="M198.8,50.9c-0.6,0-1.1,0.2-1.6,0.6c-0.4,0.4-0.7,0.9-0.7,1.5c-1.5-1.7-3.9-2.3-5.8-2.3
			c-5.4,0-9.5,4.2-9.5,9.8s4.1,9.8,9.5,9.8c1.1,0,2.1-0.2,3.1-0.6c1-0.4,1.9-1,2.6-1.8c0,0.6,0.3,1.1,0.7,1.5c0.4,0.4,1,0.6,1.6,0.6
			c0.3,0,0.6-0.1,0.9-0.2c0.3-0.1,0.6-0.3,0.8-0.5c0.2-0.2,0.4-0.5,0.5-0.8c0.1-0.3,0.2-0.6,0.2-0.9V53.3c0-0.3-0.1-0.6-0.2-0.9
			c-0.1-0.3-0.3-0.5-0.5-0.8c-0.2-0.2-0.5-0.4-0.8-0.5C199.5,51,199.1,50.9,198.8,50.9z M196.5,60.5c0,3.7-2.7,5.3-5.2,5.3H191
			c-1.4-0.1-2.6-0.6-3.6-1.6c-0.9-1-1.4-2.3-1.4-3.7v-0.3c0-0.7,0.2-1.3,0.4-1.9c0.3-0.6,0.7-1.2,1.1-1.6c0.5-0.5,1.1-0.8,1.7-1
			c0.6-0.2,1.3-0.3,1.9-0.3h0.2c1.4,0,2.6,0.6,3.6,1.6C196,57.9,196.5,59.2,196.5,60.5z"/>
		<path class="st0" d="M208.2,41.1c-0.6,0-1.2,0.3-1.6,0.7c-0.4,0.4-0.7,1-0.7,1.6v24.3c0,0.6,0.2,1.2,0.7,1.7
			c0.4,0.4,1,0.7,1.7,0.7c0.6,0,1.2-0.2,1.7-0.7c0.4-0.4,0.7-1,0.7-1.7V43.4c0-0.3-0.1-0.6-0.2-0.9c-0.1-0.3-0.3-0.5-0.5-0.8
			c-0.2-0.2-0.5-0.4-0.8-0.5C208.9,41.2,208.5,41.1,208.2,41.1z"/>
		<path class="st1" d="M76.4,44.1v-35c0-2.2-0.9-4.3-2.5-5.9c-1.6-1.6-3.7-2.4-6-2.4H9.4c-2.2,0-4.4,0.8-6,2.4
			C1.8,4.8,0.9,6.9,0.9,9.1v35c-0.2,2.2-1,18.4,15.5,31.7c0.6,0.5,1.3,0.7,2,0.7c0.5,0,1-0.1,1.4-0.3c0.4-0.2,0.8-0.5,1.1-0.9
			c0.3-0.3,0.5-0.7,0.6-1.1c0.1-0.4,0.2-0.8,0.1-1.2c0-0.4-0.2-0.8-0.4-1.2c-0.2-0.4-0.5-0.7-0.8-1C5.9,59.2,7.3,45.2,7.3,44.6V9.1
			c0-0.5,0.3-1,0.6-1.4c0.4-0.4,0.9-0.5,1.4-0.5h58.6c0.5,0,1,0.2,1.4,0.5C69.7,8.1,70,8.6,70,9.1v35.5c0.1,0.6,1.4,14.6-13.1,26.2
			c-0.4,0.3-0.7,0.7-0.9,1.1c-0.2,0.4-0.3,0.9-0.3,1.4c0,0.9,0.3,1.7,0.9,2.3c0.6,0.6,1.4,1,2.3,1c0.7,0,1.5-0.3,2.1-0.7
			C77.5,62.5,76.7,46.2,76.4,44.1z"/>
		<path class="st2" d="M38.7,62c-0.5,0-1-0.1-1.5-0.4c-0.4-0.2-0.8-0.6-1.1-1L36,60.4c-0.4-0.6-0.9-1.1-1.4-1.5l-0.1-0.1
			c-1.9-1.9-5-4.3-7.8-6.4c-1.4-1.1-2.8-2.2-3.8-3c-7.3-5.9-8.7-12.2-8.5-16.3c0.1-5.4,2.9-9.8,5.4-11.7c3.8-2.9,7.6-3.9,11.4-3.1
			c2.9,0.7,5.6,2.3,7.5,4.6c2-2.3,4.6-3.9,7.5-4.6c3.8-0.8,7.6,0.2,11.4,3c2.5,1.8,5.2,6.3,5.4,11.7c0.1,4.2-1.3,10.3-8.5,16.3
			c-1,0.9-2.4,1.9-3.8,3c-2.8,2.2-5.9,4.6-7.8,6.5l-0.1,0.1c-0.5,0.5-1,1-1.4,1.5c-0.1,0.1-0.1,0.1-0.1,0.2c-0.3,0.4-0.7,0.8-1.1,1
			C39.7,61.8,39.2,62,38.7,62z M28.7,24.4c-1.6,0-3.3,0.7-5.1,2.1c-0.9,0.6-2.7,3.2-2.8,6.8c-0.1,3.9,2.1,7.8,6.2,11.3
			c0.9,0.7,2.2,1.8,3.6,2.9c2.8,2.1,5.5,4.2,8.1,6.6c2.6-2.3,5.3-4.6,8.1-6.6c1.4-1.1,2.7-2.1,3.6-2.9c4.2-3.4,6.3-7.4,6.2-11.3
			c-0.1-3.6-1.9-6.2-2.8-6.8c-2.3-1.7-4.4-2.3-6.3-1.9c-3.4,0.7-5.6,4.6-6.1,5.3c-0.3,0.5-0.7,0.9-1.1,1.2c-0.5,0.3-1,0.4-1.6,0.4
			c-0.6,0-1.1-0.1-1.6-0.4c-0.5-0.3-0.9-0.7-1.1-1.2c-0.4-0.7-2.7-4.6-6.1-5.3C29.4,24.5,29.1,24.4,28.7,24.4z"/>
	</g>
	<g>
		<path class="st0" d="M12.8,91.3c-0.3-0.5-0.1-1.2,0.5-1.5c0.5-0.3,1.2-0.2,1.4,0.3l3.3,6.2l5.6-6.2c0.4-0.5,1.1-0.6,1.5-0.3
			c0.4,0.4,0.4,1,0,1.5l-6.4,7.2l-1.2,6.5c-0.1,0.6-0.7,1.1-1.3,1.1c-0.6,0-1-0.5-0.9-1.1l1.2-6.5L12.8,91.3z"/>
		<path class="st0" d="M23.1,100.5c0.6-3.5,3.6-5.7,6.8-5.7c3.1,0,5.4,2.2,4.8,5.7c-0.6,3.5-3.7,5.8-6.8,5.8
			C24.7,106.3,22.5,104,23.1,100.5z M32.5,100.5c0.4-2.2-1-3.6-3-3.6c-2,0-3.9,1.4-4.3,3.6c-0.4,2.2,1,3.7,3,3.7
			S32.1,102.7,32.5,100.5z"/>
		<path class="st0" d="M44.3,104.4c-0.9,1.3-2.6,1.9-3.8,1.9c-2.7,0-3.9-1.8-3.4-4.9l1-5.4c0.1-0.6,0.7-1.1,1.3-1.1
			c0.6,0,1,0.5,0.9,1.1l-0.9,5.3c-0.3,1.8,0.4,2.9,1.9,2.9c1.6,0,3.3-0.9,3.7-3.2l0.9-5c0.1-0.6,0.7-1.1,1.3-1.1
			c0.6,0,1,0.5,0.9,1.1l-1.6,9.1c-0.1,0.6-0.7,1.1-1.3,1.1c-0.6,0-1-0.5-0.9-1.1L44.3,104.4z"/>
		<path class="st0" d="M56.4,96.8c-2.1,0-3.4,2.3-3.9,5.2l-0.5,3c-0.1,0.6-0.7,1.1-1.3,1.1c-0.6,0-1-0.5-0.9-1.1l1.6-9.1
			c0.1-0.6,0.7-1.1,1.3-1.1c0.6,0,1,0.5,0.9,1.1l-0.3,1.5c0.9-1.9,2.1-2.7,3.6-2.7c0.8,0,2.1,0.2,1.7,1.3c-0.2,0.7-0.9,0.8-1.6,0.8
			C56.8,96.8,56.6,96.8,56.4,96.8z"/>
		<path class="st0" d="M76.2,89.8c0.6,0,1,0.4,0.9,1c-0.1,0.6-0.7,1-1.2,1h-6.4L68.5,97h4.9c0.6,0,0.9,0.4,0.9,1
			c-0.1,0.6-0.7,1-1.3,1h-4.8l-1.1,6c-0.1,0.6-0.7,1.1-1.3,1.1c-0.6,0-1-0.5-0.9-1.1l2.5-14.2c0.1-0.6,0.7-1.1,1.3-1.1H76.2z"/>
		<path class="st0" d="M84.6,104.3c-1,1.3-2.7,1.9-4.2,1.9c-3,0-5.2-2.3-4.6-5.8c0.6-3.5,3.6-5.7,6.6-5.7c1.5,0,3.1,0.6,3.5,1.9
			l0.1-0.7c0.1-0.6,0.7-1.1,1.3-1.1c0.6,0,1,0.5,0.9,1.1l-1.6,9.1c-0.1,0.6-0.7,1.1-1.3,1.1c-0.6,0-1-0.5-0.9-1.1L84.6,104.3z
			 M82.3,96.9c-2,0-3.9,1.4-4.3,3.6c-0.4,2.2,0.9,3.7,2.9,3.7c2,0,3.9-1.3,4.3-3.7C85.7,98.1,84,96.9,82.3,96.9z"/>
		<path class="st0" d="M91.7,96c0.1-0.6,0.7-1.1,1.3-1.1c0.6,0,1,0.5,0.9,1.1l-0.1,0.7c0.8-1.2,2.5-1.8,3.4-1.9c0.4,0,0.8,0,1.2,0.1
			c1.3,0.2,2.2,1,2.5,2.2c1.3-2,3.1-2.3,4.2-2.3c2.8,0,3.9,1.8,3.4,4.9l-1,5.4c-0.1,0.6-0.7,1.1-1.3,1.1c-0.6,0-1-0.5-0.9-1.1
			l0.9-5.3c0.3-1.8-0.4-2.9-2-2.9c-1.8,0-3.2,1.4-3.5,3.2l-0.9,5c-0.1,0.6-0.7,1.1-1.3,1.1c-0.6,0-1-0.5-0.9-1.1l0.9-5.3
			c0.3-1.8-0.4-3-1.9-3c-1.5,0-3.2,0.9-3.6,3.3l-0.9,5c-0.1,0.6-0.7,1.1-1.3,1.1c-0.6,0-1-0.5-0.9-1.1L91.7,96z"/>
		<path class="st0" d="M112.9,105.1c-0.1,0.6-0.7,1.1-1.3,1.1c-0.6,0-1-0.5-0.9-1.1l1.6-9.1c0.1-0.6,0.7-1.1,1.3-1.1
			c0.6,0,1,0.5,0.9,1.1L112.9,105.1z M112.8,91c-0.1,0.8,0.4,1.4,1.3,1.4c0.8,0,1.6-0.6,1.7-1.4c0.1-0.8-0.4-1.4-1.2-1.4
			C113.8,89.6,113,90.2,112.8,91z"/>
		<path class="st0" d="M118.5,105.1c-0.1,0.6-0.7,1.1-1.3,1.1c-0.6,0-1-0.5-0.9-1.1L119,90c0.1-0.6,0.7-1.1,1.3-1.1
			c0.6,0,1,0.5,0.9,1.1L118.5,105.1z"/>
		<path class="st0" d="M126.4,103l4.4-7.4c0.3-0.5,1-0.8,1.5-0.6c0.5,0.2,0.7,0.9,0.3,1.4l-8.6,14.5c-0.3,0.5-1,0.8-1.5,0.6
			c-0.5-0.2-0.6-0.9-0.3-1.4l2.5-4.3l-2.2-9.4c-0.1-0.5,0-1.2,0.9-1.4c0.6-0.1,1.2,0.1,1.3,0.7L126.4,103z"/>
		<path class="st0" d="M149.5,89.6c4.7,0,7.6,3.7,6.8,8.4c-0.8,4.6-5.1,8.3-9.8,8.3c-4.6,0-7.6-3.7-6.7-8.3
			C140.6,93.3,144.9,89.6,149.5,89.6z M147,104.2c3.4,0,6.5-2.8,7.1-6.2c0.6-3.5-1.5-6.2-4.9-6.2c-3.4,0-6.5,2.8-7.1,6.2
			C141.4,101.4,143.5,104.2,147,104.2z"/>
		<path class="st0" d="M169.8,96.8l-1.5,8.3c-0.1,0.6-0.7,1.1-1.3,1.1c-0.6,0-1-0.5-0.9-1.1l1.5-8.3h-5.2l-1.5,8.3
			c-0.1,0.6-0.7,1.1-1.3,1.1c-0.6,0-1-0.5-0.9-1.1l1.5-8.3H159c-0.5,0-0.9-0.4-0.8-0.9c0.1-0.5,0.6-0.9,1.1-0.9h1.3l0.2-1.2
			c0.5-2.9,2.1-4.9,5.1-4.9h0.8c0.6,0,1,0.4,0.9,1c-0.1,0.6-0.7,1-1.2,1h-0.8c-1.8,0-2.3,1.4-2.6,2.8l-0.2,1.2h5.2l0.2-1.2
			c0.5-2.9,2.1-4.9,5.1-4.9h0.4c0.6,0,1,0.4,0.9,1c-0.1,0.6-0.7,1-1.2,1H173c-1.8,0-2.3,1.4-2.6,2.8l-0.2,1.2h6.4
			c0.6,0,1,0.5,0.9,1.1l-1.6,9c-0.1,0.6-0.7,1.1-1.3,1.1c-0.6,0-1-0.5-0.9-1.1l1.5-8.3H169.8z M177.5,89.6c0.8,0,1.4,0.6,1.2,1.4
			c-0.1,0.8-0.9,1.4-1.7,1.4c-0.8,0-1.4-0.6-1.3-1.4C175.9,90.2,176.7,89.6,177.5,89.6z"/>
		<path class="st0" d="M184.6,104.2c0.8,0,1.6-0.2,2.2-0.7c0.5-0.3,1.1-0.4,1.5,0.1c0.3,0.4,0.1,1.2-0.4,1.5
			c-1.1,0.7-2.4,1.1-3.7,1.1c-3.1,0-5.5-2.3-4.8-5.8c0.6-3.5,3.7-5.7,6.9-5.7c1.3,0,2.4,0.4,3.3,1.1c0.4,0.3,0.3,1.1-0.2,1.5
			c-0.4,0.4-1.1,0.4-1.5,0.1c-0.5-0.4-1.2-0.7-2-0.7c-2,0-4,1.5-4.4,3.7C181.2,102.7,182.6,104.2,184.6,104.2z"/>
		<path class="st0" d="M201.1,101.3H193c-0.1,1.8,1.2,3,3,3c1.3,0,2.1-0.3,3-1.2c0.5-0.4,1.2-0.6,1.5-0.3c0.4,0.3,0.4,1,0,1.3
			c-1.3,1.4-3.1,2-4.9,2c-3.1,0-5.2-2.3-4.6-5.8s3.5-5.7,6.7-5.7c3.1,0,5.1,2.2,4.5,5.7C202,101,201.6,101.3,201.1,101.3z
			 M200.2,99.7c0-1.8-1.1-3-2.8-3c-1.8,0-3.5,1.1-4,3H200.2z"/>
	</g>
</g>
</svg>
