<?xml version="1.0" encoding="utf-8"?>
<!-- Generator: Adobe Illustrator 27.8.0, SVG Export Plug-In . SVG Version: 6.00 Build 0)  -->
<svg version="1.1" id="Layer_1" xmlns="http://www.w3.org/2000/svg" xmlns:xlink="http://www.w3.org/1999/xlink" x="0px" y="0px"
	 viewBox="0 0 106 58.8" style="enable-background:new 0 0 106 58.8;" xml:space="preserve">
<style type="text/css">
	.st0{fill:#FFFFFF;}
</style>
<g>
	<g>
		<path class="st0" d="M47.5,10.7v6.4c0,0.2,0,0.3,0.1,0.5c0.1,0.1,0.2,0.3,0.3,0.4c0.1,0.1,0.2,0.2,0.4,0.3
			c0.1,0.1,0.3,0.1,0.5,0.1c0.2,0,0.3,0,0.4-0.1c0.1-0.1,0.3-0.1,0.4-0.3c0.1-0.1,0.2-0.2,0.2-0.4c0.1-0.1,0.1-0.3,0.1-0.5v-6.4H51
			c0.3,0,0.5-0.1,0.7-0.3C51.9,10.3,52,10,52,9.7c0-0.1,0-0.3-0.1-0.4c0-0.1-0.1-0.2-0.2-0.3c-0.1-0.1-0.2-0.2-0.3-0.2
			c-0.1-0.1-0.3-0.1-0.4-0.1h-1.1V8c0-1.4,0.5-2,1.5-2h0.2c0.2,0,0.3,0,0.5,0c0.2,0,0.3-0.1,0.4-0.2c0.1-0.1,0.2-0.2,0.3-0.4
			c0.1-0.2,0.1-0.3,0.1-0.5c0-0.2,0-0.3-0.1-0.5c-0.1-0.2-0.2-0.3-0.3-0.4c-0.1-0.1-0.3-0.2-0.4-0.2c-0.2,0-0.3-0.1-0.5,0h-0.2
			c-2.4,0-3.8,1.5-3.8,4.3v0.7h-0.8c-0.3,0-0.5,0.1-0.7,0.3c-0.2,0.2-0.3,0.4-0.3,0.7c0,0.3,0.1,0.5,0.3,0.7
			c0.2,0.2,0.4,0.3,0.7,0.3H47.5z"/>
		<path class="st0" d="M57.4,18.4c0.5,0,1.1-0.1,1.6-0.3c0.5-0.2,0.9-0.5,1.3-0.9c0,0.3,0.1,0.6,0.4,0.8c0.2,0.2,0.5,0.3,0.8,0.3
			c0.2,0,0.3,0,0.5-0.1c0.1-0.1,0.3-0.1,0.4-0.3c0.1-0.1,0.2-0.2,0.3-0.4c0.1-0.1,0.1-0.3,0.1-0.5V9.8c0-0.2,0-0.3-0.1-0.5
			c-0.1-0.1-0.2-0.3-0.3-0.4c-0.1-0.1-0.2-0.2-0.4-0.3c-0.1-0.1-0.3-0.1-0.5-0.1c-0.3,0-0.6,0.1-0.8,0.3c-0.2,0.2-0.3,0.5-0.4,0.8
			c-0.7-0.8-2-1.2-2.9-1.2c-2.7,0-4.8,2.1-4.8,4.9S54.6,18.4,57.4,18.4z M55,13.5v-0.2c0-0.3,0.1-0.7,0.2-1c0.1-0.3,0.3-0.6,0.6-0.8
			c0.2-0.2,0.5-0.4,0.8-0.5c0.3-0.1,0.6-0.2,1-0.2h0.1c0.7,0,1.3,0.3,1.8,0.8c0.5,0.5,0.7,1.1,0.7,1.8c0,1.8-1.4,2.7-2.6,2.7h-0.1
			c-0.7,0-1.3-0.3-1.8-0.8C55.2,14.8,55,14.1,55,13.5z"/>
		<path class="st0" d="M77.3,17.1c0,0.3,0.1,0.6,0.3,0.8c0.2,0.2,0.5,0.3,0.8,0.4c0.3,0,0.6-0.1,0.8-0.3c0.2-0.2,0.4-0.5,0.4-0.8
			v-4.3c0-2.7-1.3-4.2-3.7-4.2c-0.6,0-1.2,0.1-1.7,0.4c-0.5,0.3-1,0.7-1.3,1.2c-0.6-1.1-1.5-1.6-2.9-1.6c-0.7,0-2,0.3-2.7,1.2
			c0-0.3-0.2-0.6-0.4-0.8c-0.2-0.2-0.5-0.3-0.8-0.3h0c-0.2,0-0.3,0-0.5,0.1c-0.1,0.1-0.3,0.1-0.4,0.3c-0.1,0.1-0.2,0.2-0.3,0.4
			C65,9.5,65,9.7,65,9.8v7.3c0,0.3,0.1,0.6,0.3,0.8c0.2,0.2,0.5,0.3,0.8,0.4c0.2,0,0.3,0,0.5-0.1c0.1-0.1,0.3-0.1,0.4-0.3
			c0.1-0.1,0.2-0.2,0.3-0.4c0.1-0.1,0.1-0.3,0.1-0.5v-4c0-2.1,1.6-2.3,2.1-2.3c1,0,1.7,0.8,1.7,2.1v4.2c0,0.3,0.1,0.6,0.3,0.8
			c0.2,0.2,0.5,0.3,0.8,0.4c0.2,0,0.3,0,0.5-0.1c0.1-0.1,0.3-0.1,0.4-0.3c0.1-0.1,0.2-0.2,0.3-0.4c0.1-0.1,0.1-0.3,0.1-0.5v-4
			c0-1.4,0.8-2.3,2-2.3c1.1,0,1.8,0.8,1.8,2.1V17.1z"/>
		<path class="st0" d="M84.3,9.8c0-0.2,0-0.3-0.1-0.5C84.1,9.2,84,9.1,83.9,9c-0.1-0.1-0.2-0.2-0.4-0.3c-0.1-0.1-0.3-0.1-0.5-0.1
			c-0.3,0-0.6,0.1-0.8,0.4c-0.2,0.2-0.3,0.5-0.3,0.8v7.3c0,0.3,0.1,0.6,0.3,0.8c0.2,0.2,0.5,0.3,0.8,0.4c0.2,0,0.3,0,0.5-0.1
			c0.1-0.1,0.3-0.1,0.4-0.2s0.2-0.2,0.3-0.4c0.1-0.1,0.1-0.3,0.1-0.5V9.8z"/>
		<path class="st0" d="M83.1,6.6c0.4,0,0.7-0.2,1-0.4c0.3-0.3,0.4-0.6,0.4-1c0-0.4-0.2-0.7-0.4-1c-0.3-0.3-0.6-0.4-1-0.4
			c-0.2,0-0.4,0-0.6,0.1C82.3,3.9,82.2,4,82,4.2c-0.1,0.1-0.3,0.3-0.3,0.5c-0.1,0.2-0.1,0.4-0.1,0.6c0,0.4,0.2,0.8,0.5,1
			C82.3,6.5,82.7,6.6,83.1,6.6z"/>
		<path class="st0" d="M87.8,18.3c0.2,0,0.3,0,0.5-0.1c0.1-0.1,0.3-0.1,0.4-0.3c0.1-0.1,0.2-0.2,0.3-0.4c0.1-0.1,0.1-0.3,0.1-0.5
			V4.8c0-0.2,0-0.3-0.1-0.5c-0.1-0.1-0.2-0.3-0.3-0.4c-0.1-0.1-0.2-0.2-0.4-0.3c-0.1-0.1-0.3-0.1-0.5-0.1c-0.3,0-0.6,0.1-0.8,0.4
			c-0.2,0.2-0.3,0.5-0.3,0.8v12.3c0,0.3,0.1,0.6,0.3,0.8C87.2,18.1,87.5,18.3,87.8,18.3z"/>
		<path class="st0" d="M93.7,17.6l-1.4,3.6c-0.1,0.1-0.1,0.3-0.1,0.5c0,0.2,0,0.3,0.1,0.4c0.1,0.1,0.2,0.3,0.3,0.4
			c0.1,0.1,0.3,0.2,0.4,0.2c0.1,0,0.2,0,0.3,0c0.2,0,0.5-0.1,0.7-0.2c0.2-0.1,0.3-0.3,0.4-0.5l4.9-11.8c0-0.1,0-0.1,0-0.1
			c0.1-0.3,0-0.6-0.1-0.9c-0.1-0.3-0.4-0.5-0.7-0.5c-0.3-0.1-0.6,0-0.9,0.1c-0.3,0.1-0.5,0.4-0.6,0.6l-2.2,5.3l-2.2-5.3
			c-0.1-0.3-0.3-0.5-0.6-0.6c-0.3-0.1-0.6-0.2-0.9-0.1c0,0-0.1,0-0.1,0c-0.3,0.1-0.5,0.3-0.6,0.6s-0.1,0.6,0,0.9L93.7,17.6z"/>
		<path class="st0" d="M51.2,28.9c0.5,0,1.1,0.1,1.5,0.4c0.5,0.3,1.3,0.3,1.6-0.3c0.2-0.2,0.2-0.6,0.2-0.8c-0.1-0.3-0.2-0.6-0.5-0.7
			c-0.9-0.6-1.9-0.9-2.9-0.9c-2.9,0-5,2.1-5,4.9c0,2.8,2.2,4.9,5,4.9c1,0,2-0.3,2.9-0.9c0.2-0.2,0.4-0.4,0.5-0.7
			c0.1-0.3,0-0.6-0.2-0.8c-0.3-0.5-1.1-0.6-1.6-0.3c-0.5,0.3-1,0.4-1.5,0.4c-1.3,0-2.7-0.9-2.7-2.6v-0.1c0-0.7,0.3-1.3,0.8-1.8
			C49.9,29.2,50.5,28.9,51.2,28.9z"/>
		<path class="st0" d="M60.6,26.7c-2.8,0-4.9,2-4.9,4.9s2,4.9,4.9,4.9c1.4,0,2.7-0.5,3.7-1.5c0.1-0.1,0.2-0.2,0.2-0.4
			c0-0.1,0.1-0.3,0.1-0.4c0-0.1,0-0.3-0.1-0.4c-0.1-0.1-0.1-0.2-0.2-0.3c-0.2-0.2-0.5-0.2-0.8-0.2c-0.3,0-0.5,0.1-0.7,0.3
			c-0.7,0.5-1.2,0.8-2.1,0.8c-1.3,0-2.3-0.8-2.6-2h6.1c0.3,0,0.6-0.1,0.8-0.3c0.2-0.2,0.3-0.5,0.3-0.8
			C65.2,28.6,63.2,26.7,60.6,26.7z M60.5,28.7c0.6,0,1.1,0.2,1.6,0.5c0.4,0.4,0.7,0.9,0.8,1.4h-4.9C58.3,29.5,59.3,28.8,60.5,28.7z"
			/>
		<path class="st0" d="M71.9,26.7c-0.5,0-1,0.1-1.4,0.3c-0.5,0.2-0.9,0.5-1.2,0.9c0-0.3-0.2-0.6-0.4-0.8c-0.2-0.2-0.5-0.3-0.8-0.3
			c-0.2,0-0.3,0-0.5,0.1c-0.1,0.1-0.3,0.1-0.4,0.3c-0.1,0.1-0.2,0.2-0.3,0.4c-0.1,0.1-0.1,0.3-0.1,0.5v7.3c0,0.3,0.1,0.6,0.3,0.8
			c0.2,0.2,0.5,0.3,0.8,0.4c0.2,0,0.3,0,0.5-0.1c0.1-0.1,0.3-0.1,0.4-0.3c0.1-0.1,0.2-0.2,0.3-0.4c0.1-0.1,0.1-0.3,0.1-0.5v-4
			c0-2,1.5-2.3,2.2-2.3c1.1,0,1.8,0.8,1.8,2.1v4.2c0,0.3,0.1,0.6,0.3,0.8c0.2,0.2,0.5,0.3,0.8,0.3s0.6-0.1,0.8-0.3
			c0.2-0.2,0.3-0.5,0.3-0.8v-4.4C75.6,28.2,74.2,26.7,71.9,26.7z"/>
		<path class="st0" d="M81.9,26.8h-1v-2.4c0-0.2,0-0.3-0.1-0.5c-0.1-0.1-0.2-0.3-0.3-0.4c-0.1-0.1-0.2-0.2-0.4-0.3
			c-0.1-0.1-0.3-0.1-0.5-0.1c-0.2,0-0.3,0-0.4,0.1c-0.1,0.1-0.3,0.1-0.4,0.3c-0.1,0.1-0.2,0.2-0.2,0.4c-0.1,0.1-0.1,0.3-0.1,0.4v2.4
			h-0.7c-0.1,0-0.3,0-0.4,0.1c-0.1,0.1-0.2,0.1-0.3,0.2c-0.1,0.1-0.2,0.2-0.2,0.3c0,0.1-0.1,0.3-0.1,0.4c0,0.3,0.1,0.5,0.3,0.7
			c0.2,0.2,0.4,0.3,0.7,0.3h0.7v6.4c0,0.3,0.1,0.6,0.3,0.8c0.2,0.2,0.5,0.3,0.8,0.4c0.2,0,0.3,0,0.5-0.1c0.1-0.1,0.3-0.1,0.4-0.3
			c0.1-0.1,0.2-0.2,0.3-0.4c0.1-0.1,0.1-0.3,0.1-0.5v-6.4h1c0.1,0,0.3,0,0.4-0.1c0.1,0,0.2-0.1,0.3-0.2c0.1-0.1,0.2-0.2,0.2-0.3
			c0.1-0.1,0.1-0.2,0.1-0.4c0-0.1,0-0.3-0.1-0.4c0-0.1-0.1-0.2-0.2-0.3c-0.1-0.1-0.2-0.2-0.3-0.2C82.2,26.9,82.1,26.8,81.9,26.8z"/>
		<path class="st0" d="M89.8,26.7c-0.3-0.1-0.6-0.1-0.9-0.1c-1,0-1.8,0.5-2.3,1.6V28c0-0.2,0-0.3-0.1-0.5c-0.1-0.1-0.2-0.3-0.3-0.4
			s-0.2-0.2-0.4-0.3c-0.1-0.1-0.3-0.1-0.5-0.1c-0.3,0-0.6,0.1-0.8,0.4c-0.2,0.2-0.3,0.5-0.3,0.8v7.3c0,0.3,0.1,0.6,0.3,0.8
			c0.2,0.2,0.5,0.3,0.8,0.3s0.6-0.1,0.8-0.3c0.2-0.2,0.3-0.5,0.3-0.8v-2.4c0-1.5,0.3-4,2.3-4h0.3c0.5,0,1.3,0.1,1.5-0.8
			c0.1-0.3,0-0.6-0.2-0.9C90.3,27,90.1,26.8,89.8,26.7z"/>
		<path class="st0" d="M99.9,26.7c-0.3,0-0.6,0.1-0.8,0.3c-0.2,0.2-0.3,0.5-0.4,0.8c-0.7-0.8-2-1.2-2.9-1.2c-2.7,0-4.8,2.1-4.8,4.9
			c0,2.8,2.1,4.9,4.8,4.9c0.5,0,1.1-0.1,1.6-0.3c0.5-0.2,0.9-0.5,1.3-0.9c0,0.3,0.1,0.6,0.4,0.8c0.2,0.2,0.5,0.3,0.8,0.3
			c0.2,0,0.3,0,0.5-0.1c0.1-0.1,0.3-0.1,0.4-0.3c0.1-0.1,0.2-0.2,0.3-0.4c0.1-0.1,0.1-0.3,0.1-0.5v-7.3c0-0.2,0-0.3-0.1-0.5
			c-0.1-0.1-0.2-0.3-0.3-0.4c-0.1-0.1-0.2-0.2-0.4-0.3C100.2,26.8,100.1,26.7,99.9,26.7z M98.7,31.6c0,1.8-1.4,2.7-2.6,2.7H96
			c-0.7,0-1.3-0.3-1.8-0.8c-0.5-0.5-0.7-1.2-0.7-1.8v-0.2c0-0.3,0.1-0.7,0.2-1c0.1-0.3,0.3-0.6,0.6-0.8c0.2-0.2,0.5-0.4,0.8-0.5
			c0.3-0.1,0.6-0.2,1-0.2h0.1c0.7,0,1.3,0.3,1.8,0.8C98.5,30.2,98.7,30.9,98.7,31.6z"/>
		<path class="st0" d="M104.6,21.8c-0.3,0-0.6,0.1-0.8,0.4c-0.2,0.2-0.3,0.5-0.3,0.8v12.3c0,0.3,0.1,0.6,0.3,0.8
			c0.2,0.2,0.5,0.3,0.8,0.3c0.3,0,0.6-0.1,0.8-0.3c0.2-0.2,0.3-0.5,0.3-0.8V23c0-0.2,0-0.3-0.1-0.5c-0.1-0.1-0.2-0.3-0.3-0.4
			c-0.1-0.1-0.2-0.2-0.4-0.3C105,21.8,104.8,21.8,104.6,21.8z"/>
		<path class="st0" d="M38.2,23.3V5.7c0-1.1-0.5-2.2-1.3-3c-0.8-0.8-1.9-1.2-3-1.2H4.5c-1.1,0-2.2,0.4-3,1.2c-0.8,0.8-1.3,1.9-1.3,3
			v17.6c-0.1,1.1-0.5,9.3,7.8,16c0.3,0.2,0.6,0.3,1,0.3c0.2,0,0.5-0.1,0.7-0.2c0.2-0.1,0.4-0.3,0.6-0.5c0.1-0.2,0.2-0.4,0.3-0.6
			c0.1-0.2,0.1-0.4,0.1-0.6c0-0.2-0.1-0.4-0.2-0.6c-0.1-0.2-0.2-0.4-0.4-0.5c-7.3-5.8-6.6-12.9-6.6-13.1V5.7c0-0.3,0.1-0.5,0.3-0.7
			c0.2-0.2,0.4-0.3,0.7-0.3H34c0.3,0,0.5,0.1,0.7,0.3C34.9,5.2,35,5.4,35,5.7v17.9c0,0.3,0.7,7.3-6.6,13.2c-0.2,0.1-0.3,0.3-0.4,0.6
			c-0.1,0.2-0.2,0.4-0.2,0.7c0,0.4,0.2,0.8,0.5,1.2c0.3,0.3,0.7,0.5,1.1,0.5c0.4,0,0.7-0.1,1-0.4C38.8,32.6,38.4,24.4,38.2,23.3z"/>
		<path class="st0" d="M19.2,32.3c-0.3,0-0.5-0.1-0.7-0.2c-0.2-0.1-0.4-0.3-0.6-0.5l-0.1-0.1c-0.2-0.3-0.4-0.5-0.7-0.8l0,0
			c-0.9-0.9-2.5-2.2-3.9-3.2c-0.7-0.5-1.4-1.1-1.9-1.5c-3.7-3-4.4-6.1-4.3-8.2C7,15,8.5,12.8,9.7,11.9c1.9-1.4,3.8-2,5.7-1.6
			c1.5,0.4,2.8,1.2,3.8,2.3c1-1.1,2.3-1.9,3.8-2.3c1.9-0.4,3.8,0.1,5.7,1.5c1.3,0.9,2.6,3.2,2.7,5.9c0.1,2.1-0.6,5.2-4.3,8.2
			c-0.5,0.4-1.2,0.9-1.9,1.5c-1.4,1.1-3,2.3-3.9,3.3l0,0c-0.3,0.2-0.5,0.5-0.7,0.8c0,0,0,0.1-0.1,0.1c-0.1,0.2-0.3,0.4-0.6,0.5
			C19.7,32.2,19.5,32.3,19.2,32.3z M14.2,13.4c-0.8,0-1.7,0.3-2.6,1c-0.4,0.3-1.4,1.6-1.4,3.4c-0.1,2,1,3.9,3.1,5.7
			c0.5,0.4,1.1,0.9,1.8,1.4c1.4,1,2.8,2.1,4.1,3.3c1.3-1.2,2.7-2.3,4.1-3.3c0.7-0.5,1.4-1,1.8-1.4c2.1-1.7,3.2-3.7,3.1-5.7
			c-0.1-1.8-1-3.1-1.4-3.4c-1.1-0.9-2.2-1.2-3.2-1c-1.7,0.4-2.8,2.3-3.1,2.7c-0.1,0.2-0.3,0.5-0.6,0.6c-0.2,0.1-0.5,0.2-0.8,0.2
			c-0.3,0-0.6-0.1-0.8-0.2c-0.2-0.1-0.4-0.3-0.6-0.6c-0.2-0.4-1.3-2.3-3.1-2.7C14.6,13.4,14.4,13.4,14.2,13.4z"/>
	</g>
	<g>
		<path class="st0" d="M6.2,47.1c-0.1-0.2,0-0.6,0.3-0.8c0.3-0.2,0.6-0.1,0.7,0.1l1.7,3.1l2.8-3.1c0.2-0.2,0.6-0.3,0.8-0.1
			c0.2,0.2,0.2,0.5,0,0.8l-3.2,3.6L8.6,54c0,0.3-0.3,0.6-0.7,0.6c-0.3,0-0.5-0.3-0.5-0.6l0.6-3.3L6.2,47.1z"/>
		<path class="st0" d="M11.4,51.7c0.3-1.8,1.8-2.9,3.4-2.9c1.6,0,2.7,1.1,2.4,2.9c-0.3,1.8-1.8,2.9-3.4,2.9S11.1,53.5,11.4,51.7z
			 M16.1,51.7c0.2-1.1-0.5-1.8-1.5-1.8c-1,0-2,0.7-2.2,1.8c-0.2,1.1,0.5,1.9,1.5,1.9S15.9,52.8,16.1,51.7z"/>
		<path class="st0" d="M22.1,53.7c-0.5,0.7-1.3,1-1.9,1c-1.4,0-2-0.9-1.7-2.5l0.5-2.7c0.1-0.3,0.3-0.5,0.6-0.5
			c0.3,0,0.5,0.3,0.4,0.5l-0.5,2.7c-0.2,0.9,0.2,1.5,1,1.5c0.8,0,1.6-0.4,1.9-1.6l0.5-2.5c0-0.3,0.3-0.5,0.6-0.5
			c0.3,0,0.5,0.3,0.4,0.5L23.1,54c0,0.3-0.3,0.5-0.6,0.5c-0.3,0-0.5-0.3-0.5-0.5L22.1,53.7z"/>
		<path class="st0" d="M28.2,49.9c-1.1,0-1.7,1.1-2,2.6L25.9,54c-0.1,0.3-0.3,0.5-0.7,0.5c-0.3,0-0.5-0.3-0.4-0.5l0.8-4.6
			c0-0.3,0.3-0.5,0.6-0.5c0.3,0,0.5,0.3,0.5,0.5l-0.1,0.8c0.5-1,1.1-1.4,1.8-1.4c0.4,0,1,0.1,0.9,0.7c-0.1,0.3-0.4,0.4-0.8,0.4
			C28.4,49.9,28.2,49.9,28.2,49.9z"/>
		<path class="st0" d="M38.1,46.3c0.3,0,0.5,0.2,0.4,0.5c-0.1,0.3-0.3,0.5-0.6,0.5h-3.2L34.3,50h2.5c0.3,0,0.5,0.2,0.4,0.5
			c-0.1,0.3-0.3,0.5-0.6,0.5h-2.4l-0.5,3c0,0.3-0.3,0.6-0.7,0.6c-0.3,0-0.5-0.3-0.4-0.6l1.3-7.1c0.1-0.3,0.4-0.6,0.7-0.6H38.1z"/>
		<path class="st0" d="M42.4,53.6c-0.5,0.6-1.4,1-2.1,1c-1.5,0-2.6-1.1-2.3-2.9c0.3-1.8,1.8-2.9,3.3-2.9c0.8,0,1.5,0.3,1.8,1
			l0.1-0.3c0-0.3,0.3-0.5,0.6-0.5c0.3,0,0.5,0.3,0.5,0.5L43.4,54c-0.1,0.3-0.3,0.5-0.6,0.5c-0.3,0-0.5-0.3-0.4-0.5L42.4,53.6z
			 M41.2,49.9c-1,0-1.9,0.7-2.1,1.8c-0.2,1.1,0.5,1.9,1.5,1.9c1,0,2-0.7,2.2-1.9C42.9,50.5,42.1,49.9,41.2,49.9z"/>
		<path class="st0" d="M45.9,49.4c0-0.3,0.3-0.5,0.6-0.5c0.3,0,0.5,0.3,0.5,0.5L47,49.8c0.4-0.6,1.2-0.9,1.7-1c0.2,0,0.4,0,0.6,0
			c0.7,0.1,1.1,0.5,1.3,1.1c0.7-1,1.6-1.1,2.1-1.1c1.4,0,2,0.9,1.7,2.5L53.9,54c-0.1,0.3-0.3,0.5-0.7,0.5c-0.3,0-0.5-0.3-0.4-0.5
			l0.5-2.7c0.2-0.9-0.2-1.5-1-1.5c-0.9,0-1.6,0.7-1.8,1.6L50,54c-0.1,0.3-0.3,0.5-0.7,0.5c-0.3,0-0.5-0.3-0.4-0.5l0.5-2.7
			c0.2-0.9-0.2-1.5-1-1.5c-0.8,0-1.6,0.5-1.8,1.6L46.2,54c-0.1,0.3-0.3,0.5-0.7,0.5c-0.3,0-0.5-0.3-0.4-0.5L45.9,49.4z"/>
		<path class="st0" d="M56.6,54c-0.1,0.3-0.3,0.5-0.7,0.5c-0.3,0-0.5-0.3-0.4-0.5l0.8-4.6c0-0.3,0.3-0.5,0.6-0.5
			c0.3,0,0.5,0.3,0.5,0.5L56.6,54z M56.6,46.9c-0.1,0.4,0.2,0.7,0.6,0.7c0.4,0,0.8-0.3,0.9-0.7c0.1-0.4-0.2-0.7-0.6-0.7
			C57.1,46.2,56.7,46.5,56.6,46.9z"/>
		<path class="st0" d="M59.4,54c-0.1,0.3-0.3,0.5-0.7,0.5c-0.3,0-0.5-0.3-0.4-0.5l1.3-7.6c0-0.3,0.3-0.5,0.6-0.5
			c0.3,0,0.5,0.2,0.4,0.5L59.4,54z"/>
		<path class="st0" d="M63.4,53l2.2-3.8c0.2-0.3,0.5-0.4,0.8-0.3c0.3,0.1,0.3,0.4,0.2,0.7l-4.3,7.3c-0.2,0.3-0.5,0.4-0.8,0.3
			c-0.3-0.1-0.3-0.4-0.1-0.7l1.3-2.2l-1.1-4.7c-0.1-0.3,0-0.6,0.4-0.7c0.3-0.1,0.6,0,0.6,0.3L63.4,53z"/>
		<path class="st0" d="M75.1,46.2c2.3,0,3.8,1.9,3.4,4.2c-0.4,2.3-2.6,4.2-4.9,4.2c-2.3,0-3.8-1.9-3.4-4.2
			C70.6,48.1,72.7,46.2,75.1,46.2z M73.8,53.6c1.7,0,3.3-1.4,3.6-3.1c0.3-1.7-0.8-3.1-2.5-3.1c-1.7,0-3.3,1.4-3.6,3.1
			C71,52.2,72.1,53.6,73.8,53.6z"/>
		<path class="st0" d="M85.3,49.9L84.6,54c0,0.3-0.3,0.5-0.6,0.5c-0.3,0-0.5-0.3-0.4-0.5l0.7-4.2h-2.6L80.8,54
			c0,0.3-0.3,0.5-0.6,0.5c-0.3,0-0.5-0.3-0.4-0.5l0.7-4.2h-0.7c-0.2,0-0.4-0.2-0.4-0.5c0-0.2,0.3-0.5,0.5-0.5h0.7l0.1-0.6
			c0.3-1.5,1.1-2.5,2.6-2.5h0.4c0.3,0,0.5,0.2,0.4,0.5c0,0.3-0.3,0.5-0.6,0.5h-0.4c-0.9,0-1.2,0.7-1.3,1.4l-0.1,0.6h2.6l0.1-0.6
			c0.3-1.5,1.1-2.5,2.6-2.5h0.2c0.3,0,0.5,0.2,0.4,0.5c0,0.3-0.3,0.5-0.6,0.5h-0.2c-0.9,0-1.2,0.7-1.3,1.4l-0.1,0.6h3.2
			c0.3,0,0.5,0.2,0.5,0.5L88.3,54c0,0.3-0.3,0.5-0.6,0.5c-0.3,0-0.5-0.3-0.4-0.5l0.7-4.2H85.3z M89.2,46.2c0.4,0,0.7,0.3,0.6,0.7
			s-0.5,0.7-0.9,0.7c-0.4,0-0.7-0.3-0.6-0.7C88.4,46.5,88.8,46.2,89.2,46.2z"/>
		<path class="st0" d="M92.7,53.6c0.4,0,0.8-0.1,1.1-0.3c0.3-0.2,0.6-0.2,0.8,0c0.2,0.2,0.1,0.6-0.2,0.8c-0.6,0.4-1.2,0.6-1.9,0.6
			c-1.6,0-2.8-1.2-2.4-2.9c0.3-1.7,1.9-2.9,3.5-2.9c0.7,0,1.2,0.2,1.7,0.6c0.2,0.2,0.2,0.5-0.1,0.8c-0.2,0.2-0.6,0.2-0.8,0
			c-0.3-0.2-0.6-0.3-1-0.3c-1,0-2,0.8-2.2,1.9C91,52.8,91.7,53.6,92.7,53.6z"/>
		<path class="st0" d="M101.1,52.1H97c0,0.9,0.6,1.5,1.5,1.5c0.7,0,1.1-0.2,1.5-0.6c0.3-0.2,0.6-0.3,0.8-0.1c0.2,0.2,0.2,0.5,0,0.7
			c-0.7,0.7-1.5,1-2.5,1c-1.6,0-2.6-1.2-2.3-2.9c0.3-1.8,1.8-2.9,3.4-2.9c1.6,0,2.6,1.1,2.3,2.9C101.5,52,101.3,52.1,101.1,52.1z
			 M100.6,51.3c0-0.9-0.5-1.5-1.4-1.5c-0.9,0-1.8,0.6-2,1.5H100.6z"/>
	</g>
</g>
</svg>
