<svg width="16" height="16" viewBox="0 0 16 16" fill="none" xmlns="http://www.w3.org/2000/svg">
<path d="M8.03142 8.62519C8.37661 8.62519 8.65643 8.34537 8.65643 8.00018V0.625014C8.65643 0.279819 8.37661 0 8.03142 0C7.68622 0 7.4064 0.279819 7.4064 0.625014V8.00018C7.4064 8.34537 7.68622 8.62519 8.03142 8.62519Z" fill="white"/>
<path d="M11.4921 13.7782C10.4422 14.4141 9.23474 14.7503 8.00018 14.7503C4.27813 14.7503 1.25003 11.7222 1.25003 8.00011C1.25003 5.15667 3.05463 2.60533 5.74053 1.65144C6.06582 1.5359 6.23586 1.17858 6.12032 0.853294C6.00479 0.528005 5.64744 0.35797 5.32218 0.473504C3.77896 1.02158 2.4569 2.01416 1.49891 3.34401C0.518324 4.70519 0 6.31526 0 8.00011C0 10.137 0.832144 12.146 2.34318 13.6571C3.85424 15.1681 5.86326 16.0003 8.00018 16.0003C9.46312 16.0003 10.8945 15.6016 12.1397 14.8474C12.4349 14.6685 12.5293 14.2842 12.3505 13.989C12.1716 13.6937 11.7873 13.5993 11.4921 13.7782Z" fill="white"/>
<path d="M14.5218 3.37653C13.5781 2.05666 12.2725 1.0642 10.7461 0.50647C10.4219 0.387968 10.063 0.554784 9.94457 0.87901C9.8261 1.20324 9.99288 1.56209 10.3171 1.68056C12.9688 2.64952 14.7504 5.18908 14.7504 7.99992C14.7504 9.33086 14.3546 10.6264 13.6058 11.7464C13.414 12.0334 13.4911 12.4215 13.7781 12.6134C13.8848 12.6847 14.0054 12.7188 14.1248 12.7188C14.3265 12.7188 14.5245 12.6214 14.645 12.4411C15.5317 11.1148 16.0005 9.57905 16.0005 7.99992C16.0005 6.32816 15.4892 4.72941 14.5218 3.37653Z" fill="white"/>
</svg>
