<?xml version="1.0" standalone="no"?>
<!DOCTYPE svg PUBLIC "-//W3C//DTD SVG 1.1//EN" "http://www.w3.org/Graphics/SVG/1.1/DTD/svg11.dtd" >
<svg xmlns="http://www.w3.org/2000/svg" xmlns:xlink="http://www.w3.org/1999/xlink" version="1.1">
<metadata>
Created by FontForge 20170924 at Tue Mar 18 12:10:57 2014
 By www-data
Please contact us to learn more about license restrictions.
</metadata>
<defs>
<font id="SofiaProSoftBold" horiz-adv-x="580" >
  <font-face 
    font-family="Sofia Pro Soft Bold"
    font-weight="400"
    font-stretch="normal"
    units-per-em="1000"
    panose-1="2 11 0 0 0 0 0 0 0 0"
    ascent="750"
    descent="-250"
    x-height="464"
    cap-height="694"
    bbox="-153.66 -263 1149 1079.07"
    underline-thickness="50"
    underline-position="-100"
    unicode-range="U+0020-FB04"
  />
<missing-glyph horiz-adv-x="635" 
d="M226 133c0 -25 20 -42 46 -42c24 0 44 17 44 42s-20 44 -44 44c-26 0 -46 -19 -46 -44zM234 449c7 40 40 64 75 64c40 0 79 -28 79 -72c0 -33 -26 -63 -56 -71c-52 -17 -91 -43 -91 -109v-10c0 -16 13 -30 30 -30s31 14 31 30v10c2 32 17 41 48 50c54 14 99 63 99 130
c0 82 -66 133 -140 133c-64 0 -119 -42 -131 -111c-3 -16 4 -32 21 -36c15 -4 32 6 35 22zM520 0h-406c-22 0 -39 18 -39 40v585c0 22 17 40 39 40h406c22 0 39 -18 39 -40v-585c0 -22 -17 -40 -39 -40z" />
    <glyph glyph-name="fi" unicode="fi" horiz-adv-x="629" 
d="M415 640c0 46 38 81 85 81s85 -35 85 -81s-38 -82 -85 -82s-85 36 -85 82zM430 357h-185v-300c0 -35 -32 -62 -70 -62c-37 0 -69 28 -70 62v300h-44c-28 1 -50 26 -50 55c0 30 22 55 50 55h44v32c0 143 71 222 205 222h2c36 0 61 -29 61 -64c0 -34 -26 -63 -61 -64h-2
c-48 0 -65 -34 -65 -89v-37h255c38 0 70 -27 70 -62v-348c0 -35 -32 -62 -70 -62c-37 0 -69 28 -70 62v300z" />
    <glyph glyph-name="fl" unicode="fl" horiz-adv-x="615" 
d="M415 57v516c0 23 -43 27 -84 27c-63 0 -86 -41 -86 -96v-37h48c28 0 50 -25 50 -55c0 -29 -22 -54 -50 -55h-48v-300c0 -35 -32 -62 -70 -62c-37 0 -69 28 -70 62v300h-44c-28 1 -50 26 -50 55c0 30 22 55 50 55h44v32c0 143 75 222 221 222c241 0 229 -72 229 -115v-549
c0 -35 -32 -62 -70 -62c-37 0 -69 28 -70 62z" />
    <glyph glyph-name="f_f" unicode="ff" horiz-adv-x="706" 
d="M321 593h-11c-48 0 -65 -34 -65 -89v-37h213v32c0 143 71 222 205 222h12c36 0 64 -29 64 -64c0 -34 -29 -63 -64 -64h-12c-48 0 -65 -34 -65 -89v-37h48c28 0 50 -25 50 -55c0 -29 -22 -54 -50 -55h-48v-300c0 -35 -32 -62 -70 -62c-37 0 -69 28 -70 62v300h-213v-300
c0 -35 -32 -62 -70 -62c-37 0 -69 28 -70 62v300h-44c-28 1 -50 26 -50 55c0 30 22 55 50 55h44v32c0 143 71 222 205 222h11c36 0 64 -29 64 -64c0 -34 -29 -63 -64 -64z" />
    <glyph glyph-name="f_f_i" unicode="ffi" horiz-adv-x="982" 
d="M766 640c0 46 40 81 87 81s85 -35 85 -81s-38 -82 -85 -82s-87 36 -87 82zM783 357h-202v-300c0 -35 -32 -62 -70 -62c-37 0 -69 28 -70 62v300h-196v-300c0 -35 -32 -62 -70 -62c-37 0 -69 28 -70 62v300h-44c-28 1 -50 26 -50 55c0 30 22 55 50 55h44v32
c0 143 71 222 205 222h30c36 0 64 -29 64 -64c0 -34 -29 -63 -64 -64h-30c-48 0 -65 -34 -65 -89v-37h196v32c0 143 71 222 205 222h12c36 0 64 -29 64 -64c0 -34 -29 -63 -64 -64h-12c-48 0 -65 -34 -65 -89v-37h272c38 0 70 -27 70 -62v-348c0 -35 -32 -62 -70 -62
c-37 0 -69 28 -70 62v300z" />
    <glyph glyph-name="f_f_l" unicode="ffl" horiz-adv-x="968" 
d="M458 357h-213v-300c0 -35 -32 -62 -70 -62c-37 0 -69 28 -70 62v300h-44c-28 1 -50 26 -50 55c0 30 22 55 50 55h44v32c0 143 71 222 205 222h12c36 0 64 -29 64 -64c0 -34 -29 -63 -64 -64h-12c-48 0 -65 -34 -65 -89v-37h213v32c0 143 75 222 221 222
c241 0 229 -72 229 -115v-549c0 -35 -32 -62 -70 -62c-37 0 -69 28 -70 62v516c0 23 -43 27 -84 27c-63 0 -86 -41 -86 -96v-37h48c28 0 50 -25 50 -55c0 -29 -22 -54 -50 -55h-48v-300c0 -35 -32 -62 -70 -62c-37 0 -69 28 -70 62v300z" />
    <glyph glyph-name="f_f_j" unicode="ffj" horiz-adv-x="968" 
d="M751 640c0 46 40 81 87 81s85 -35 85 -81s-38 -82 -85 -82s-87 36 -87 82zM908 405v-431c0 -124 -44 -203 -176 -203h-28c-36 0 -66 27 -66 64s31 61 66 62h3c51 0 61 41 61 74v386h-196v-300c0 -35 -32 -62 -70 -62c-37 0 -69 28 -70 62v300h-187v-300
c0 -35 -32 -62 -70 -62c-37 0 -69 28 -70 62v300h-44c-28 1 -50 26 -50 55c0 30 22 55 50 55h44v32c0 143 71 222 205 222h21c36 0 64 -29 64 -64c0 -34 -29 -63 -64 -64h-21c-48 0 -65 -34 -65 -89v-37h187v32c0 143 71 222 205 222h6c36 0 64 -29 64 -64
c0 -34 -29 -63 -64 -64h-6c-48 0 -65 -34 -65 -89v-37h266c38 0 70 -27 70 -62z" />
    <glyph glyph-name="f_j" unicode="fj" horiz-adv-x="615" 
d="M398 640c0 46 40 81 87 81s85 -35 85 -81s-38 -82 -85 -82s-87 36 -87 82zM104 357h1h-44c-28 1 -50 26 -50 55c0 30 22 55 50 55h43v32c0 143 71 222 205 222h6c36 0 64 -29 64 -64c0 -34 -29 -63 -64 -64h-6c-48 0 -65 -34 -65 -89v-37h241c38 0 70 -27 70 -62v-431
c0 -124 -44 -203 -176 -203h-28c-36 0 -66 27 -66 64s31 61 66 62h3c51 0 61 41 61 74v386h-171v-300c0 -35 -32 -62 -70 -62c-37 0 -69 28 -70 62v300z" />
    <glyph glyph-name=".notdef" horiz-adv-x="635" 
d="M226 133c0 -25 20 -42 46 -42c24 0 44 17 44 42s-20 44 -44 44c-26 0 -46 -19 -46 -44zM234 449c7 40 40 64 75 64c40 0 79 -28 79 -72c0 -33 -26 -63 -56 -71c-52 -17 -91 -43 -91 -109v-10c0 -16 13 -30 30 -30s31 14 31 30v10c2 32 17 41 48 50c54 14 99 63 99 130
c0 82 -66 133 -140 133c-64 0 -119 -42 -131 -111c-3 -16 4 -32 21 -36c15 -4 32 6 35 22zM520 0h-406c-22 0 -39 18 -39 40v585c0 22 17 40 39 40h406c22 0 39 -18 39 -40v-585c0 -22 -17 -40 -39 -40z" />
    <glyph glyph-name="b" unicode="b" horiz-adv-x="605" 
d="M201 401c40 62 110 75 140 75c119 0 227 -87 227 -242s-108 -243 -227 -243c-53 0 -110 26 -140 75v-9c-1 -34 -33 -62 -70 -62c-38 0 -70 27 -70 62v607c0 35 32 62 70 62c37 0 69 -28 70 -62v-263zM424 233c0 62 -40 118 -110 118c-63 0 -114 -56 -114 -118
s51 -118 114 -118c70 0 110 56 110 118z" />
    <glyph glyph-name="d" unicode="d" horiz-adv-x="605" 
d="M404 401v263c1 34 33 62 70 62c38 0 70 -27 70 -62v-607c0 -35 -32 -62 -70 -62c-37 0 -69 28 -70 62v9c-30 -49 -87 -75 -140 -75c-119 0 -227 88 -227 243s108 242 227 242c30 0 100 -13 140 -75zM181 233c0 -62 40 -118 110 -118c63 0 114 56 114 118
s-51 118 -114 118c-70 0 -110 -56 -110 -118z" />
    <glyph glyph-name="i" unicode="i" horiz-adv-x="258" 
d="M42 640c0 46 40 81 87 81s85 -35 85 -81s-38 -82 -85 -82s-87 36 -87 82zM199 410v-353c0 -35 -32 -62 -70 -62c-37 0 -69 28 -70 62v353c1 34 33 62 70 62c38 0 70 -27 70 -62z" />
    <glyph glyph-name="f" unicode="f" horiz-adv-x="353" 
d="M245 467h48c28 0 50 -25 50 -55c0 -29 -22 -54 -50 -55h-48v-300c0 -35 -32 -62 -70 -62c-37 0 -69 28 -70 62v300h-44c-28 1 -50 26 -50 55c0 30 22 55 50 55h44v32c0 143 71 222 205 222h12c36 0 64 -29 64 -64c0 -34 -29 -63 -64 -64h-12c-48 0 -65 -34 -65 -89v-37z
" />
    <glyph glyph-name="o" unicode="o" horiz-adv-x="563" 
d="M281 -9c-136 0 -245 97 -245 244s109 241 245 241s246 -94 246 -241s-110 -244 -246 -244zM281 126c58 0 106 45 106 109c0 63 -48 106 -106 106c-57 0 -105 -43 -105 -106c0 -64 48 -109 105 -109z" />
    <glyph glyph-name="l" unicode="l" horiz-adv-x="262" 
d="M201 664v-607c0 -35 -32 -62 -70 -62c-37 0 -69 28 -70 62v607c1 34 33 62 70 62c38 0 70 -27 70 -62z" />
    <glyph glyph-name="c" unicode="c" horiz-adv-x="502" 
d="M178 232c0 -65 54 -106 114 -106c25 0 49 7 69 18c25 14 66 20 91 -5c28 -28 24 -79 -9 -102c-42 -30 -95 -46 -151 -46c-134 0 -256 94 -256 241v3c0 147 122 241 256 241c56 0 109 -16 151 -46c33 -23 37 -74 9 -102c-25 -25 -66 -19 -91 -5c-20 11 -44 18 -69 18
c-60 0 -114 -41 -114 -106v-3z" />
    <glyph glyph-name="e" unicode="e" horiz-adv-x="544" 
d="M177 275h202c-7 57 -46 85 -98 85s-92 -26 -104 -85zM459 126c26 -30 16 -73 -18 -93c-47 -31 -106 -42 -161 -42c-134 0 -244 97 -244 244s110 241 244 241c133 0 239 -98 239 -245c0 -25 -21 -43 -43 -43h-301c7 -54 66 -77 115 -77c28 0 52 2 81 22c32 22 68 16 88 -7
z" />
    <glyph glyph-name="j" unicode="j" horiz-adv-x="262" 
d="M45 640c0 46 40 81 87 81c48 0 86 -35 86 -81s-38 -82 -86 -82c-47 0 -87 36 -87 82zM-3 -103h3c51 0 61 41 61 74v439c1 34 33 62 70 62c38 0 70 -27 70 -62v-436c0 -124 -44 -203 -176 -203h-28c-36 0 -66 27 -66 64s31 61 66 62z" />
    <glyph glyph-name="p" unicode="p" horiz-adv-x="605" 
d="M201 401c40 62 110 75 140 75c119 0 227 -87 227 -242s-108 -243 -227 -243c-53 0 -110 26 -140 75v-232c-1 -34 -33 -62 -70 -62c-38 0 -70 27 -70 62v576c0 35 32 62 70 62c37 0 69 -28 70 -62v-9zM424 233c0 62 -40 118 -110 118c-63 0 -114 -56 -114 -118
s51 -118 114 -118c70 0 110 56 110 118z" />
    <glyph glyph-name="q" unicode="q" horiz-adv-x="605" 
d="M404 401v9c1 34 33 62 70 62c38 0 70 -27 70 -62v-576c0 -35 -32 -62 -70 -62c-37 0 -69 28 -70 62v232c-30 -49 -87 -75 -140 -75c-119 0 -227 88 -227 243s108 242 227 242c30 0 100 -13 140 -75zM181 233c0 -62 40 -118 110 -118c63 0 114 56 114 118
s-51 118 -114 118c-70 0 -110 -56 -110 -118z" />
    <glyph glyph-name="h" unicode="h" horiz-adv-x="574" 
d="M379 57v192c0 61 -44 92 -86 92c-44 0 -92 -23 -92 -94v-190c0 -35 -32 -62 -70 -62c-37 0 -69 28 -70 62v607c1 34 33 62 70 62c38 0 70 -27 70 -62v-270c19 58 86 82 130 82c123 0 188 -81 188 -222v-197c0 -35 -32 -62 -70 -62c-37 0 -69 28 -70 62z" />
    <glyph glyph-name="g" unicode="g" horiz-adv-x="605" 
d="M82 -140c-19 24 -17 64 8 86c25 23 67 18 86 -3c26 -28 66 -51 104 -51c106 0 135 73 129 166v13c-30 -53 -87 -80 -145 -80c-119 0 -227 88 -227 243s108 242 227 242c30 0 100 -13 140 -75v9c1 34 33 62 70 62c38 0 70 -27 70 -62v-345c0 -201 -98 -298 -264 -298
c-81 0 -152 36 -198 93zM181 233c0 -62 40 -118 110 -118c63 0 114 56 114 118s-51 118 -114 118c-70 0 -110 -56 -110 -118z" />
    <glyph glyph-name="k" unicode="k" horiz-adv-x="492" 
d="M358 15l-157 169v-127c0 -35 -32 -62 -70 -62c-37 0 -69 28 -70 62v607c1 34 33 62 70 62c38 0 70 -27 70 -62v-326l109 110c22 25 63 30 90 8c26 -21 33 -61 9 -89l-109 -106l154 -161c26 -28 24 -70 -4 -91c-25 -21 -72 -18 -92 6z" />
    <glyph glyph-name="s" unicode="s" horiz-adv-x="460" 
d="M38 90c-10 29 2 60 25 70c31 14 60 1 75 -17c25 -27 55 -41 88 -41c31 0 60 5 60 29c0 20 -12 27 -46 38l-53 19c-140 47 -139 113 -139 156c0 69 83 133 181 133c67 0 136 -21 168 -77c17 -30 9 -59 -12 -71c-31 -18 -60 -11 -89 11c-20 15 -38 21 -56 21
c-30 0 -51 -10 -51 -28c0 -15 12 -24 40 -33l71 -24c113 -37 127 -110 127 -140c0 -99 -104 -146 -202 -146c-75 0 -163 31 -187 100z" />
    <glyph glyph-name="n" unicode="n" horiz-adv-x="562" 
d="M199 410v-11c25 47 80 78 135 78c105 0 172 -65 172 -198v-222c0 -35 -32 -62 -70 -62c-37 0 -69 28 -70 62v192c0 62 -34 93 -81 93c-49 0 -86 -24 -86 -95v-190c0 -35 -32 -62 -70 -62c-37 0 -69 28 -70 62v353c1 34 33 62 70 62c38 0 70 -27 70 -62z" />
    <glyph glyph-name="space" unicode=" " horiz-adv-x="242" 
 />
    <glyph glyph-name="t" unicode="t" horiz-adv-x="353" 
d="M62 467h38v122c1 34 33 62 70 62c38 0 70 -27 70 -62v-122h53c28 0 50 -25 50 -55c0 -29 -22 -54 -50 -55h-53v-300c0 -35 -32 -62 -70 -62c-37 0 -69 28 -70 62v300h-38c-28 1 -50 26 -50 55c0 30 22 55 50 55z" />
    <glyph glyph-name="S" unicode="S" horiz-adv-x="573" 
d="M50 139c-11 35 5 69 39 82c39 15 76 -6 90 -35c15 -31 49 -65 111 -65c59 0 100 28 101 73c1 31 -13 58 -83 78l-83 23c-152 47 -178 134 -178 196c0 123 105 206 237 206c99 0 173 -43 210 -115c17 -33 3 -65 -22 -81c-36 -23 -68 -13 -92 17c-29 37 -67 48 -98 48
c-51 0 -89 -30 -89 -71c0 -18 7 -51 74 -70l82 -24c167 -48 191 -142 189 -208c-2 -137 -126 -202 -248 -202s-210 59 -240 148z" />
    <glyph glyph-name="m" unicode="m" horiz-adv-x="849" 
d="M794 265v-208c0 -35 -32 -62 -70 -62c-37 0 -69 28 -70 62v192c0 61 -37 93 -78 93c-44 0 -79 -27 -79 -95v-190c0 -35 -32 -62 -70 -62c-37 0 -69 28 -70 62v195c0 59 -37 90 -77 90c-42 0 -81 -24 -81 -95v-190c0 -35 -32 -62 -70 -62c-37 0 -69 28 -70 62v353
c1 34 33 62 70 62c38 0 70 -27 70 -62v-11c22 49 72 77 122 77c74 0 123 -24 154 -88c34 74 103 89 136 89c111 0 182 -71 183 -212z" />
    <glyph glyph-name="u" unicode="u" horiz-adv-x="562" 
d="M363 57v11c-25 -47 -80 -77 -135 -77c-105 0 -172 52 -172 185v234c0 35 32 62 70 62c37 0 69 -28 70 -62v-192c0 -62 23 -92 81 -92c49 0 86 23 86 94v190c0 35 32 62 70 62c37 0 69 -28 70 -62v-353c-1 -34 -33 -62 -70 -62c-38 0 -70 27 -70 62z" />
    <glyph glyph-name="r" unicode="r" horiz-adv-x="413" 
d="M322 476c46 0 95 -11 86 -77c-5 -35 -38 -51 -69 -51c-10 0 -25 1 -34 1c-78 0 -104 -60 -106 -177v-115c0 -35 -32 -62 -70 -62c-37 0 -69 28 -70 62v353c1 34 33 62 70 62c38 0 70 -27 70 -62v-51c26 87 75 117 123 117z" />
    <glyph glyph-name="v" unicode="v" horiz-adv-x="490" 
d="M468 386l-142 -332c-14 -37 -39 -59 -77 -59h-6c-37 0 -65 22 -80 59l-141 332c-12 32 7 74 41 83c44 11 75 -9 87 -40l95 -252l95 252c11 31 43 51 87 40c34 -9 53 -51 41 -83z" />
    <glyph glyph-name="z" unicode="z" horiz-adv-x="499" 
d="M428 337l-192 -209h169c31 0 60 -30 60 -64c0 -35 -28 -64 -60 -64h-304c-31 0 -65 20 -65 60v3c0 22 8 46 28 67l192 209h-154c-31 0 -60 30 -60 64c0 35 28 64 60 64h289c31 0 65 -20 65 -60v-3c0 -22 -8 -46 -28 -67z" />
    <glyph glyph-name="y" unicode="y" horiz-adv-x="482" 
d="M458 386l-239 -577c-13 -31 -45 -49 -88 -39c-34 8 -54 48 -40 84l78 194l-145 338c-13 36 7 74 41 83c44 11 76 -9 87 -40l88 -228l90 228c11 31 43 51 87 40c34 -9 54 -47 41 -83z" />
    <glyph glyph-name="w" unicode="w" horiz-adv-x="737" 
d="M442 416l67 -227l73 240c8 31 44 52 88 40c34 -9 53 -51 41 -83l-118 -337c-12 -34 -39 -54 -73 -54h-6c-34 0 -60 20 -70 54l-76 248l-73 -248c-11 -34 -36 -54 -70 -54h-6c-34 0 -60 20 -73 54l-122 337c-12 32 7 74 41 83c44 12 80 -9 88 -40l73 -240l67 227
c11 38 36 56 71 56h8c35 0 59 -18 70 -56z" />
    <glyph glyph-name="x" unicode="x" horiz-adv-x="494" 
d="M331 29l-84 114l-84 -114c-21 -28 -55 -45 -99 -26c-34 15 -55 55 -29 86l129 164l-99 125c-25 33 -4 71 29 86c44 19 82 2 99 -26l54 -78l54 78c17 28 55 45 99 26c33 -15 54 -53 29 -86l-99 -125l129 -164c26 -31 5 -71 -29 -86c-44 -19 -78 -2 -99 26z" />
    <glyph glyph-name="A" unicode="A" horiz-adv-x="640" 
d="M438 163h-236l-47 -126c-13 -34 -55 -50 -92 -38c-36 12 -56 57 -44 91l199 536c16 42 48 68 99 68h6c51 0 83 -26 99 -68l199 -536c12 -34 -8 -79 -44 -91c-37 -12 -79 4 -92 38zM250 290h140l-70 240z" />
    <glyph glyph-name="O" unicode="O" horiz-adv-x="781" 
d="M187 343c0 -115 86 -210 203 -210s204 95 204 210s-87 212 -204 212s-203 -97 -203 -212zM41 343c0 196 154 354 349 354c196 0 350 -158 350 -354c0 -194 -154 -352 -350 -352c-195 0 -349 158 -349 352z" />
    <glyph glyph-name="E" unicode="E" horiz-adv-x="564" 
d="M136 689h318c33 0 60 -29 60 -65c0 -33 -28 -64 -60 -64h-230v-158h199c33 0 60 -28 60 -63c0 -33 -28 -63 -60 -63h-199v-148h239c33 0 60 -29 60 -64c0 -33 -28 -64 -60 -64h-327c-37 0 -57 28 -58 62v565c1 34 21 62 58 62z" />
    <glyph glyph-name="I" unicode="I" horiz-adv-x="300" 
d="M223 626v-563c0 -37 -33 -68 -73 -68c-38 0 -73 32 -73 68v563c1 36 35 68 73 68c40 0 73 -31 73 -68z" />
    <glyph glyph-name="L" unicode="L" horiz-adv-x="496" 
d="M224 626v-498h199c33 0 60 -29 60 -64c0 -33 -28 -63 -60 -64h-287c-37 0 -58 28 -58 62v564c1 36 35 68 73 68c40 0 73 -31 73 -68z" />
    <glyph glyph-name="H" unicode="H" horiz-adv-x="691" 
d="M614 626v-563c0 -37 -33 -68 -73 -68c-38 0 -73 32 -73 68v214h-245v-214c0 -37 -33 -68 -73 -68c-38 0 -73 32 -73 68v563c1 36 35 68 73 68c40 0 73 -31 73 -68v-218h245v218c1 36 35 68 73 68c40 0 73 -31 73 -68z" />
    <glyph glyph-name="C" unicode="C" horiz-adv-x="672" 
d="M42 344c0 196 149 353 346 353c98 0 183 -36 244 -95c26 -24 19 -75 -9 -100c-28 -24 -69 -23 -94 -1c-36 34 -85 54 -141 54c-114 0 -200 -94 -200 -211s86 -211 200 -211c56 0 105 20 141 54c25 22 66 23 94 -1c28 -25 35 -76 9 -100c-61 -59 -146 -95 -244 -95
c-197 0 -346 157 -346 353z" />
    <glyph glyph-name="F" unicode="F" horiz-adv-x="537" 
d="M136 689h317c33 0 60 -29 60 -65c0 -33 -28 -63 -60 -64h-229v-158h170c33 0 60 -28 60 -63c0 -33 -28 -63 -60 -63h-170v-213c0 -37 -33 -68 -73 -68c-38 0 -73 32 -73 68v564c1 34 21 62 58 62z" />
    <glyph glyph-name="D" unicode="D" horiz-adv-x="705" 
d="M225 560v-432h124c110 0 165 102 165 215c0 114 -55 217 -165 217h-124zM349 0h-212c-37 0 -58 29 -58 62v565c1 34 21 62 58 62h212c198 0 311 -150 311 -346c0 -195 -113 -343 -311 -343z" />
    <glyph glyph-name="B" unicode="B" horiz-adv-x="636" 
d="M375 0h-238c-37 0 -58 29 -58 62v565c1 34 21 62 58 62h218c124 0 204 -74 204 -192c0 -45 -23 -102 -94 -129c91 -23 130 -101 130 -157c0 -114 -83 -211 -220 -211zM226 414h115c38 0 64 32 64 73c0 43 -22 73 -65 73h-114v-146zM364 298h-138v-169h141
c49 0 74 45 74 86c0 39 -25 83 -77 83z" />
    <glyph glyph-name="a" unicode="a" horiz-adv-x="603" 
d="M404 401v9c1 34 33 62 70 62c38 0 70 -27 70 -62v-353c0 -35 -32 -62 -70 -62c-37 0 -69 28 -70 62v9c-30 -49 -87 -75 -140 -75c-119 0 -227 88 -227 243s108 242 227 242c30 0 100 -13 140 -75zM181 233c0 -62 40 -118 110 -118c63 0 114 56 114 118s-51 118 -114 118
c-70 0 -110 -56 -110 -118z" />
    <glyph glyph-name="P" unicode="P" horiz-adv-x="614" 
d="M356 560h-133v-194h129c57 0 87 52 87 97c0 43 -28 97 -83 97zM77 63v551c1 41 26 75 70 75h212c157 0 227 -113 227 -226c0 -114 -70 -225 -227 -225h-136v-175c0 -37 -33 -68 -73 -68c-38 0 -73 32 -73 68z" />
    <glyph glyph-name="R" unicode="R" horiz-adv-x="629" 
d="M358 560h-135v-194h131c57 0 87 52 87 97c0 43 -28 97 -83 97zM587 467c-3 -90 -53 -176 -155 -206l112 -161c20 -30 7 -75 -27 -95c-32 -19 -76 -10 -95 20l-132 218h-67v-180c0 -37 -33 -68 -73 -68c-38 0 -73 32 -73 68v551c1 41 26 75 70 75h211
c154 0 227 -110 229 -222z" />
    <glyph glyph-name="T" unicode="T" horiz-adv-x="558" 
d="M484 560h-132v-497c0 -37 -33 -68 -73 -68c-38 0 -73 32 -73 68v497h-132c-31 0 -60 31 -60 64c0 36 27 65 60 65h410c33 0 60 -29 60 -65c0 -33 -29 -64 -60 -64z" />
    <glyph glyph-name="Z" unicode="Z" horiz-adv-x="586" 
d="M54 145l293 415h-230c-32 0 -60 31 -60 64c0 36 27 65 60 65h360c34 0 65 -27 65 -60v-7c0 -29 -14 -56 -29 -78l-297 -416h276c33 0 60 -28 60 -64c0 -33 -28 -64 -60 -64h-402c-34 0 -64 27 -64 60v7c0 29 13 56 28 78z" />
    <glyph glyph-name="N" unicode="N" horiz-adv-x="670" 
d="M593 626v-558c0 -41 -30 -73 -65 -73h-13c-30 0 -55 10 -78 50l-214 372v-354c0 -37 -33 -68 -73 -68c-38 0 -73 32 -73 68v556c0 42 31 75 67 75h13c31 0 58 -10 81 -51l209 -366v349c0 36 35 68 73 68c40 0 73 -31 73 -68z" />
    <glyph glyph-name="Q" unicode="Q" horiz-adv-x="781" 
d="M532 -76l-49 79c-29 -7 -61 -12 -93 -12c-195 0 -349 158 -349 352c0 196 154 354 349 354c196 0 350 -158 350 -354c0 -119 -58 -225 -148 -289l47 -76c16 -26 0 -61 -30 -75c-28 -15 -58 -6 -77 21zM476 245l41 -68c47 39 77 99 77 166c0 115 -87 212 -204 212
s-203 -97 -203 -212s86 -210 203 -210h14l-35 58c-15 28 0 61 30 75c28 15 61 6 77 -21z" />
    <glyph glyph-name="G" unicode="G" horiz-adv-x="749" 
d="M728 307c-24 -219 -151 -316 -334 -316c-198 0 -353 158 -353 352c0 196 155 354 353 354c85 0 157 -26 215 -72c26 -20 22 -77 -6 -102c-26 -22 -63 -23 -88 -5c-32 24 -75 37 -121 37c-116 0 -207 -95 -207 -212c0 -116 91 -210 207 -210c79 0 140 35 170 110h-136
c-31 0 -59 28 -59 59c0 34 27 60 59 60h257c34 0 47 -18 43 -55z" />
    <glyph glyph-name="J" unicode="J" horiz-adv-x="304" 
d="M-39 -93c19 -2 36 -2 39 -2c57 0 79 43 79 95v626c1 36 35 68 73 68c40 0 73 -31 73 -68v-626c0 -126 -61 -233 -226 -233c-11 0 -30 2 -52 7c-34 8 -59 36 -55 72c3 36 34 64 69 61z" />
    <glyph glyph-name="U" unicode="U" horiz-adv-x="680" 
d="M339 -9h2c-142 0 -268 100 -268 256v379c1 36 35 68 73 68c40 0 73 -31 73 -68v-379c0 -71 60 -118 122 -118c60 0 120 47 120 118v379c0 37 33 68 73 68c38 0 72 -32 73 -68v-379c0 -156 -126 -256 -268 -256z" />
    <glyph glyph-name="K" unicode="K" horiz-adv-x="555" 
d="M297 348l222 -239c25 -24 21 -70 -7 -95c-26 -25 -73 -25 -95 0l-194 219v-170c0 -37 -33 -68 -73 -68c-38 0 -73 32 -73 68v563c1 36 35 68 73 68c40 0 73 -31 73 -68v-163l147 204c19 28 62 35 91 17c32 -20 47 -61 24 -90z" />
    <glyph glyph-name="M" unicode="M" horiz-adv-x="920" 
d="M460 245l190 405c18 38 38 44 66 44h15c34 0 61 -31 65 -65l69 -561c4 -35 -29 -70 -67 -73c-39 -3 -74 25 -78 62l-42 356l-137 -283c-13 -28 -38 -61 -81 -61s-67 33 -80 61l-138 283l-42 -356c-4 -37 -39 -65 -78 -62c-38 3 -72 38 -67 73l69 561c4 34 31 65 65 65h15
c28 0 49 -6 66 -44z" />
    <glyph glyph-name="V" unicode="V" horiz-adv-x="560" 
d="M530 606l-170 -558c-10 -32 -36 -53 -73 -53h-14c-38 0 -63 21 -72 53l-171 558c-10 35 15 77 51 86c38 9 79 -11 88 -46l111 -425l111 425c9 35 50 55 88 46c36 -9 61 -51 51 -86z" />
    <glyph glyph-name="X" unicode="X" horiz-adv-x="596" 
d="M298 250l-138 -226c-17 -29 -65 -38 -97 -19c-33 22 -44 65 -24 96l172 266l-147 219c-18 30 -8 78 24 97c33 20 79 12 98 -19l112 -184l112 184c19 31 65 39 98 19c32 -19 42 -67 24 -97l-147 -219l172 -266c20 -31 9 -74 -24 -96c-32 -19 -80 -10 -97 19z" />
    <glyph glyph-name="Y" unicode="Y" horiz-adv-x="599" 
d="M568 586l-196 -276v-247c0 -37 -33 -68 -73 -68c-38 0 -73 32 -73 68v249l-194 274c-19 29 -10 74 20 95c31 21 75 16 95 -13l152 -237l154 237c19 29 64 34 95 13c30 -21 39 -66 20 -95z" />
    <glyph glyph-name="W" unicode="W" horiz-adv-x="882" 
d="M444 602c35 0 58 -18 66 -48l82 -299l125 394c11 34 55 52 91 42c38 -11 59 -54 47 -89l-186 -551c-11 -34 -36 -56 -68 -56h-10c-33 0 -60 23 -69 56l-81 311l-81 -311c-9 -33 -36 -56 -69 -56h-10c-32 0 -57 22 -68 56l-186 551c-12 35 9 78 47 89c36 10 80 -8 91 -42
l125 -394l82 299c8 30 31 48 66 48h6z" />
    <glyph glyph-name="period" unicode="." horiz-adv-x="273" 
d="M50 75c0 48 39 83 86 83s87 -35 87 -83c0 -49 -40 -84 -87 -84s-86 35 -86 84z" />
    <glyph glyph-name="colon" unicode=":" horiz-adv-x="292" 
d="M60 75c0 48 39 83 86 83s86 -35 86 -83c0 -49 -39 -84 -86 -84s-86 35 -86 84zM60 392c0 49 39 84 86 84s86 -35 86 -84c0 -48 -39 -83 -86 -83s-86 35 -86 83z" />
    <glyph glyph-name="ellipsis" unicode="&#x2026;" horiz-adv-x="859" 
d="M50 75c0 48 39 83 86 83s87 -35 87 -83c0 -49 -40 -84 -87 -84s-86 35 -86 84zM343 75c0 48 39 83 86 83s87 -35 87 -83c0 -49 -40 -84 -87 -84s-86 35 -86 84zM636 75c0 48 39 83 86 83s87 -35 87 -83c0 -49 -40 -84 -87 -84s-86 35 -86 84z" />
    <glyph glyph-name="dieresis" unicode="&#xa8;" horiz-adv-x="561" 
d="M120 613c0 38 33 68 73 68c39 0 71 -30 71 -68c0 -39 -32 -69 -71 -69c-40 0 -73 30 -73 69zM315 613c0 38 33 68 73 68c39 0 71 -30 71 -68c0 -39 -32 -69 -71 -69c-40 0 -73 30 -73 69z" />
    <glyph glyph-name="grave" unicode="`" horiz-adv-x="499" 
d="M294 533c-24 0 -44 6 -75 37l-72 74c-37 45 -15 74 26 84c59 15 78 -21 93 -48l45 -84c17 -32 12 -63 -17 -63z" />
    <glyph glyph-name="acute" unicode="&#xb4;" horiz-adv-x="499" 
d="M156 533c-29 0 -34 31 -17 63l45 84c15 27 34 63 93 48c41 -10 63 -39 26 -84l-72 -74c-31 -31 -51 -37 -75 -37z" />
    <glyph glyph-name="circumflex" unicode="&#x2c6;" horiz-adv-x="538" 
d="M247 710h44c41 0 61 -34 73 -54l49 -87c12 -19 0 -48 -27 -48c-15 0 -32 4 -59 32l-58 61l-58 -61c-27 -28 -44 -32 -59 -32c-27 0 -39 29 -27 48l49 87c12 20 32 54 73 54z" />
    <glyph glyph-name="caron" unicode="&#x2c7;" horiz-adv-x="538" 
d="M291 521h-44c-41 0 -61 34 -73 54l-49 87c-12 19 0 48 27 48c15 0 32 -4 59 -32l58 -61l58 61c27 28 44 32 59 32c27 0 39 -29 27 -48l-49 -87c-12 -20 -32 -54 -73 -54z" />
    <glyph glyph-name="exclam" unicode="!" horiz-adv-x="277" 
d="M52 75c0 48 39 83 86 83s87 -35 87 -83c0 -49 -40 -84 -87 -84s-86 35 -86 84zM214 627l-16 -372c-1 -29 -27 -52 -59 -52c-31 0 -58 23 -59 52l-16 372c-2 37 36 67 75 67c41 0 78 -29 75 -67z" />
    <glyph glyph-name="hungarumlaut" unicode="&#x2dd;" horiz-adv-x="480" 
d="M230 661l-74 -95c-15 -19 -26 -24 -49 -24c-16 0 -27 9 -27 23c0 6 3 16 6 21l50 95c9 17 18 30 37 36c21 8 57 -5 65 -25c2 -6 2 -17 -8 -31zM390 661l-73 -95c-15 -19 -27 -24 -49 -24c-17 0 -28 9 -28 23c0 6 3 16 6 21l50 95c9 17 18 29 37 36c22 8 57 -5 66 -25
c2 -6 1 -17 -9 -31z" />
    <glyph glyph-name="ring" unicode="&#x2da;" horiz-adv-x="562" 
d="M160 644c0 69 53 123 120 123c68 0 122 -54 122 -123c0 -67 -54 -120 -122 -120c-67 0 -120 53 -120 120zM225 644c0 -31 24 -55 55 -55c32 0 57 24 57 55c0 33 -25 58 -57 58c-31 0 -55 -25 -55 -58z" />
    <glyph glyph-name="dotlessi" unicode="&#x131;" horiz-adv-x="258" 
d="M199 410v-353c0 -35 -32 -62 -70 -62c-37 0 -69 28 -70 62v353c1 34 33 62 70 62c38 0 70 -27 70 -62z" />
    <glyph glyph-name="cedilla" unicode="&#xb8;" horiz-adv-x="543" 
d="M292 -90l-40 134h64l49 -87c14 -26 18 -46 18 -60c0 -55 -36 -106 -115 -106c-46 0 -94 33 -107 85c-5 27 10 49 37 53c28 3 43 -15 47 -32c2 -10 14 -19 23 -19c19 0 29 15 24 32z" />
    <glyph glyph-name="ogonek" unicode="&#x2db;" horiz-adv-x="543" 
d="M291 44l-40 -134c-5 -17 5 -32 24 -32c9 0 21 9 23 19c4 17 19 35 47 32c27 -4 42 -26 37 -53c-13 -52 -61 -85 -107 -85c-79 0 -115 51 -115 106c0 14 4 34 18 60l49 87h64z" />
    <glyph glyph-name="quotedbl" unicode="&#x22;" horiz-adv-x="393" 
d="M113 387c-24 0 -45 18 -46 40l-11 213c-2 27 27 54 57 54s59 -27 57 -54l-11 -213c-1 -22 -22 -40 -46 -40zM279 387c-24 0 -45 18 -46 40l-11 213c-2 27 27 54 57 54s59 -27 57 -54l-11 -213c-1 -22 -22 -40 -46 -40z" />
    <glyph glyph-name="quotesingle" unicode="'" horiz-adv-x="226" 
d="M113 387c-24 0 -45 18 -46 40l-11 213c-2 27 27 54 57 54s59 -27 57 -54l-11 -213c-1 -22 -22 -40 -46 -40z" />
    <glyph glyph-name="exclamdown" unicode="&#xa1;" horiz-adv-x="264" 
d="M45 392c0 49 39 84 86 84s87 -35 87 -84c0 -48 -40 -83 -87 -83s-86 35 -86 83zM191 212l16 -373c3 -38 -34 -67 -75 -67c-39 0 -77 30 -75 67l16 373c1 29 28 52 59 52c32 0 58 -23 59 -52z" />
    <glyph glyph-name="breve" unicode="&#x2d8;" horiz-adv-x="509" 
d="M238 544c-79 0 -147 57 -147 127c0 26 16 44 41 44c20 0 31 -11 38 -28c10 -25 27 -48 68 -48s58 23 68 48c7 17 18 28 38 28c25 0 41 -18 41 -44c0 -70 -68 -127 -147 -127z" />
    <glyph glyph-name="dotaccent" unicode="&#x2d9;" horiz-adv-x="386" 
d="M116 626c0 42 34 74 77 74s77 -32 77 -74c0 -44 -34 -75 -77 -75s-77 31 -77 75z" />
    <glyph glyph-name="comma" unicode="," horiz-adv-x="259" 
d="M205 96c-5 -73 -76 -227 -168 -227c-20 0 -42 8 -42 28c0 9 3 20 9 29c42 63 59 100 59 176c0 37 34 65 69 65c42 0 76 -31 73 -71z" />
    <glyph glyph-name="semicolon" unicode=";" horiz-adv-x="284" 
d="M219 96c-5 -73 -76 -227 -168 -227c-20 0 -42 8 -42 28c0 9 3 20 9 29c42 63 59 100 59 176c0 37 34 65 69 65c42 0 76 -31 73 -71zM57 392c0 49 39 84 86 84s86 -35 86 -84c0 -48 -39 -83 -86 -83s-86 35 -86 83z" />
    <glyph glyph-name="tilde" unicode="&#x2dc;" horiz-adv-x="432" 
d="M198 584c-9 8 -18 15 -25 15c-8 0 -17 -7 -19 -21c-2 -11 -6 -24 -25 -30c-17 -5 -38 6 -46 22c-3 7 -3 17 -2 24c12 70 55 92 92 92c28 0 46 -15 60 -27c9 -8 18 -15 26 -15s16 7 18 21c2 11 5 25 26 30c16 4 39 -6 46 -22c3 -7 3 -18 2 -24c-12 -70 -56 -92 -92 -92
c-29 0 -46 15 -61 27z" />
    <glyph glyph-name="Agrave" unicode="&#xc0;" horiz-adv-x="640" 
d="M202 163h236l47 -126c13 -34 55 -50 92 -38c36 12 56 57 44 91l-199 536c-16 42 -48 68 -99 68h-6c-51 0 -83 -26 -99 -68l-199 -536c-12 -34 8 -79 44 -91c37 -12 79 4 92 38zM390 290h-140l70 240zM338 732c-19 0 -37 6 -66 34l-65 59c-44 43 -21 73 20 83
c59 15 81 -15 99 -49l34 -64c21 -40 7 -63 -22 -63z" />
    <glyph glyph-name="Aacute" unicode="&#xc1;" horiz-adv-x="640" 
d="M438 163h-236l-47 -126c-13 -34 -55 -50 -92 -38c-36 12 -56 57 -44 91l199 536c16 42 48 68 99 68h6c51 0 83 -26 99 -68l199 -536c12 -34 -8 -79 -44 -91c-37 -12 -79 4 -92 38zM250 290h140l-70 240zM309 732c-29 0 -43 23 -22 63l34 64c18 34 40 64 99 49
c41 -10 64 -40 20 -83l-65 -59c-29 -28 -47 -34 -66 -34z" />
    <glyph glyph-name="Acircumflex" unicode="&#xc2;" horiz-adv-x="640" 
d="M202 163h236l47 -126c13 -34 55 -50 92 -38c36 12 56 57 44 91l-199 536c-16 42 -48 68 -99 68h-6c-51 0 -83 -26 -99 -68l-199 -536c-12 -34 8 -79 44 -91c37 -12 79 4 92 38zM390 290h-140l70 240zM301 888h38c41 0 63 -30 74 -47l52 -68c12 -17 0 -42 -27 -42
c-15 0 -30 7 -60 28l-58 46l-58 -46c-30 -21 -45 -28 -60 -28c-27 0 -39 25 -27 42l52 68c11 17 33 47 74 47z" />
    <glyph glyph-name="Atilde" unicode="&#xc3;" horiz-adv-x="640" 
d="M438 163h-236l-47 -126c-13 -34 -55 -50 -92 -38c-36 12 -56 57 -44 91l199 536c16 42 48 68 99 68h6c51 0 83 -26 99 -68l199 -536c12 -34 -8 -79 -44 -91c-37 -12 -79 4 -92 38zM250 290h140l-70 240zM302 759c-9 7 -18 13 -25 13c-8 0 -17 -6 -19 -19
c-2 -10 -6 -22 -25 -27c-17 -5 -38 5 -46 20c-3 6 -3 15 -2 22c12 64 55 84 92 84c28 0 47 -14 61 -25c9 -7 18 -13 26 -13s16 6 18 19c2 10 5 23 26 27c16 4 39 -5 46 -20c3 -6 3 -16 2 -22c-12 -64 -56 -84 -92 -84c-29 0 -47 14 -62 25z" />
    <glyph glyph-name="Adieresis" unicode="&#xc4;" horiz-adv-x="640" 
d="M202 163h236l47 -126c13 -34 55 -50 92 -38c36 12 56 57 44 91l-199 536c-16 42 -48 68 -99 68h-6c-51 0 -83 -26 -99 -68l-199 -536c-12 -34 8 -79 44 -91c37 -12 79 4 92 38zM390 290h-140l70 240zM151 801c0 38 33 68 73 68c39 0 71 -30 71 -68c0 -39 -32 -69 -71 -69
c-40 0 -73 30 -73 69zM346 801c0 38 33 68 73 68c39 0 71 -30 71 -68c0 -39 -32 -69 -71 -69c-40 0 -73 30 -73 69z" />
    <glyph glyph-name="Aring" unicode="&#xc5;" horiz-adv-x="640" 
d="M202 163h236l47 -126c13 -34 55 -50 92 -38c36 12 56 57 44 91l-199 536c-16 42 -48 68 -99 68h-6c-51 0 -83 -26 -99 -68l-199 -536c-12 -34 8 -79 44 -91c37 -12 79 4 92 38zM390 290h-140l70 240zM199 852c0 69 53 123 120 123c68 0 122 -54 122 -123
c0 -67 -54 -120 -122 -120c-67 0 -120 53 -120 120zM264 852c0 -31 24 -55 55 -55c32 0 57 24 57 55c0 33 -25 58 -57 58c-31 0 -55 -25 -55 -58z" />
    <glyph glyph-name="Ccedilla" unicode="&#xc7;" horiz-adv-x="672" 
d="M42 344c0 196 149 353 346 353c98 0 183 -36 244 -95c26 -24 19 -75 -9 -100c-28 -24 -69 -23 -94 -1c-36 34 -85 54 -141 54c-114 0 -200 -94 -200 -211s86 -211 200 -211c56 0 105 20 141 54c25 22 66 23 94 -1c28 -25 35 -76 9 -100c-52 -51 -122 -85 -203 -93l21 -36
c14 -26 18 -46 18 -60c0 -55 -36 -106 -115 -106c-46 0 -94 33 -107 85c-5 27 10 49 37 53c28 3 43 -15 47 -32c2 -10 14 -19 23 -19c19 0 29 15 24 32l-25 83c-179 17 -310 167 -310 351z" />
    <glyph glyph-name="Egrave" unicode="&#xc8;" horiz-adv-x="564" 
d="M454 689h-318c-37 0 -57 -28 -58 -62v-565c1 -34 21 -62 58 -62h327c32 0 60 31 60 64c0 35 -27 64 -60 64h-239v148h199c32 0 60 30 60 63c0 35 -27 63 -60 63h-199v158h230c32 0 60 31 60 64c0 36 -27 65 -60 65zM313 732c-19 0 -37 6 -66 34l-65 59
c-44 43 -21 73 20 83c59 15 81 -15 99 -49l34 -64c21 -40 7 -63 -22 -63z" />
    <glyph glyph-name="Eacute" unicode="&#xc9;" horiz-adv-x="564" 
d="M136 689h318c33 0 60 -29 60 -65c0 -33 -28 -64 -60 -64h-230v-158h199c33 0 60 -28 60 -63c0 -33 -28 -63 -60 -63h-199v-148h239c33 0 60 -29 60 -64c0 -33 -28 -64 -60 -64h-327c-37 0 -57 28 -58 62v565c1 34 21 62 58 62zM261 732c-29 0 -43 23 -22 63l34 64
c18 34 40 64 99 49c41 -10 64 -40 20 -83l-65 -59c-29 -28 -47 -34 -66 -34z" />
    <glyph glyph-name="Ecircumflex" unicode="&#xca;" horiz-adv-x="564" 
d="M454 689h-318c-37 0 -57 -28 -58 -62v-565c1 -34 21 -62 58 -62h327c32 0 60 31 60 64c0 35 -27 64 -60 64h-239v148h199c32 0 60 30 60 63c0 35 -27 63 -60 63h-199v158h230c32 0 60 31 60 64c0 36 -27 65 -60 65zM271 888h38c41 0 63 -30 74 -47l52 -68
c12 -17 0 -42 -27 -42c-15 0 -30 7 -60 28l-58 46l-58 -46c-30 -21 -45 -28 -60 -28c-27 0 -39 25 -27 42l52 68c11 17 33 47 74 47z" />
    <glyph glyph-name="Igrave" unicode="&#xcc;" horiz-adv-x="300" 
d="M223 626v-563c0 -37 -33 -68 -73 -68c-38 0 -73 32 -73 68v563c1 36 35 68 73 68c40 0 73 -31 73 -68zM174 732c-19 0 -37 6 -66 34l-65 59c-44 43 -21 73 20 83c59 15 81 -15 99 -49l34 -64c21 -40 7 -63 -22 -63z" />
    <glyph glyph-name="Iacute" unicode="&#xcd;" horiz-adv-x="300" 
d="M223 626v-563c0 -37 -33 -68 -73 -68c-38 0 -73 32 -73 68v563c1 36 35 68 73 68c40 0 73 -31 73 -68zM125 732c-29 0 -43 23 -22 63l34 64c18 34 40 64 99 49c41 -10 64 -40 20 -83l-65 -59c-29 -28 -47 -34 -66 -34z" />
    <glyph glyph-name="Icircumflex" unicode="&#xce;" horiz-adv-x="300" 
d="M223 626v-563c0 -37 -33 -68 -73 -68c-38 0 -73 32 -73 68v563c1 36 35 68 73 68c40 0 73 -31 73 -68zM130 888h38c41 0 63 -30 74 -47l52 -68c12 -17 0 -42 -27 -42c-15 0 -30 7 -60 28l-58 46l-58 -46c-30 -21 -45 -28 -60 -28c-27 0 -39 25 -27 42l52 68
c11 17 33 47 74 47z" />
    <glyph glyph-name="Idieresis" unicode="&#xcf;" horiz-adv-x="300" 
d="M223 626v-563c0 -37 -33 -68 -73 -68c-38 0 -73 32 -73 68v563c1 36 35 68 73 68c40 0 73 -31 73 -68zM-19 801c0 38 33 68 73 68c39 0 71 -30 71 -68c0 -39 -32 -69 -71 -69c-40 0 -73 30 -73 69zM176 801c0 38 33 68 73 68c39 0 71 -30 71 -68c0 -39 -32 -69 -71 -69
c-40 0 -73 30 -73 69z" />
    <glyph glyph-name="Ntilde" unicode="&#xd1;" horiz-adv-x="670" 
d="M593 626v-558c0 -41 -30 -73 -65 -73h-13c-30 0 -55 10 -78 50l-214 372v-354c0 -37 -33 -68 -73 -68c-38 0 -73 32 -73 68v556c0 42 31 75 67 75h13c31 0 58 -10 81 -51l209 -366v349c0 36 35 68 73 68c40 0 73 -31 73 -68zM319 759c-9 7 -18 13 -25 13
c-8 0 -17 -6 -19 -19c-2 -10 -6 -22 -25 -27c-17 -5 -38 5 -46 20c-3 6 -3 15 -2 22c12 64 55 84 92 84c28 0 47 -14 61 -25c9 -7 18 -13 26 -13s16 6 18 19c2 10 5 23 26 27c16 4 39 -5 46 -20c3 -6 3 -16 2 -22c-12 -64 -56 -84 -92 -84c-29 0 -47 14 -62 25z" />
    <glyph glyph-name="Ograve" unicode="&#xd2;" horiz-adv-x="781" 
d="M187 343c0 115 86 212 203 212s204 -97 204 -212s-87 -210 -204 -210s-203 95 -203 210zM41 343c0 -194 154 -352 349 -352c196 0 350 158 350 352c0 196 -154 354 -350 354c-195 0 -349 -158 -349 -354zM408 732c-19 0 -37 6 -66 34l-65 59c-44 43 -21 73 20 83
c59 15 81 -15 99 -49l34 -64c21 -40 7 -63 -22 -63z" />
    <glyph glyph-name="Oacute" unicode="&#xd3;" horiz-adv-x="781" 
d="M187 343c0 -115 86 -210 203 -210s204 95 204 210s-87 212 -204 212s-203 -97 -203 -212zM41 343c0 196 154 354 349 354c196 0 350 -158 350 -354c0 -194 -154 -352 -350 -352c-195 0 -349 158 -349 352zM370 732c-29 0 -43 23 -22 63l34 64c18 34 40 64 99 49
c41 -10 64 -40 20 -83l-65 -59c-29 -28 -47 -34 -66 -34z" />
    <glyph glyph-name="Ocircumflex" unicode="&#xd4;" horiz-adv-x="781" 
d="M187 343c0 115 86 212 203 212s204 -97 204 -212s-87 -210 -204 -210s-203 95 -203 210zM41 343c0 -194 154 -352 349 -352c196 0 350 158 350 352c0 196 -154 354 -350 354c-195 0 -349 -158 -349 -354zM372 888h38c41 0 63 -30 74 -47l52 -68c12 -17 0 -42 -27 -42
c-15 0 -30 7 -60 28l-58 46l-58 -46c-30 -21 -45 -28 -60 -28c-27 0 -39 25 -27 42l52 68c11 17 33 47 74 47z" />
    <glyph glyph-name="Otilde" unicode="&#xd5;" horiz-adv-x="781" 
d="M187 343c0 -115 86 -210 203 -210s204 95 204 210s-87 212 -204 212s-203 -97 -203 -212zM41 343c0 196 154 354 349 354c196 0 350 -158 350 -354c0 -194 -154 -352 -350 -352c-195 0 -349 158 -349 352zM371 759c-9 7 -18 13 -25 13c-8 0 -17 -6 -19 -19
c-2 -10 -6 -22 -25 -27c-17 -5 -38 5 -46 20c-3 6 -3 15 -2 22c12 64 55 84 92 84c28 0 47 -14 61 -25c9 -7 18 -13 26 -13s16 6 18 19c2 10 5 23 26 27c16 4 39 -5 46 -20c3 -6 3 -16 2 -22c-12 -64 -56 -84 -92 -84c-29 0 -47 14 -62 25z" />
    <glyph glyph-name="Odieresis" unicode="&#xd6;" horiz-adv-x="781" 
d="M187 343c0 115 86 212 203 212s204 -97 204 -212s-87 -210 -204 -210s-203 95 -203 210zM41 343c0 -194 154 -352 349 -352c196 0 350 158 350 352c0 196 -154 354 -350 354c-195 0 -349 -158 -349 -354zM221 801c0 38 33 68 73 68c39 0 71 -30 71 -68
c0 -39 -32 -69 -71 -69c-40 0 -73 30 -73 69zM416 801c0 38 33 68 73 68c39 0 71 -30 71 -68c0 -39 -32 -69 -71 -69c-40 0 -73 30 -73 69z" />
    <glyph glyph-name="Ugrave" unicode="&#xd9;" horiz-adv-x="680" 
d="M341 -9h-2c142 0 268 100 268 256v379c-1 36 -35 68 -73 68c-40 0 -73 -31 -73 -68v-379c0 -71 -60 -118 -120 -118c-62 0 -122 47 -122 118v379c0 37 -33 68 -73 68c-38 0 -72 -32 -73 -68v-379c0 -156 126 -256 268 -256zM363 732c-19 0 -37 6 -66 34l-65 59
c-44 43 -21 73 20 83c59 15 81 -15 99 -49l34 -64c21 -40 7 -63 -22 -63z" />
    <glyph glyph-name="Uacute" unicode="&#xda;" horiz-adv-x="680" 
d="M339 -9h2c-142 0 -268 100 -268 256v379c1 36 35 68 73 68c40 0 73 -31 73 -68v-379c0 -71 60 -118 122 -118c60 0 120 47 120 118v379c0 37 33 68 73 68c38 0 72 -32 73 -68v-379c0 -156 -126 -256 -268 -256zM292 732c-29 0 -43 23 -22 63l34 64c18 34 40 64 99 49
c41 -10 64 -40 20 -83l-65 -59c-29 -28 -47 -34 -66 -34z" />
    <glyph glyph-name="Ucircumflex" unicode="&#xdb;" horiz-adv-x="680" 
d="M341 -9h-2c142 0 268 100 268 256v379c-1 36 -35 68 -73 68c-40 0 -73 -31 -73 -68v-379c0 -71 -60 -118 -120 -118c-62 0 -122 47 -122 118v379c0 37 -33 68 -73 68c-38 0 -72 -32 -73 -68v-379c0 -156 126 -256 268 -256zM322 888h38c41 0 63 -30 74 -47l52 -68
c12 -17 0 -42 -27 -42c-15 0 -30 7 -60 28l-58 46l-58 -46c-30 -21 -45 -28 -60 -28c-27 0 -39 25 -27 42l52 68c11 17 33 47 74 47z" />
    <glyph glyph-name="Udieresis" unicode="&#xdc;" horiz-adv-x="680" 
d="M341 -9h-2c142 0 268 100 268 256v379c-1 36 -35 68 -73 68c-40 0 -73 -31 -73 -68v-379c0 -71 -60 -118 -120 -118c-62 0 -122 47 -122 118v379c0 37 -33 68 -73 68c-38 0 -72 -32 -73 -68v-379c0 -156 126 -256 268 -256zM170 801c0 38 33 68 73 68c39 0 71 -30 71 -68
c0 -39 -32 -69 -71 -69c-40 0 -73 30 -73 69zM365 801c0 38 33 68 73 68c39 0 71 -30 71 -68c0 -39 -32 -69 -71 -69c-40 0 -73 30 -73 69z" />
    <glyph glyph-name="Yacute" unicode="&#xdd;" horiz-adv-x="599" 
d="M568 586l-196 -276v-247c0 -37 -33 -68 -73 -68c-38 0 -73 32 -73 68v249l-194 274c-19 29 -10 74 20 95c31 21 75 16 95 -13l152 -237l154 237c19 29 64 34 95 13c30 -21 39 -66 20 -95zM277 732c-29 0 -43 23 -22 63l34 64c18 34 40 64 99 49c41 -10 64 -40 20 -83
l-65 -59c-29 -28 -47 -34 -66 -34z" />
    <glyph glyph-name="agrave" unicode="&#xe0;" horiz-adv-x="603" 
d="M404 401v9c1 34 33 62 70 62c38 0 70 -27 70 -62v-353c0 -35 -32 -62 -70 -62c-37 0 -69 28 -70 62v9c-30 -49 -87 -75 -140 -75c-119 0 -227 88 -227 243s108 242 227 242c30 0 100 -13 140 -75zM181 233c0 -62 40 -118 110 -118c63 0 114 56 114 118s-51 118 -114 118
c-70 0 -110 -56 -110 -118zM294 533c-24 0 -44 6 -75 37l-72 74c-37 45 -15 74 26 84c59 15 78 -21 93 -48l45 -84c17 -32 12 -63 -17 -63z" />
    <glyph glyph-name="aacute" unicode="&#xe1;" horiz-adv-x="603" 
d="M404 401v9c1 34 33 62 70 62c38 0 70 -27 70 -62v-353c0 -35 -32 -62 -70 -62c-37 0 -69 28 -70 62v9c-30 -49 -87 -75 -140 -75c-119 0 -227 88 -227 243s108 242 227 242c30 0 100 -13 140 -75zM181 233c0 -62 40 -118 110 -118c63 0 114 56 114 118s-51 118 -114 118
c-70 0 -110 -56 -110 -118zM258 533c-29 0 -34 31 -17 63l45 84c15 27 34 63 93 48c41 -10 63 -39 26 -84l-72 -74c-31 -31 -51 -37 -75 -37z" />
    <glyph glyph-name="acircumflex" unicode="&#xe2;" horiz-adv-x="603" 
d="M404 401v9c1 34 33 62 70 62c38 0 70 -27 70 -62v-353c0 -35 -32 -62 -70 -62c-37 0 -69 28 -70 62v9c-30 -49 -87 -75 -140 -75c-119 0 -227 88 -227 243s108 242 227 242c30 0 100 -13 140 -75zM181 233c0 -62 40 -118 110 -118c63 0 114 56 114 118s-51 118 -114 118
c-70 0 -110 -56 -110 -118zM279 710h44c41 0 61 -34 73 -54l49 -87c12 -19 0 -48 -27 -48c-15 0 -32 4 -59 32l-58 61l-58 -61c-27 -28 -44 -32 -59 -32c-27 0 -39 29 -27 48l49 87c12 20 32 54 73 54z" />
    <glyph glyph-name="atilde" unicode="&#xe3;" horiz-adv-x="603" 
d="M404 401v9c1 34 33 62 70 62c38 0 70 -27 70 -62v-353c0 -35 -32 -62 -70 -62c-37 0 -69 28 -70 62v9c-30 -49 -87 -75 -140 -75c-119 0 -227 88 -227 243s108 242 227 242c30 0 100 -13 140 -75zM181 233c0 -62 40 -118 110 -118c63 0 114 56 114 118s-51 118 -114 118
c-70 0 -110 -56 -110 -118zM283 584c-9 8 -18 15 -25 15c-8 0 -17 -7 -19 -21c-2 -11 -6 -24 -25 -30c-17 -5 -38 6 -46 22c-3 7 -3 17 -2 24c12 70 55 92 92 92c28 0 46 -15 60 -27c9 -8 18 -15 26 -15s16 7 18 21c2 11 5 25 26 30c16 4 39 -6 46 -22c3 -7 3 -18 2 -24
c-12 -70 -56 -92 -92 -92c-29 0 -46 15 -61 27z" />
    <glyph glyph-name="adieresis" unicode="&#xe4;" horiz-adv-x="603" 
d="M404 401v9c1 34 33 62 70 62c38 0 70 -27 70 -62v-353c0 -35 -32 -62 -70 -62c-37 0 -69 28 -70 62v9c-30 -49 -87 -75 -140 -75c-119 0 -227 88 -227 243s108 242 227 242c30 0 100 -13 140 -75zM181 233c0 -62 40 -118 110 -118c63 0 114 56 114 118s-51 118 -114 118
c-70 0 -110 -56 -110 -118zM131 613c0 38 33 68 73 68c39 0 71 -30 71 -68c0 -39 -32 -69 -71 -69c-40 0 -73 30 -73 69zM326 613c0 38 33 68 73 68c39 0 71 -30 71 -68c0 -39 -32 -69 -71 -69c-40 0 -73 30 -73 69z" />
    <glyph glyph-name="aring" unicode="&#xe5;" horiz-adv-x="603" 
d="M404 401v9c1 34 33 62 70 62c38 0 70 -27 70 -62v-353c0 -35 -32 -62 -70 -62c-37 0 -69 28 -70 62v9c-30 -49 -87 -75 -140 -75c-119 0 -227 88 -227 243s108 242 227 242c30 0 100 -13 140 -75zM181 233c0 -62 40 -118 110 -118c63 0 114 56 114 118s-51 118 -114 118
c-70 0 -110 -56 -110 -118zM180 644c0 69 53 123 120 123c68 0 122 -54 122 -123c0 -67 -54 -120 -122 -120c-67 0 -120 53 -120 120zM245 644c0 -31 24 -55 55 -55c32 0 57 24 57 55c0 33 -25 58 -57 58c-31 0 -55 -25 -55 -58z" />
    <glyph glyph-name="ccedilla" unicode="&#xe7;" horiz-adv-x="502" 
d="M178 235v-3c0 -65 54 -106 114 -106c25 0 49 7 69 18c25 14 66 20 91 -5c28 -28 24 -79 -9 -102c-33 -24 -72 -38 -114 -43l21 -37c14 -26 18 -46 18 -60c0 -55 -36 -106 -115 -106c-46 0 -94 33 -107 85c-5 27 10 49 37 53c28 3 43 -15 47 -32c2 -10 14 -19 23 -19
c19 0 29 15 24 32l-25 84c-118 16 -216 106 -216 238v3c0 147 122 241 256 241c56 0 109 -16 151 -46c33 -23 37 -74 9 -102c-25 -25 -66 -19 -91 -5c-20 11 -44 18 -69 18c-60 0 -114 -41 -114 -106z" />
    <glyph glyph-name="egrave" unicode="&#xe8;" horiz-adv-x="544" 
d="M177 275h202c-7 57 -46 85 -98 85s-92 -26 -104 -85zM459 126c26 -30 16 -73 -18 -93c-47 -31 -106 -42 -161 -42c-134 0 -244 97 -244 244s110 241 244 241c133 0 239 -98 239 -245c0 -25 -21 -43 -43 -43h-301c7 -54 66 -77 115 -77c28 0 52 2 81 22c32 22 68 16 88 -7
zM303 533c-24 0 -44 6 -75 37l-72 74c-37 45 -15 74 26 84c59 15 78 -21 93 -48l45 -84c17 -32 12 -63 -17 -63z" />
    <glyph glyph-name="eacute" unicode="&#xe9;" horiz-adv-x="544" 
d="M177 275h202c-7 57 -46 85 -98 85s-92 -26 -104 -85zM459 126c26 -30 16 -73 -18 -93c-47 -31 -106 -42 -161 -42c-134 0 -244 97 -244 244s110 241 244 241c133 0 239 -98 239 -245c0 -25 -21 -43 -43 -43h-301c7 -54 66 -77 115 -77c28 0 52 2 81 22c32 22 68 16 88 -7
zM247 533c-29 0 -34 31 -17 63l45 84c15 27 34 63 93 48c41 -10 63 -39 26 -84l-72 -74c-31 -31 -51 -37 -75 -37z" />
    <glyph glyph-name="ecircumflex" unicode="&#xea;" horiz-adv-x="544" 
d="M177 275h202c-7 57 -46 85 -98 85s-92 -26 -104 -85zM459 126c26 -30 16 -73 -18 -93c-47 -31 -106 -42 -161 -42c-134 0 -244 97 -244 244s110 241 244 241c133 0 239 -98 239 -245c0 -25 -21 -43 -43 -43h-301c7 -54 66 -77 115 -77c28 0 52 2 81 22c32 22 68 16 88 -7
zM253 710h44c41 0 61 -34 73 -54l49 -87c12 -19 0 -48 -27 -48c-15 0 -32 4 -59 32l-58 61l-58 -61c-27 -28 -44 -32 -59 -32c-27 0 -39 29 -27 48l49 87c12 20 32 54 73 54z" />
    <glyph glyph-name="edieresis" unicode="&#xeb;" horiz-adv-x="544" 
d="M177 275h202c-7 57 -46 85 -98 85s-92 -26 -104 -85zM459 126c26 -30 16 -73 -18 -93c-47 -31 -106 -42 -161 -42c-134 0 -244 97 -244 244s110 241 244 241c133 0 239 -98 239 -245c0 -25 -21 -43 -43 -43h-301c7 -54 66 -77 115 -77c28 0 52 2 81 22c32 22 68 16 88 -7
zM106 613c0 38 33 68 73 68c39 0 71 -30 71 -68c0 -39 -32 -69 -71 -69c-40 0 -73 30 -73 69zM301 613c0 38 33 68 73 68c39 0 71 -30 71 -68c0 -39 -32 -69 -71 -69c-40 0 -73 30 -73 69z" />
    <glyph glyph-name="igrave" unicode="&#xec;" horiz-adv-x="258" 
d="M198 410v-353c0 -35 -32 -62 -70 -62c-37 0 -69 28 -70 62v353c1 34 33 62 70 62c38 0 70 -27 70 -62zM166 533c-24 0 -44 6 -75 37l-72 74c-37 45 -15 74 26 84c59 15 78 -21 93 -48l45 -84c17 -32 12 -63 -17 -63z" />
    <glyph glyph-name="iacute" unicode="&#xed;" horiz-adv-x="258" 
d="M199 410v-353c0 -35 -32 -62 -70 -62c-37 0 -69 28 -70 62v353c1 34 33 62 70 62c38 0 70 -27 70 -62zM91 533c-29 0 -34 31 -17 63l45 84c15 27 34 63 93 48c41 -10 63 -39 26 -84l-72 -74c-31 -31 -51 -37 -75 -37z" />
    <glyph glyph-name="icircumflex" unicode="&#xee;" horiz-adv-x="258" 
d="M199 410v-353c0 -35 -32 -62 -70 -62c-37 0 -69 28 -70 62v353c1 34 33 62 70 62c38 0 70 -27 70 -62zM107 710h44c41 0 61 -34 73 -54l49 -87c12 -19 0 -48 -27 -48c-15 0 -32 4 -59 32l-58 61l-58 -61c-27 -28 -44 -32 -59 -32c-27 0 -39 29 -27 48l49 87
c12 20 32 54 73 54z" />
    <glyph glyph-name="idieresis" unicode="&#xef;" horiz-adv-x="258" 
d="M199 410v-353c0 -35 -32 -62 -70 -62c-37 0 -69 28 -70 62v353c1 34 33 62 70 62c38 0 70 -27 70 -62zM-40 613c0 38 33 68 73 68c39 0 71 -30 71 -68c0 -39 -32 -69 -71 -69c-40 0 -73 30 -73 69zM155 613c0 38 33 68 73 68c39 0 71 -30 71 -68c0 -39 -32 -69 -71 -69
c-40 0 -73 30 -73 69z" />
    <glyph glyph-name="ntilde" unicode="&#xf1;" horiz-adv-x="562" 
d="M199 410v-11c25 47 80 78 135 78c105 0 172 -65 172 -198v-222c0 -35 -32 -62 -70 -62c-37 0 -69 28 -70 62v192c0 62 -34 93 -81 93c-49 0 -86 -24 -86 -95v-190c0 -35 -32 -62 -70 -62c-37 0 -69 28 -70 62v353c1 34 33 62 70 62c38 0 70 -27 70 -62zM262 584
c-9 8 -18 15 -25 15c-8 0 -17 -7 -19 -21c-2 -11 -6 -24 -25 -30c-17 -5 -38 6 -46 22c-3 7 -3 17 -2 24c12 70 55 92 92 92c28 0 46 -15 60 -27c9 -8 18 -15 26 -15s16 7 18 21c2 11 5 25 26 30c16 4 39 -6 46 -22c3 -7 3 -18 2 -24c-12 -70 -56 -92 -92 -92
c-29 0 -46 15 -61 27z" />
    <glyph glyph-name="ograve" unicode="&#xf2;" horiz-adv-x="563" 
d="M281 -9c136 0 246 97 246 244s-110 241 -246 241s-245 -94 -245 -241s109 -244 245 -244zM281 126c-57 0 -105 45 -105 109c0 63 48 106 105 106c58 0 106 -43 106 -106c0 -64 -48 -109 -106 -109zM289 533c-24 0 -44 6 -75 37l-72 74c-37 45 -15 74 26 84
c59 15 78 -21 93 -48l45 -84c17 -32 12 -63 -17 -63z" />
    <glyph glyph-name="oacute" unicode="&#xf3;" horiz-adv-x="563" 
d="M281 -9c-136 0 -245 97 -245 244s109 241 245 241s246 -94 246 -241s-110 -244 -246 -244zM281 126c58 0 106 45 106 109c0 63 -48 106 -106 106c-57 0 -105 -43 -105 -106c0 -64 48 -109 105 -109zM269 533c-29 0 -34 31 -17 63l45 84c15 27 34 63 93 48
c41 -10 63 -39 26 -84l-72 -74c-31 -31 -51 -37 -75 -37z" />
    <glyph glyph-name="ocircumflex" unicode="&#xf4;" horiz-adv-x="563" 
d="M281 -9c136 0 246 97 246 244s-110 241 -246 241s-245 -94 -245 -241s109 -244 245 -244zM281 126c-57 0 -105 45 -105 109c0 63 48 106 105 106c58 0 106 -43 106 -106c0 -64 -48 -109 -106 -109zM259 710h44c41 0 61 -34 73 -54l49 -87c12 -19 0 -48 -27 -48
c-15 0 -32 4 -59 32l-58 61l-58 -61c-27 -28 -44 -32 -59 -32c-27 0 -39 29 -27 48l49 87c12 20 32 54 73 54z" />
    <glyph glyph-name="otilde" unicode="&#xf5;" horiz-adv-x="563" 
d="M281 -9c-136 0 -245 97 -245 244s109 241 245 241s246 -94 246 -241s-110 -244 -246 -244zM281 126c58 0 106 45 106 109c0 63 -48 106 -106 106c-57 0 -105 -43 -105 -106c0 -64 48 -109 105 -109zM263 584c-9 8 -18 15 -25 15c-8 0 -17 -7 -19 -21
c-2 -11 -6 -24 -25 -30c-17 -5 -38 6 -46 22c-3 7 -3 17 -2 24c12 70 55 92 92 92c28 0 46 -15 60 -27c9 -8 18 -15 26 -15s16 7 18 21c2 11 5 25 26 30c16 4 39 -6 46 -22c3 -7 3 -18 2 -24c-12 -70 -56 -92 -92 -92c-29 0 -46 15 -61 27z" />
    <glyph glyph-name="odieresis" unicode="&#xf6;" horiz-adv-x="563" 
d="M281 -9c136 0 246 97 246 244s-110 241 -246 241s-245 -94 -245 -241s109 -244 245 -244zM281 126c-57 0 -105 45 -105 109c0 63 48 106 105 106c58 0 106 -43 106 -106c0 -64 -48 -109 -106 -109zM112 613c0 38 33 68 73 68c39 0 71 -30 71 -68c0 -39 -32 -69 -71 -69
c-40 0 -73 30 -73 69zM307 613c0 38 33 68 73 68c39 0 71 -30 71 -68c0 -39 -32 -69 -71 -69c-40 0 -73 30 -73 69z" />
    <glyph glyph-name="ugrave" unicode="&#xf9;" horiz-adv-x="562" 
d="M363 57v11c-25 -47 -80 -77 -135 -77c-105 0 -172 52 -172 185v234c0 35 32 62 70 62c37 0 69 -28 70 -62v-192c0 -62 23 -92 81 -92c49 0 86 23 86 94v190c0 35 32 62 70 62c37 0 69 -28 70 -62v-353c-1 -34 -33 -62 -70 -62c-38 0 -70 27 -70 62zM296 533
c-24 0 -44 6 -75 37l-72 74c-37 45 -15 74 26 84c59 15 78 -21 93 -48l45 -84c17 -32 12 -63 -17 -63z" />
    <glyph glyph-name="uacute" unicode="&#xfa;" horiz-adv-x="562" 
d="M363 57v11c-25 -47 -80 -77 -135 -77c-105 0 -172 52 -172 185v234c0 35 32 62 70 62c37 0 69 -28 70 -62v-192c0 -62 23 -92 81 -92c49 0 86 23 86 94v190c0 35 32 62 70 62c37 0 69 -28 70 -62v-353c-1 -34 -33 -62 -70 -62c-38 0 -70 27 -70 62zM257 533
c-29 0 -34 31 -17 63l45 84c15 27 34 63 93 48c41 -10 63 -39 26 -84l-72 -74c-31 -31 -51 -37 -75 -37z" />
    <glyph glyph-name="ucircumflex" unicode="&#xfb;" horiz-adv-x="562" 
d="M363 57v11c-25 -47 -80 -77 -135 -77c-105 0 -172 52 -172 185v234c0 35 32 62 70 62c37 0 69 -28 70 -62v-192c0 -62 23 -92 81 -92c49 0 86 23 86 94v190c0 35 32 62 70 62c37 0 69 -28 70 -62v-353c-1 -34 -33 -62 -70 -62c-38 0 -70 27 -70 62zM258 710h44
c41 0 61 -34 73 -54l49 -87c12 -19 0 -48 -27 -48c-15 0 -32 4 -59 32l-58 61l-58 -61c-27 -28 -44 -32 -59 -32c-27 0 -39 29 -27 48l49 87c12 20 32 54 73 54z" />
    <glyph glyph-name="udieresis" unicode="&#xfc;" horiz-adv-x="562" 
d="M363 57v11c-25 -47 -80 -77 -135 -77c-105 0 -172 52 -172 185v234c0 35 32 62 70 62c37 0 69 -28 70 -62v-192c0 -62 23 -92 81 -92c49 0 86 23 86 94v190c0 35 32 62 70 62c37 0 69 -28 70 -62v-353c-1 -34 -33 -62 -70 -62c-38 0 -70 27 -70 62zM111 613
c0 38 33 68 73 68c39 0 71 -30 71 -68c0 -39 -32 -69 -71 -69c-40 0 -73 30 -73 69zM306 613c0 38 33 68 73 68c39 0 71 -30 71 -68c0 -39 -32 -69 -71 -69c-40 0 -73 30 -73 69z" />
    <glyph glyph-name="yacute" unicode="&#xfd;" horiz-adv-x="482" 
d="M458 386l-239 -577c-13 -31 -45 -49 -88 -39c-34 8 -54 48 -40 84l78 194l-145 338c-13 36 7 74 41 83c44 11 76 -9 87 -40l88 -228l90 228c11 31 43 51 87 40c34 -9 54 -47 41 -83zM209 533c-29 0 -34 31 -17 63l45 84c15 27 34 63 93 48c41 -10 63 -39 26 -84l-72 -74
c-31 -31 -51 -37 -75 -37z" />
    <glyph glyph-name="ydieresis" unicode="&#xff;" horiz-adv-x="482" 
d="M219 -191l239 577c13 36 -7 74 -41 83c-44 11 -76 -9 -87 -40l-90 -228l-88 228c-11 31 -43 51 -87 40c-34 -9 -54 -47 -41 -83l145 -338l-78 -194c-14 -36 6 -76 40 -84c43 -10 75 8 88 39zM72 613c0 38 33 68 73 68c39 0 71 -30 71 -68c0 -39 -32 -69 -71 -69
c-40 0 -73 30 -73 69zM267 613c0 38 33 68 73 68c39 0 71 -30 71 -68c0 -39 -32 -69 -71 -69c-40 0 -73 30 -73 69z" />
    <glyph glyph-name="Zcaron" unicode="&#x17d;" horiz-adv-x="586" 
d="M54 145l293 415h-230c-32 0 -60 31 -60 64c0 36 27 65 60 65h360c34 0 65 -27 65 -60v-7c0 -29 -14 -56 -29 -78l-297 -416h276c33 0 60 -28 60 -64c0 -33 -28 -64 -60 -64h-402c-34 0 -64 27 -64 60v7c0 29 13 56 28 78zM312 735h-38c-41 0 -63 30 -74 47l-52 68
c-12 17 0 42 27 42c15 0 30 -7 60 -28l58 -46l58 46c30 21 45 28 60 28c27 0 39 -25 27 -42l-52 -68c-11 -17 -33 -47 -74 -47z" />
    <glyph glyph-name="zcaron" unicode="&#x17e;" horiz-adv-x="499" 
d="M236 128l192 209c20 21 28 45 28 67v3c0 40 -34 60 -65 60h-289c-32 0 -60 -29 -60 -64c0 -34 29 -64 60 -64h154l-192 -209c-20 -21 -28 -45 -28 -67v-3c0 -40 34 -60 65 -60h304c32 0 60 29 60 64c0 34 -29 64 -60 64h-169zM275 533h-44c-41 0 -61 34 -73 54l-49 87
c-12 19 0 48 27 48c15 0 32 -4 59 -32l58 -61l58 61c27 28 44 32 59 32c27 0 39 -29 27 -48l-49 -87c-12 -20 -32 -54 -73 -54z" />
    <glyph glyph-name="Ydieresis" unicode="&#x178;" horiz-adv-x="599" 
d="M568 586l-196 -276v-247c0 -37 -33 -68 -73 -68c-38 0 -73 32 -73 68v249l-194 274c-19 29 -10 74 20 95c31 21 75 16 95 -13l152 -237l154 237c19 29 64 34 95 13c30 -21 39 -66 20 -95zM134 801c0 38 33 68 73 68c39 0 71 -30 71 -68c0 -39 -32 -69 -71 -69
c-40 0 -73 30 -73 69zM329 801c0 38 33 68 73 68c39 0 71 -30 71 -68c0 -39 -32 -69 -71 -69c-40 0 -73 30 -73 69z" />
    <glyph glyph-name="OE" unicode="&#x152;" horiz-adv-x="1084" 
d="M656 689h318c33 0 60 -29 60 -65c0 -33 -28 -64 -60 -64h-230v-158h199c33 0 60 -28 60 -63c0 -33 -28 -63 -60 -63h-199v-148h239c33 0 60 -29 60 -64c0 -33 -28 -64 -60 -64h-327c-36 0 -56 26 -58 59c-58 -43 -130 -68 -208 -68c-195 0 -349 158 -349 352
c0 196 154 354 349 354c78 0 150 -25 208 -68c1 33 21 60 58 60zM187 343c0 -115 86 -210 203 -210s204 95 204 210s-87 212 -204 212s-203 -97 -203 -212z" />
    <glyph glyph-name="AE" unicode="&#xc6;" horiz-adv-x="888" 
d="M11 104l325 517c34 55 58 68 119 68h323c33 0 60 -29 60 -65c0 -33 -28 -64 -60 -64h-230v-158h199c33 0 60 -28 60 -63c0 -33 -28 -63 -60 -63h-199v-148h239c33 0 60 -29 60 -64c0 -33 -28 -64 -60 -64h-327c-37 0 -57 28 -58 62v96h-183l-84 -132
c-20 -32 -64 -40 -98 -20c-33 19 -45 67 -26 98zM403 493l-101 -194h101v194z" />
    <glyph glyph-name="zero" unicode="0" horiz-adv-x="601" 
d="M56 328c0 189 54 340 245 340s243 -151 243 -340c0 -187 -52 -337 -243 -337s-245 150 -245 337zM196 328c0 -110 25 -201 105 -201c79 0 103 91 103 201c0 111 -24 204 -103 204c-80 0 -105 -93 -105 -204z" />
    <glyph glyph-name="one" unicode="1" horiz-adv-x="370" 
d="M54 580l168 80c13 6 25 8 34 8h2c18 0 31 -15 31 -31v-577c0 -35 -32 -65 -70 -65c-36 0 -70 31 -70 65v437l-45 -19c-25 -11 -59 0 -72 28c-14 28 -4 62 22 74z" />
    <glyph glyph-name="eight" unicode="8" horiz-adv-x="596" 
d="M96 485c0 101 91 183 202 183s203 -82 203 -183c0 -46 -18 -83 -48 -110c57 -33 94 -94 94 -165c0 -125 -112 -219 -249 -219s-249 94 -249 219c0 72 37 132 94 165c-29 28 -47 65 -47 110zM189 217c0 -55 51 -96 109 -96s109 41 109 96c0 50 -37 98 -110 98
c-71 0 -108 -48 -108 -98zM231 481c0 -33 22 -63 67 -63s67 30 67 63c0 32 -24 61 -67 61s-67 -29 -67 -61z" />
    <glyph glyph-name="seven" unicode="7" horiz-adv-x="521" 
d="M483 567l-233 -532c-14 -32 -61 -49 -97 -35c-36 16 -51 58 -36 92l194 447h-221c-32 0 -61 31 -61 64c0 36 28 65 61 65h354c32 0 56 -13 56 -45c0 -16 -10 -41 -17 -56z" />
    <glyph glyph-name="four" unicode="4" horiz-adv-x="577" 
d="M183 273h124v199zM42 250l229 365c21 33 43 53 87 53c52 0 90 -38 90 -86v-309h41c30 0 55 -27 55 -59c0 -30 -26 -59 -55 -59h-41v-95c0 -35 -32 -65 -71 -65c-36 0 -70 31 -70 65v95h-234c-29 0 -50 18 -50 45c0 21 10 35 19 50z" />
    <glyph glyph-name="five" unicode="5" horiz-adv-x="570" 
d="M68 72c-24 25 -25 69 2 96c23 23 67 21 91 0c27 -23 66 -41 96 -41c89 0 130 51 130 104c0 67 -41 104 -109 104c-36 0 -90 -13 -131 -57c-15 -16 -37 -15 -61 -1s-27 36 -23 61l44 282c4 25 25 40 46 40h278c32 0 59 -29 59 -64c0 -33 -28 -64 -59 -64h-207l-20 -122
c26 23 74 35 117 35c106 0 203 -85 203 -214c0 -139 -102 -240 -267 -240c-70 0 -138 32 -189 81z" />
    <glyph glyph-name="three" unicode="3" horiz-adv-x="535" 
d="M176 519c-42 -27 -69 -24 -94 2c-23 25 -19 63 4 85c43 41 106 66 176 62c114 -6 197 -90 194 -184c0 -54 -36 -101 -84 -128c72 -26 118 -108 112 -178c-11 -112 -127 -195 -258 -186c-66 4 -122 31 -165 76c-20 20 -27 61 -2 89c22 25 61 32 95 3c23 -19 56 -32 83 -33
c50 -3 90 36 94 70c1 12 5 87 -83 87h-32c-30 0 -56 27 -56 60c0 31 27 60 56 60h26c69 0 64 68 64 71c0 20 -17 63 -66 63c-26 0 -49 -9 -64 -19z" />
    <glyph glyph-name="two" unicode="2" horiz-adv-x="545" 
d="M179 476c-12 -28 -43 -53 -85 -41c-32 9 -51 44 -39 82c33 94 110 151 216 151c116 0 214 -81 214 -199c0 -63 -31 -120 -69 -166l-148 -171h162c33 0 61 -30 61 -66c0 -34 -28 -66 -61 -66h-334c-27 0 -45 18 -45 47c0 19 9 39 21 53l238 295c18 23 35 49 35 74
c0 35 -30 65 -82 65c-39 0 -69 -22 -84 -58z" />
    <glyph glyph-name="six" unicode="6" horiz-adv-x="579" 
d="M392 515c-19 16 -50 22 -72 22c-89 0 -125 -95 -124 -181v-16c9 29 50 76 142 76c67 0 195 -55 195 -206c0 -126 -95 -219 -238 -219c-124 0 -223 89 -235 228c-16 202 19 457 265 449c57 -2 118 -13 160 -64c23 -28 26 -63 -2 -90c-26 -26 -65 -20 -91 1zM388 210
c0 47 -39 86 -86 86s-86 -39 -86 -86s39 -86 86 -86s86 39 86 86z" />
    <glyph glyph-name="nine" unicode="9" horiz-adv-x="577" 
d="M187 147c19 -16 50 -25 72 -25c98 0 124 107 124 197c-9 -29 -50 -76 -142 -76c-67 0 -195 55 -195 206c0 126 95 219 238 219c123 0 221 -109 235 -248c2 -22 3 -46 3 -70c0 -168 -50 -359 -257 -359c-59 0 -127 10 -171 64c-12 14 -18 31 -18 47c0 31 28 63 62 63
c17 0 35 -7 49 -18zM191 449c0 -47 39 -86 86 -86s86 39 86 86s-39 86 -86 86s-86 -39 -86 -86z" />
    <glyph glyph-name="thorn" unicode="&#xfe;" horiz-adv-x="607" 
d="M203 401c40 62 110 75 140 75c119 0 227 -87 227 -242s-108 -243 -227 -243c-53 0 -110 26 -140 75v-232c-1 -34 -33 -62 -70 -62c-38 0 -70 27 -70 62v830c0 35 32 62 70 62c37 0 69 -28 70 -62v-263zM426 233c0 62 -40 118 -110 118c-63 0 -114 -56 -114 -118
s51 -118 114 -118c70 0 110 56 110 118z" />
    <glyph glyph-name="bracketleft" unicode="[" horiz-adv-x="337" 
d="M189 578v-696h72c27 0 51 -27 51 -56c0 -31 -24 -55 -51 -55h-123c-37 0 -67 30 -67 67v784c0 37 30 67 67 67h123c27 0 51 -24 51 -55c0 -29 -24 -56 -51 -56h-72z" />
    <glyph glyph-name="bracketright" unicode="]" horiz-adv-x="337" 
d="M148 -118v696h-72c-27 0 -51 27 -51 56c0 31 24 55 51 55h123c37 0 67 -30 67 -67v-784c0 -37 -30 -67 -67 -67h-123c-27 0 -51 24 -51 55c0 29 24 56 51 56h72z" />
    <glyph glyph-name="at" unicode="@" horiz-adv-x="981" 
d="M546 120c9 -49 -46 -61 -77 -61c-113 0 -205 90 -205 203c0 115 92 205 205 205c55 0 105 -21 142 -56c39 -35 62 -85 64 -139v-142c0 -47 32 -60 60 -60c87 0 105 129 105 205c0 192 -166 333 -361 333c-193 0 -343 -158 -343 -351s150 -346 343 -346h10
c22 0 42 -21 42 -45c0 -22 -20 -44 -42 -44h-10c-243 0 -432 192 -432 435s189 440 432 440s451 -180 451 -422c0 -119 -50 -293 -195 -293c-76 0 -150 39 -150 154v126c0 66 -52 117 -116 117c-63 0 -116 -51 -116 -117c0 -63 53 -115 116 -115l29 1c20 2 41 -2 48 -28z
" />
    <glyph glyph-name="Euro" unicode="&#x20ac;" horiz-adv-x="806" 
d="M489 559c-84 0 -151 -51 -181 -124h207c15 0 28 -15 28 -32s-13 -31 -28 -32h-447c-15 1 -28 15 -28 32s13 32 28 32h86c38 151 170 262 335 262c98 0 184 -36 245 -95c26 -24 19 -75 -9 -100c-28 -24 -69 -23 -94 -1c-36 34 -86 58 -142 58zM489 129c56 0 106 24 142 58
c25 22 66 23 94 -1c28 -25 35 -76 9 -100c-61 -59 -147 -95 -245 -95c-165 0 -297 111 -335 262h-86c-15 0 -28 15 -28 32s13 31 28 32h447c15 -1 28 -15 28 -32s-13 -32 -28 -32h-207c30 -73 97 -124 181 -124z" />
    <glyph glyph-name="slash" unicode="/" horiz-adv-x="447" 
d="M411 623l-286 -599c-11 -23 -40 -30 -64 -19c-24 12 -35 39 -26 61l288 600c11 21 40 30 63 18c24 -12 36 -38 25 -61z" />
    <glyph glyph-name="backslash" unicode="\" horiz-adv-x="447" 
d="M322 24l-286 599c-11 23 1 49 25 61c23 12 52 3 63 -18l288 -600c9 -22 -2 -49 -26 -61c-24 -11 -53 -4 -64 19z" />
    <glyph glyph-name="Eth" unicode="&#xd0;" horiz-adv-x="723" 
d="M329 284h-86v-156h124c110 0 165 102 165 215c0 114 -55 217 -165 217h-124v-178h86c24 0 43 -23 43 -49s-20 -49 -43 -49zM97 284h-55c-23 0 -43 23 -43 49s19 49 43 49h55v245c1 34 21 62 58 62h212c198 0 311 -150 311 -346c0 -195 -113 -343 -311 -343h-212
c-37 0 -58 29 -58 62v222z" />
    <glyph glyph-name="percent" unicode="%" horiz-adv-x="692" 
d="M36 528c0 74 58 134 133 134c74 0 134 -60 134 -134c0 -75 -60 -133 -134 -133c-75 0 -133 58 -133 133zM117 528c0 -30 22 -52 52 -52c29 0 53 22 53 52c0 29 -24 53 -53 53c-30 0 -52 -24 -52 -53zM390 124c0 74 58 134 133 134c74 0 134 -60 134 -134
c0 -75 -60 -133 -134 -133c-75 0 -133 58 -133 133zM471 124c0 -30 22 -52 52 -52c29 0 53 22 53 52c0 29 -24 53 -53 53c-30 0 -52 -24 -52 -53zM523 606l-289 -590c-8 -16 -29 -21 -46 -12c-18 8 -26 29 -18 45l289 590c8 16 30 21 47 12s25 -29 17 -45z" />
    <glyph glyph-name="perthousand" unicode="&#x2030;" horiz-adv-x="1013" 
d="M712 124c0 74 58 134 133 134c74 0 134 -60 134 -134c0 -75 -60 -133 -134 -133c-75 0 -133 58 -133 133zM793 124c0 -30 22 -52 52 -52c29 0 53 22 53 52c0 29 -24 53 -53 53c-30 0 -52 -24 -52 -53zM36 528c0 74 58 134 133 134c74 0 134 -60 134 -134
c0 -75 -60 -133 -134 -133c-75 0 -133 58 -133 133zM117 528c0 -30 22 -52 52 -52c29 0 53 22 53 52c0 29 -24 53 -53 53c-30 0 -52 -24 -52 -53zM390 124c0 74 58 134 133 134c74 0 134 -60 134 -134c0 -75 -60 -133 -134 -133c-75 0 -133 58 -133 133zM471 124
c0 -30 22 -52 52 -52c29 0 53 22 53 52c0 29 -24 53 -53 53c-30 0 -52 -24 -52 -53zM523 606l-289 -590c-8 -16 -29 -21 -46 -12c-18 8 -26 29 -18 45l289 590c8 16 30 21 47 12s25 -29 17 -45z" />
    <glyph glyph-name="periodcentered" unicode="&#xb7;" horiz-adv-x="279" 
d="M53 347c0 48 39 83 86 83s87 -35 87 -83c0 -49 -40 -84 -87 -84s-86 35 -86 84z" />
    <glyph glyph-name="Thorn" unicode="&#xde;" horiz-adv-x="568" 
d="M398 349c0 65 -42 104 -85 104h-90v-203h90c43 0 85 37 85 99zM223 126v-63c0 -37 -33 -68 -73 -68c-38 0 -73 32 -73 68v563c0 36 35 68 73 68c40 0 73 -31 73 -68v-49h97c124 0 223 -87 223 -224s-99 -227 -223 -227h-97z" />
    <glyph glyph-name="mu" unicode="&#xb5;" horiz-adv-x="585" 
d="M211 410v-192c0 -62 23 -92 81 -92c49 0 86 23 86 94v190c0 35 32 62 70 62c37 0 69 -28 70 -62v-353c-1 -34 -33 -62 -70 -62c-38 0 -70 27 -70 62v11c-22 -42 -64 -77 -119 -77c-11 0 -38 4 -48 9v-129c0 -35 -32 -62 -70 -62c-37 0 -69 28 -70 62v539
c0 35 32 62 70 62c37 0 69 -28 70 -62z" />
    <glyph glyph-name="bullet" unicode="&#x2022;" horiz-adv-x="464" 
d="M72 238c0 89 73 154 160 154s160 -65 160 -154s-73 -154 -160 -154s-160 65 -160 154z" />
    <glyph glyph-name="yen" unicode="&#xa5;" horiz-adv-x="632" 
d="M111 256c-16 0 -30 16 -30 35c0 18 13 33 30 33h122l-185 262c-19 29 -10 74 20 95c31 21 75 16 95 -13l152 -237l154 237c19 29 64 34 95 13c30 -21 39 -66 20 -95l-186 -262h123c17 0 30 -15 30 -33c0 -19 -13 -35 -30 -35h-133v-70h133c17 0 30 -15 30 -33
c0 -19 -13 -35 -30 -35h-133v-55c0 -37 -33 -68 -73 -68c-38 0 -73 32 -73 68v55h-131c-16 0 -30 16 -30 35c0 18 13 33 30 33h131v70h-131z" />
    <glyph glyph-name="emdash" unicode="&#x2014;" horiz-adv-x="862" 
d="M117 173c-30 0 -55 29 -55 63c0 33 23 61 55 61h627c32 0 55 -28 55 -61c0 -34 -24 -63 -55 -63h-627z" />
    <glyph glyph-name="endash" unicode="&#x2013;" horiz-adv-x="648" 
d="M116 173c-30 0 -55 29 -55 63c0 33 23 61 55 61h414c32 0 55 -28 55 -61c0 -34 -24 -63 -55 -63h-414z" />
    <glyph glyph-name="daggerdbl" unicode="&#x2021;" horiz-adv-x="432" 
d="M86 526h67v113c1 30 29 55 62 55s62 -24 62 -55v-113h66c25 0 44 -22 44 -49c0 -26 -20 -48 -44 -49h-66v-223h68c25 0 44 -22 44 -49c0 -26 -20 -48 -44 -49h-68v-150c0 -31 -29 -55 -62 -55s-62 25 -62 55v150h-65c-23 0 -43 23 -43 49c0 27 19 49 43 49h65v223h-67
c-23 0 -43 23 -43 49c0 27 19 49 43 49z" />
    <glyph glyph-name="dagger" unicode="&#x2020;" horiz-adv-x="418" 
d="M80 526h67v113c1 30 29 55 62 55s62 -24 62 -55v-113h66c25 0 44 -22 44 -49c0 -26 -20 -48 -44 -49h-66v-471c0 -31 -29 -55 -62 -55s-62 25 -62 55v471h-67c-23 0 -43 23 -43 49c0 27 19 49 43 49z" />
    <glyph glyph-name="Lslash" unicode="&#x141;" horiz-adv-x="503" 
d="M85 217l-19 -13c-17 -10 -40 -2 -52 15c-11 19 -6 41 10 52l61 40v315c1 36 35 68 73 68c40 0 73 -31 73 -68v-218l52 35c16 11 38 4 50 -16c11 -14 6 -41 -9 -50l-93 -63v-186h199c33 0 60 -29 60 -64c0 -33 -28 -63 -60 -64h-287c-37 0 -58 28 -58 62v155z" />
    <glyph glyph-name="lslash" unicode="&#x142;" horiz-adv-x="324" 
d="M16 303l70 46v315c1 34 33 62 70 62c38 0 70 -27 70 -62v-222l49 33c16 10 38 4 50 -16c11 -14 6 -41 -9 -50l-90 -61v-291c0 -35 -32 -62 -70 -62c-37 0 -69 28 -70 62v198l-28 -19c-17 -8 -40 -2 -52 15c-11 19 -6 44 10 52z" />
    <glyph glyph-name="bar" unicode="|" horiz-adv-x="223" 
d="M149 772v-866c0 -19 -17 -35 -38 -35c-19 0 -37 16 -37 35v866c1 19 18 35 37 35c21 0 38 -16 38 -35z" />
    <glyph glyph-name="Oslash" unicode="&#xd8;" horiz-adv-x="780" 
d="M557 464l-286 -293c32 -24 73 -38 118 -38c117 0 204 95 204 210c0 45 -13 87 -36 121zM224 218l287 295c-33 26 -75 42 -122 42c-117 0 -203 -97 -203 -212c0 -47 14 -90 38 -125zM721 633l-62 -64c50 -62 80 -140 80 -226c0 -194 -154 -352 -350 -352
c-84 0 -159 29 -219 77l-63 -65c-13 -12 -33 -11 -46 1c-12 12 -14 33 -2 45l64 65c-52 62 -83 142 -83 229c0 196 154 354 349 354c85 0 163 -31 223 -81l62 64c12 11 33 10 44 -1c13 -13 14 -33 3 -46z" />
    <glyph glyph-name="oslash" unicode="&#xf8;" horiz-adv-x="563" 
d="M138 33l-39 -40c-13 -12 -33 -11 -46 1c-12 12 -14 33 -2 45l38 39c-33 41 -53 94 -53 157c0 147 109 241 245 241c57 0 109 -17 151 -47l34 35c12 11 33 10 44 -1c13 -13 14 -33 3 -46l-33 -34c29 -39 47 -90 47 -148c0 -147 -110 -244 -246 -244c-54 0 -103 15 -143 42
zM378 279l-140 -144c13 -6 27 -9 43 -9c58 0 106 45 106 109c0 16 -4 31 -9 44zM189 180l144 148c-16 8 -33 13 -52 13c-57 0 -105 -43 -105 -106c0 -21 5 -39 13 -55z" />
    <glyph glyph-name="equal" unicode="=" horiz-adv-x="607" 
d="M494 346h-381c-25 0 -45 24 -45 51c0 28 19 51 45 51h381c26 0 45 -23 45 -51c0 -27 -20 -51 -45 -51zM494 149h-381c-25 0 -45 24 -45 51c0 28 19 51 45 51h381c26 0 45 -23 45 -51c0 -27 -20 -51 -45 -51z" />
    <glyph glyph-name="plus" unicode="+" horiz-adv-x="495" 
d="M298 426v-114h115c26 0 45 -23 45 -51c0 -27 -20 -51 -45 -51h-115v-115c0 -26 -23 -45 -51 -45c-27 0 -51 20 -51 45v115h-114c-25 0 -45 24 -45 51c0 28 19 51 45 51h114v114c0 25 24 45 51 45c28 0 51 -19 51 -45z" />
    <glyph glyph-name="minus" unicode="&#x2212;" horiz-adv-x="523" 
d="M114 312h295c26 0 46 -23 46 -51s-21 -52 -46 -52h-295c-26 0 -46 24 -46 52s19 51 46 51z" />
    <glyph glyph-name="plusminus" unicode="&#xb1;" horiz-adv-x="530" 
d="M318 472v-86h115c26 0 45 -23 45 -51c0 -27 -20 -51 -45 -51h-115v-87c0 -26 -23 -45 -51 -45c-27 0 -51 20 -51 45v87h-114c-25 0 -45 24 -45 51c0 28 19 51 45 51h114v86c0 25 24 45 51 45c28 0 51 -19 51 -45zM97 102h331c26 0 45 -23 45 -51c0 -27 -20 -51 -45 -51
h-331c-25 0 -45 24 -45 51c0 28 19 51 45 51z" />
    <glyph glyph-name="multiply" unicode="&#xd7;" horiz-adv-x="474" 
d="M327 97l-90 91l-90 -91c-18 -18 -49 -15 -68 4c-20 20 -23 50 -4 68l90 91l-88 88c-18 18 -15 49 4 68c20 20 49 23 68 4l88 -88l88 88c19 19 48 16 68 -4c19 -19 22 -50 4 -68l-88 -88l90 -91c19 -18 16 -48 -4 -68c-19 -19 -50 -22 -68 -4z" />
    <glyph glyph-name="divide" unicode="&#xf7;" horiz-adv-x="567" 
d="M206 65c0 44 35 75 78 75s79 -31 79 -75s-36 -76 -79 -76s-78 32 -78 76zM206 424c0 43 35 75 78 75s79 -32 79 -75c0 -45 -36 -76 -79 -76s-78 31 -78 76zM85 295h397c26 0 46 -23 46 -51s-21 -52 -46 -52h-397c-26 0 -46 24 -46 52s19 51 46 51z" />
    <glyph glyph-name="less" unicode="&#x3c;" horiz-adv-x="624" 
d="M37 296v6c0 30 16 57 47 70l401 154c26 8 56 -7 66 -32c9 -27 -3 -57 -28 -68l-332 -127l332 -126c25 -11 37 -41 28 -68c-10 -25 -40 -41 -66 -32l-401 154c-31 13 -47 40 -47 69z" />
    <glyph glyph-name="greater" unicode="&#x3e;" horiz-adv-x="625" 
d="M587 302v-6c0 -29 -16 -56 -47 -69l-401 -154c-26 -9 -56 7 -66 32c-9 27 3 57 28 68l332 126l-332 127c-25 11 -37 41 -28 68c10 25 40 40 66 32c127 -48 275 -106 401 -154c31 -13 47 -40 47 -70z" />
    <glyph glyph-name="hyphen" unicode="-" horiz-adv-x="483" 
d="M109 301h265c28 0 49 -25 49 -55c0 -29 -22 -55 -49 -55h-265c-27 0 -49 26 -49 55c0 30 21 55 49 55z" />
    <glyph glyph-name="underscore" unicode="_" horiz-adv-x="731" 
d="M94 -32h543c26 0 45 -23 45 -50s-20 -51 -45 -51h-543c-25 0 -45 24 -45 51s19 50 45 50z" />
    <glyph glyph-name="logicalnot" unicode="&#xac;" horiz-adv-x="616" 
d="M546 312v-160c0 -30 -27 -53 -61 -53c-32 0 -59 24 -60 53v101h-317c-30 0 -53 27 -53 60c0 32 24 59 53 60h375c35 0 63 -27 63 -61z" />
    <glyph glyph-name="paragraph" unicode="&#xb6;" horiz-adv-x="716" 
d="M475 689h71c78 0 137 -65 137 -137v-49c0 -22 -22 -41 -47 -41s-46 18 -46 41v40c0 27 -21 45 -46 45h-34v-637c0 -69 -65 -137 -137 -137h-93c-22 0 -41 21 -41 46c0 24 18 45 41 45h85c27 0 45 21 45 46v673c0 37 28 65 65 65zM348 624v-621c0 -25 -24 -46 -52 -46
c-27 0 -51 20 -51 46v252c-114 7 -207 101 -207 217c0 120 96 217 217 217h28c37 0 65 -28 65 -65z" />
    <glyph glyph-name="brokenbar" unicode="&#xa6;" horiz-adv-x="218" 
d="M146 772v-317c0 -19 -17 -35 -38 -35c-19 0 -37 16 -37 35v317c1 19 18 35 37 35c21 0 38 -16 38 -35zM146 223v-317c0 -19 -17 -35 -38 -35c-19 0 -37 16 -37 35v317c1 19 18 35 37 35c21 0 38 -16 38 -35z" />
    <glyph glyph-name="florin" unicode="&#x192;" horiz-adv-x="547" 
d="M17 -192h-7c-36 0 -64 29 -64 64c0 34 29 64 64 64h12c48 0 91 34 101 89l63 332h-44c-28 1 -45 26 -40 55c6 30 33 55 61 55h44l6 32c27 143 113 222 247 222h4c36 0 64 -29 64 -64c0 -34 -29 -63 -64 -64h-12c-48 0 -88 -34 -98 -89l-7 -37h48c28 0 45 -25 39 -55
c-5 -29 -32 -54 -60 -55h-48l-62 -327c-27 -143 -113 -222 -247 -222z" />
    <glyph glyph-name="copyright" unicode="&#xa9;" horiz-adv-x="797" 
d="M222 341c0 -98 75 -178 174 -178c49 0 92 18 123 49c15 13 11 42 -5 56c-15 14 -39 13 -53 0c-16 -15 -38 -24 -65 -24c-52 0 -91 43 -91 97s39 97 91 97c26 0 48 -10 65 -25c14 -13 38 -13 53 1c16 13 20 43 5 57c-31 29 -74 48 -123 48c-99 0 -174 -79 -174 -178z
M49 343c0 195 154 351 349 351s350 -156 350 -351s-155 -352 -350 -352s-349 157 -349 352zM122 343c0 -154 122 -278 276 -278s276 124 276 278s-122 277 -276 277s-276 -123 -276 -277z" />
    <glyph glyph-name="registered" unicode="&#xae;" horiz-adv-x="797" 
d="M360 438h60c23 0 35 -24 35 -42c0 -19 -13 -41 -36 -41h-59v83zM538 398c-1 57 -39 114 -118 114h-109c-21 0 -33 -17 -34 -36v-275c0 -21 21 -39 42 -39c23 0 41 18 41 39v82h24l63 -104c10 -15 36 -21 53 -11c20 11 27 38 16 54l-51 72c49 16 72 59 73 104zM49 343
c0 195 154 351 349 351s350 -156 350 -351s-155 -352 -350 -352s-349 157 -349 352zM122 343c0 -154 122 -278 276 -278s276 124 276 278s-122 277 -276 277s-276 -123 -276 -277z" />
    <glyph glyph-name="degree" unicode="&#xb0;" horiz-adv-x="372" 
d="M42 529c0 79 65 144 143 144c80 0 145 -65 145 -144c0 -80 -65 -145 -145 -145c-78 0 -143 65 -143 145zM114 529c0 -41 32 -73 71 -73c41 0 73 32 73 73c0 40 -32 72 -73 72c-39 0 -71 -32 -71 -72z" />
    <glyph glyph-name="cent" unicode="&#xa2;" horiz-adv-x="521" 
d="M312 -8v-80c0 -19 -17 -35 -38 -35c-19 0 -37 16 -37 35v85c-110 22 -199 109 -199 235v3c0 125 89 213 199 235v75c1 19 18 35 37 35c21 0 38 -16 38 -35v-70c49 -3 95 -18 133 -45c33 -23 37 -74 9 -102c-25 -25 -66 -19 -91 -5c-20 11 -44 18 -69 18
c-60 0 -114 -41 -114 -106v-3c0 -65 54 -106 114 -106c25 0 49 7 69 18c25 14 66 20 91 -5c28 -28 24 -79 -9 -102c-38 -27 -84 -42 -133 -45z" />
    <glyph glyph-name="dollar" unicode="$" horiz-adv-x="571" 
d="M322 772v-78c78 -10 137 -51 169 -112c17 -33 3 -65 -22 -81c-36 -23 -68 -13 -92 17c-29 37 -67 48 -98 48c-51 0 -89 -30 -89 -71c0 -18 7 -51 74 -70l82 -24c167 -48 191 -142 189 -208c-2 -124 -104 -189 -213 -200v-87c0 -19 -17 -35 -38 -35c-19 0 -37 16 -37 35
v87c-101 11 -174 67 -200 146c-11 35 5 69 39 82c39 15 76 -6 90 -35c15 -31 49 -65 111 -65c59 0 100 28 101 73c1 31 -13 58 -83 78l-83 23c-152 47 -178 134 -178 196c0 112 87 191 203 204v77c1 19 18 35 37 35c21 0 38 -16 38 -35z" />
    <glyph glyph-name="numbersign" unicode="#" horiz-adv-x="770" 
d="M138 533h108l37 128c8 25 37 38 64 31c28 -7 46 -34 39 -59l-29 -100h148l37 128c8 25 37 38 64 31c28 -7 46 -34 39 -59l-29 -100h73c25 0 45 -21 45 -48c0 -25 -21 -48 -45 -48h-100l-47 -168h90c25 0 45 -21 45 -48c0 -25 -21 -48 -45 -48h-117l-41 -145
c-7 -25 -36 -39 -64 -31c-27 7 -45 34 -39 59l33 117h-148l-41 -145c-7 -25 -36 -39 -64 -31c-27 7 -45 34 -39 59l33 117h-64c-24 1 -45 23 -45 48c0 27 20 48 45 48h91l47 168h-81c-24 1 -45 23 -45 48c0 27 20 48 45 48zM330 437l-47 -168h148l47 168h-148z" />
    <glyph glyph-name="currency" unicode="&#xa4;" horiz-adv-x="593" 
d="M297 250c50 0 91 41 91 91c0 51 -41 92 -91 92s-91 -41 -91 -92c0 -50 41 -91 91 -91zM297 144c-39 0 -72 10 -103 29l-47 -46c-8 -8 -21 -14 -32 -14c-24 0 -47 23 -47 48c0 11 4 23 13 32l47 46c-19 31 -28 63 -28 102c0 38 10 72 29 103l-47 46c-9 8 -14 19 -14 31
c0 25 23 48 48 48c11 0 25 -6 32 -13l47 -46c29 17 65 28 102 28c38 0 72 -9 102 -28l47 46c8 8 19 13 31 13c25 0 48 -23 48 -48c0 -12 -5 -23 -13 -31l-47 -46c19 -31 28 -65 28 -103c0 -39 -8 -71 -27 -102l47 -46c8 -9 13 -21 13 -32c0 -25 -23 -48 -48 -48
c-12 0 -23 5 -32 14l-47 46c-30 -19 -64 -29 -102 -29z" />
    <glyph glyph-name="ampersand" unicode="&#x26;" horiz-adv-x="701" 
d="M426 304h-118c-96 0 -110 -73 -104 -102c10 -49 45 -76 104 -76c38 0 118 26 118 123v55zM426 657c28 -20 30 -56 19 -77c-21 -40 -73 -32 -105 -20c-10 4 -20 8 -34 8c-51 0 -74 -44 -74 -74c0 -3 0 -78 80 -78h114v41c0 33 29 60 65 60c33 0 63 -28 64 -60v-41h33
c29 0 52 -25 52 -56c0 -29 -24 -55 -52 -56h-33v-102c0 -65 11 -93 58 -98c31 -3 56 -23 56 -57c0 -31 -24 -56 -63 -56c-66 0 -124 32 -152 85c-26 -56 -109 -85 -167 -85c-133 0 -235 82 -235 200c0 87 39 149 114 176c-49 16 -87 67 -87 137c0 98 83 187 201 193
c57 3 107 -12 146 -40z" />
    <glyph glyph-name="quotesinglbase" unicode="&#x201a;" horiz-adv-x="246" 
d="M184 145c-21 -155 -92 -268 -160 -268c-16 0 -25 10 -25 25c0 7 1 13 5 20c35 53 60 119 68 196c3 25 3 44 22 57c26 20 74 26 88 8c5 -9 4 -21 2 -38z" />
    <glyph glyph-name="quotedblbase" unicode="&#x201e;" horiz-adv-x="428" 
d="M184 145c-21 -155 -92 -268 -160 -268c-16 0 -25 10 -25 25c0 7 1 13 5 20c35 53 60 119 68 196c3 25 3 44 22 57c26 20 74 26 88 8c5 -9 4 -21 2 -38zM366 145c-21 -155 -92 -268 -160 -268c-16 0 -25 10 -25 25c0 7 1 13 5 20c35 53 60 119 68 196c3 25 3 44 22 57
c26 20 74 26 88 8c5 -9 4 -21 2 -38z" />
    <glyph glyph-name="quoteright" unicode="&#x2019;" horiz-adv-x="262" 
d="M225 648c-21 -155 -92 -268 -160 -268c-16 0 -25 10 -25 25c0 7 1 13 5 20c35 53 60 119 68 196c3 25 3 44 22 57c26 20 74 26 88 8c5 -9 4 -21 2 -38z" />
    <glyph glyph-name="quotedblright" unicode="&#x201d;" horiz-adv-x="444" 
d="M225 648c-21 -155 -92 -268 -160 -268c-16 0 -25 10 -25 25c0 7 1 13 5 20c35 53 60 119 68 196c3 25 3 44 22 57c26 20 74 26 88 8c5 -9 4 -21 2 -38zM407 648c-21 -155 -92 -268 -160 -268c-16 0 -25 10 -25 25c0 7 1 13 5 20c35 53 60 119 68 196c3 25 3 44 22 57
c26 20 74 26 88 8c5 -9 4 -21 2 -38z" />
    <glyph glyph-name="quotedblleft" unicode="&#x201c;" horiz-adv-x="447" 
d="M46 429c21 155 92 268 160 268c16 0 25 -10 25 -25c0 -7 -1 -13 -5 -20c-35 -53 -60 -119 -68 -196c-3 -25 -3 -44 -22 -57c-26 -20 -74 -26 -88 -8c-5 9 -4 21 -2 38zM234 429c21 155 92 268 160 268c16 0 25 -10 25 -25c0 -7 -1 -13 -5 -20c-35 -53 -60 -119 -68 -196
c-3 -25 -3 -44 -22 -57c-26 -20 -74 -26 -88 -8c-5 9 -4 21 -2 38z" />
    <glyph glyph-name="quoteleft" unicode="&#x2018;" horiz-adv-x="259" 
d="M46 429c21 155 92 268 160 268c16 0 25 -10 25 -25c0 -7 -1 -13 -5 -20c-35 -53 -60 -119 -68 -196c-3 -25 -3 -44 -22 -57c-26 -20 -74 -26 -88 -8c-5 9 -4 21 -2 38z" />
    <glyph glyph-name="trademark" unicode="&#x2122;" horiz-adv-x="783" 
d="M327 614h-89v-248c0 -22 -17 -39 -42 -39c-21 0 -41 18 -41 39v248h-63c-18 0 -35 17 -35 37c0 21 16 38 35 38h285c17 0 28 -4 38 -25l92 -195l92 195c10 22 23 25 39 25h7c20 0 37 -18 39 -37l34 -286c2 -18 -16 -40 -35 -41c-24 -2 -45 13 -47 34l-21 164l-62 -128
c-6 -14 -21 -33 -46 -33c-24 0 -39 18 -46 33l-61 128l-20 -164c-3 -21 -21 -37 -44 -35c-21 1 -42 22 -39 42z" />
    <glyph glyph-name="germandbls" unicode="&#xdf;" horiz-adv-x="563" 
d="M302 -5h-9c-31 0 -66 19 -66 62c0 32 19 57 81 64c63 8 87 59 87 109c0 34 -20 105 -100 105l-19 1c-24 1 -39 22 -39 48c0 25 16 45 39 48l12 2c35 6 49 37 49 71c0 36 -27 64 -71 64c-34 0 -67 -24 -67 -68v-445c0 -34 -32 -61 -69 -61c-36 0 -69 28 -69 61v434
c0 132 87 207 202 207c128 0 209 -76 209 -166c0 -59 -19 -96 -63 -124c66 -32 117 -93 117 -187c0 -127 -72 -225 -224 -225z" />
    <glyph glyph-name="Scaron" unicode="&#x160;" horiz-adv-x="573" 
d="M299 735h-38c-41 0 -63 30 -74 47l-52 68c-12 17 0 42 27 42c15 0 30 -7 60 -28l58 -46l58 46c30 21 45 28 60 28c27 0 39 -25 27 -42l-52 -68c-11 -17 -33 -47 -74 -47zM50 139c-11 35 5 69 39 82c39 15 76 -6 90 -35c15 -31 49 -65 111 -65c59 0 100 28 101 73
c1 31 -13 58 -83 78l-83 23c-152 47 -178 134 -178 196c0 123 105 206 237 206c99 0 173 -43 210 -115c17 -33 3 -65 -22 -81c-36 -23 -68 -13 -92 17c-29 37 -67 48 -98 48c-51 0 -89 -30 -89 -71c0 -18 7 -51 74 -70l82 -24c167 -48 191 -142 189 -208
c-2 -137 -126 -202 -248 -202s-210 59 -240 148z" />
    <glyph glyph-name="scaron" unicode="&#x161;" horiz-adv-x="460" 
d="M38 90c24 -69 112 -100 187 -100c98 0 202 47 202 146c0 30 -14 103 -127 140l-71 24c-28 9 -40 18 -40 33c0 18 21 28 51 28c18 0 36 -6 56 -21c29 -22 58 -29 89 -11c21 12 29 41 12 71c-32 56 -101 77 -168 77c-98 0 -181 -64 -181 -133c0 -43 -1 -109 139 -156
l53 -19c34 -11 46 -18 46 -38c0 -24 -29 -29 -60 -29c-33 0 -63 14 -88 41c-15 18 -44 31 -75 17c-23 -10 -35 -41 -25 -70zM253 533h-44c-41 0 -61 34 -73 54l-49 87c-12 19 0 48 27 48c15 0 32 -4 59 -32l58 -61l58 61c27 28 44 32 59 32c27 0 39 -29 27 -48l-49 -87
c-12 -20 -32 -54 -73 -54z" />
    <glyph glyph-name="fraction" unicode="&#x2044;" horiz-adv-x="180" 
d="M325 626l-416 -624c-10 -16 -30 -18 -46 -9c-18 10 -21 31 -11 46l416 626c9 13 31 17 45 8c17 -11 22 -32 12 -47z" />
    <glyph glyph-name="section" unicode="&#xa7;" horiz-adv-x="559" 
d="M279 222c31 -1 56 -24 58 -58c2 -33 -20 -61 -50 -65c-7 -1 -14 -1 -20 -1c-116 0 -213 82 -213 210v176c0 128 97 210 213 210c73 0 152 -35 191 -109c14 -29 1 -57 -28 -75c-26 -16 -64 -7 -85 24c-20 29 -51 37 -78 37c-48 0 -89 -34 -89 -87v-176
c0 -54 41 -86 89 -86h6h6zM280 302c-31 0 -56 24 -58 58c-2 33 20 61 50 65c7 1 14 1 20 1c116 0 213 -82 213 -210v-176c0 -128 -97 -210 -213 -210c-73 0 -152 35 -191 109c-14 29 -1 57 28 75c26 16 64 7 85 -24c20 -29 51 -37 78 -37c48 0 89 34 89 87v176
c0 54 -41 86 -89 86h-6h-6z" />
    <glyph glyph-name="braceleft" unicode="{" horiz-adv-x="400" 
d="M116 -28v135c0 34 -14 69 -58 69c-40 3 -55 24 -55 55c0 30 15 51 55 54c44 0 58 32 58 67v142c-1 122 91 200 202 200h14c26 0 45 -23 45 -51c0 -26 -20 -49 -45 -50h-5c-45 0 -94 -42 -94 -97v-144c0 -46 -34 -110 -114 -122c80 -15 114 -77 114 -122v-138
c0 -55 49 -97 94 -97h5c25 -1 45 -24 45 -50c0 -28 -19 -51 -45 -51h-14c-111 0 -203 78 -202 200z" />
    <glyph glyph-name="braceright" unicode="}" horiz-adv-x="400" 
d="M284 107v-135c1 -122 -91 -200 -202 -200h-14c-26 0 -45 23 -45 51c0 26 20 49 45 50h5c45 0 94 42 94 97v138c0 45 34 107 114 122c-80 12 -114 76 -114 122v144c0 55 -49 97 -94 97h-5c-25 1 -45 24 -45 50c0 28 19 51 45 51h14c111 0 203 -78 202 -200v-142
c0 -35 14 -67 58 -67c40 -3 55 -24 55 -54c0 -31 -15 -52 -55 -55c-44 0 -58 -35 -58 -69z" />
    <glyph glyph-name="guilsinglleft" unicode="&#x2039;" horiz-adv-x="308" 
d="M162 40l-101 150c-11 16 -18 28 -18 43c0 17 8 28 18 44l102 150c14 20 46 27 67 17c21 -12 33 -42 20 -66l-103 -145l102 -143c14 -22 4 -54 -19 -68c-22 -13 -53 -4 -68 18z" />
    <glyph glyph-name="guilsinglright" unicode="&#x203a;" horiz-adv-x="308" 
d="M247 190l-101 -150c-15 -22 -46 -31 -68 -18c-23 14 -33 46 -19 68l102 143l-103 145c-13 24 -1 54 20 66c21 10 53 3 67 -17l102 -150c10 -16 18 -27 18 -44c0 -15 -7 -27 -18 -43z" />
    <glyph glyph-name="guillemotleft" unicode="&#xab;" horiz-adv-x="501" 
d="M162 40l-101 150c-11 16 -18 28 -18 43c0 17 8 28 18 44l102 150c14 20 46 27 67 17c21 -12 33 -42 20 -66l-103 -145l102 -143c14 -22 4 -54 -19 -68c-22 -13 -53 -4 -68 18zM355 40l-101 150c-11 16 -18 28 -18 43c0 17 8 28 18 44l102 150c14 20 46 27 67 17
c21 -12 33 -42 20 -66l-103 -145l102 -143c14 -22 4 -54 -19 -68c-22 -13 -53 -4 -68 18z" />
    <glyph glyph-name="guillemotright" unicode="&#xbb;" horiz-adv-x="500" 
d="M439 190l-101 -150c-15 -22 -46 -31 -68 -18c-23 14 -33 46 -19 68l102 143l-103 145c-13 24 -1 54 20 66c21 10 53 3 67 -17l102 -150c10 -16 18 -27 18 -44c0 -15 -7 -27 -18 -43zM246 190l-101 -150c-15 -22 -46 -31 -68 -18c-23 14 -33 46 -19 68l102 143l-103 145
c-13 24 -1 54 20 66c21 10 53 3 67 -17l102 -150c10 -16 18 -27 18 -44c0 -15 -7 -27 -18 -43z" />
    <glyph glyph-name="oe" unicode="&#x153;" horiz-adv-x="897" 
d="M457 60c-44 -44 -107 -69 -176 -69c-136 0 -245 97 -245 244s109 241 245 241c69 0 132 -25 176 -68c45 43 107 68 175 68c133 0 239 -98 239 -245c0 -25 -21 -43 -43 -43h-301c7 -54 66 -77 115 -77c28 0 52 2 81 22c32 22 68 16 88 -7c26 -30 16 -73 -18 -93
c-47 -31 -106 -42 -161 -42c-68 0 -130 25 -175 69zM281 126c58 0 106 45 106 109c0 63 -48 106 -106 106c-57 0 -105 -43 -105 -106c0 -64 48 -109 105 -109zM529 275h202c-7 57 -46 85 -98 85s-92 -26 -104 -85z" />
    <glyph glyph-name="question" unicode="?" horiz-adv-x="486" 
d="M110 75c0 48 39 83 86 83s87 -35 87 -83c0 -49 -40 -84 -87 -84s-86 35 -86 84zM43 573c30 78 101 124 196 124c125 0 211 -75 211 -195c0 -97 -56 -165 -134 -189c-29 -8 -47 -21 -49 -47c-3 -35 -33 -63 -72 -63c-37 0 -68 21 -68 78c0 49 22 117 106 150l33 14
c35 16 44 36 44 58c0 30 -29 59 -71 59c-30 0 -56 -14 -68 -48c-11 -32 -62 -48 -97 -33s-44 60 -31 92z" />
    <glyph glyph-name="questiondown" unicode="&#xbf;" horiz-adv-x="477" 
d="M372 392c0 -48 -39 -83 -86 -83s-87 35 -87 83c0 49 40 84 87 84s86 -35 86 -84zM439 -104c-30 -78 -101 -124 -196 -124c-125 0 -211 75 -211 195c0 97 56 165 134 189c29 8 47 21 49 47c3 35 33 63 72 63c37 0 68 -21 68 -78c0 -49 -22 -117 -106 -150l-40 -17
c-38 -15 -37 -43 -37 -55c0 -30 29 -59 71 -59c30 0 56 14 68 48c11 32 62 48 97 33s44 -60 31 -92z" />
    <glyph glyph-name="sterling" unicode="&#xa3;" horiz-adv-x="678" 
d="M88 278c-15 0 -28 16 -28 33s12 31 28 31h60v131c0 137 90 224 213 224c102 0 190 -50 219 -156c8 -35 -9 -68 -47 -76c-62 -13 -80 14 -96 46c-17 34 -42 41 -73 41c-46 0 -76 -33 -76 -79v-131h92c16 0 28 -14 28 -31s-13 -33 -28 -33h-92v-154h184c18 0 30 16 30 36v5
c0 35 31 61 68 61s68 -27 69 -61v-32c0 -76 -55 -133 -126 -133h-421c-31 0 -55 28 -55 62c0 33 25 62 55 62h56v154h-60z" />
    <glyph glyph-name="eth" unicode="&#xf0;" horiz-adv-x="557" 
d="M278 128c58 0 106 42 106 107c0 63 -48 104 -106 104c-57 0 -105 -41 -105 -104c0 -65 48 -107 105 -107zM323 588l152 -208c29 -39 46 -88 46 -145c0 -147 -111 -243 -243 -243s-242 96 -242 243c0 145 112 241 247 232l-51 64l-66 -42c-12 -7 -29 -1 -36 13
c-8 13 -5 29 8 37l60 37l-7 10l-22 31c-14 23 -2 55 23 70c26 14 57 7 72 -15l26 -37l67 43c12 7 29 1 35 -12c9 -14 6 -29 -8 -38z" />
    <glyph glyph-name="asterisk" unicode="*" horiz-adv-x="451" 
d="M291 499l52 -61c8 -10 12 -22 12 -33c0 -22 -18 -46 -45 -46c-17 0 -33 9 -43 24l-41 66l-42 -65c-10 -17 -26 -26 -42 -26c-30 0 -46 28 -46 48c0 33 44 64 65 91c-44 10 -114 19 -114 67c0 29 22 43 46 43c29 0 63 -17 93 -29l-7 74v5c0 27 20 48 47 48s46 -22 46 -48
v-4l-6 -75l67 25c7 3 15 4 23 4c24 0 46 -15 46 -44c0 -20 -14 -39 -36 -45z" />
    <glyph glyph-name="parenleft" unicode="(" horiz-adv-x="310" 
d="M44 232c0 141 34 304 117 432c15 24 50 38 79 24c28 -14 38 -50 24 -77c-74 -108 -103 -254 -103 -379s29 -271 103 -379c14 -27 4 -63 -24 -77c-29 -14 -64 0 -79 24c-83 128 -117 291 -117 432z" />
    <glyph glyph-name="parenright" unicode=")" horiz-adv-x="310" 
d="M266 232c0 -141 -34 -304 -117 -432c-15 -24 -50 -38 -79 -24c-28 14 -38 50 -24 77c74 108 103 254 103 379s-29 271 -103 379c-14 27 -4 63 24 77c29 14 64 0 79 -24c83 -128 117 -291 117 -432z" />
    <glyph glyph-name="ae" unicode="&#xe6;" horiz-adv-x="848" 
d="M152 332c-21 -11 -51 -9 -69 12c-20 23 -21 58 0 77c61 56 137 55 176 55c70 0 129 -21 164 -69c37 44 91 69 160 69c133 0 239 -98 239 -245c0 -25 -21 -43 -43 -43h-301c7 -54 66 -77 115 -77c28 0 52 2 81 22c32 22 68 16 88 -7c26 -30 16 -73 -18 -93
c-47 -31 -106 -42 -161 -42c-79 0 -139 33 -175 91c-72 -88 -165 -91 -204 -91c-107 0 -177 61 -177 150c0 77 75 141 200 141c33 0 82 -8 110 -27c0 59 -23 101 -94 101c-16 0 -53 -1 -91 -24zM480 275h202c-7 57 -46 85 -98 85s-92 -26 -104 -85zM230 95
c21 0 89 11 118 65c-29 26 -80 31 -100 31c-59 0 -79 -25 -79 -49c0 -25 28 -47 61 -47z" />
    <glyph glyph-name="macron" unicode="&#xaf;" horiz-adv-x="533" 
d="M166 653h201c26 0 46 -22 46 -49c0 -25 -21 -48 -46 -48h-201c-25 0 -46 23 -46 48c0 27 20 49 46 49z" />
    <glyph glyph-name="Amacron" unicode="&#x100;" horiz-adv-x="640" 
d="M202 163h236l47 -126c13 -34 55 -50 92 -38c36 12 56 57 44 91l-199 536c-16 42 -48 68 -99 68h-6c-51 0 -83 -26 -99 -68l-199 -536c-12 -34 8 -79 44 -91c37 -12 79 4 92 38zM390 290h-140l70 240zM220 839h201c26 0 46 -22 46 -49c0 -25 -21 -48 -46 -48h-201
c-25 0 -46 23 -46 48c0 27 20 49 46 49z" />
    <glyph glyph-name="amacron" unicode="&#x101;" horiz-adv-x="603" 
d="M404 401v9c1 34 33 62 70 62c38 0 70 -27 70 -62v-353c0 -35 -32 -62 -70 -62c-37 0 -69 28 -70 62v9c-30 -49 -87 -75 -140 -75c-119 0 -227 88 -227 243s108 242 227 242c30 0 100 -13 140 -75zM181 233c0 -62 40 -118 110 -118c63 0 114 56 114 118s-51 118 -114 118
c-70 0 -110 -56 -110 -118zM200 653h201c26 0 46 -22 46 -49c0 -25 -21 -48 -46 -48h-201c-25 0 -46 23 -46 48c0 27 20 49 46 49z" />
    <glyph glyph-name="Abreve" unicode="&#x102;" horiz-adv-x="640" 
d="M438 163h-236l-47 -126c-13 -34 -55 -50 -92 -38c-36 12 -56 57 -44 91l199 536c16 42 48 68 99 68h6c51 0 83 -26 99 -68l199 -536c12 -34 -8 -79 -44 -91c-37 -12 -79 4 -92 38zM250 290h140l-70 240zM320 739c-79 0 -147 57 -147 127c0 26 16 44 41 44
c20 0 31 -11 38 -28c10 -25 27 -48 68 -48s58 23 68 48c7 17 18 28 38 28c25 0 41 -18 41 -44c0 -70 -68 -127 -147 -127z" />
    <glyph glyph-name="abreve" unicode="&#x103;" horiz-adv-x="603" 
d="M404 401v9c1 34 33 62 70 62c38 0 70 -27 70 -62v-353c0 -35 -32 -62 -70 -62c-37 0 -69 28 -70 62v9c-30 -49 -87 -75 -140 -75c-119 0 -227 88 -227 243s108 242 227 242c30 0 100 -13 140 -75zM181 233c0 -62 40 -118 110 -118c63 0 114 56 114 118s-51 118 -114 118
c-70 0 -110 -56 -110 -118zM301 544c-79 0 -147 57 -147 127c0 26 16 44 41 44c20 0 31 -11 38 -28c10 -25 27 -48 68 -48s58 23 68 48c7 17 18 28 38 28c25 0 41 -18 41 -44c0 -70 -68 -127 -147 -127z" />
    <glyph glyph-name="Cacute" unicode="&#x106;" horiz-adv-x="672" 
d="M42 344c0 196 149 353 346 353c98 0 183 -36 244 -95c26 -24 19 -75 -9 -100c-28 -24 -69 -23 -94 -1c-36 34 -85 54 -141 54c-114 0 -200 -94 -200 -211s86 -211 200 -211c56 0 105 20 141 54c25 22 66 23 94 -1c28 -25 35 -76 9 -100c-61 -59 -146 -95 -244 -95
c-197 0 -346 157 -346 353zM360 732c-29 0 -43 23 -22 63l34 64c18 34 40 64 99 49c41 -10 64 -40 20 -83l-65 -59c-29 -28 -47 -34 -66 -34z" />
    <glyph glyph-name="cacute" unicode="&#x107;" horiz-adv-x="502" 
d="M178 232c0 -65 54 -106 114 -106c25 0 49 7 69 18c25 14 66 20 91 -5c28 -28 24 -79 -9 -102c-42 -30 -95 -46 -151 -46c-134 0 -256 94 -256 241v3c0 147 122 241 256 241c56 0 109 -16 151 -46c33 -23 37 -74 9 -102c-25 -25 -66 -19 -91 -5c-20 11 -44 18 -69 18
c-60 0 -114 -41 -114 -106v-3zM242 533c-29 0 -34 31 -17 63l45 84c15 27 34 63 93 48c41 -10 63 -39 26 -84l-72 -74c-31 -31 -51 -37 -75 -37z" />
    <glyph glyph-name="Ccircumflex" unicode="&#x108;" horiz-adv-x="672" 
d="M42 344c0 -196 149 -353 346 -353c98 0 183 36 244 95c26 24 19 75 -9 100c-28 24 -69 23 -94 1c-36 -34 -85 -54 -141 -54c-114 0 -200 94 -200 211s86 211 200 211c56 0 105 -20 141 -54c25 -22 66 -23 94 1c28 25 35 76 9 100c-61 59 -146 95 -244 95
c-197 0 -346 -157 -346 -353zM361 888h38c41 0 63 -30 74 -47l52 -68c12 -17 0 -42 -27 -42c-15 0 -30 7 -60 28l-58 46l-58 -46c-30 -21 -45 -28 -60 -28c-27 0 -39 25 -27 42l52 68c11 17 33 47 74 47z" />
    <glyph glyph-name="ccircumflex" unicode="&#x109;" horiz-adv-x="502" 
d="M178 232v3c0 65 54 106 114 106c25 0 49 -7 69 -18c25 -14 66 -20 91 5c28 28 24 79 -9 102c-42 30 -95 46 -151 46c-134 0 -256 -94 -256 -241v-3c0 -147 122 -241 256 -241c56 0 109 16 151 46c33 23 37 74 9 102c-25 25 -66 19 -91 5c-20 -11 -44 -18 -69 -18
c-60 0 -114 41 -114 106zM260 710h44c41 0 61 -34 73 -54l49 -87c12 -19 0 -48 -27 -48c-15 0 -32 4 -59 32l-58 61l-58 -61c-27 -28 -44 -32 -59 -32c-27 0 -39 29 -27 48l49 87c12 20 32 54 73 54z" />
    <glyph glyph-name="Cdotaccent" unicode="&#x10a;" horiz-adv-x="672" 
d="M42 344c0 -196 149 -353 346 -353c98 0 183 36 244 95c26 24 19 75 -9 100c-28 24 -69 23 -94 1c-36 -34 -85 -54 -141 -54c-114 0 -200 94 -200 211s86 211 200 211c56 0 105 -20 141 -54c25 -22 66 -23 94 1c28 25 35 76 9 100c-61 59 -146 95 -244 95
c-197 0 -346 -157 -346 -353zM308 814c0 42 34 74 77 74s77 -32 77 -74c0 -44 -34 -75 -77 -75s-77 31 -77 75z" />
    <glyph glyph-name="cdotaccent" unicode="&#x10b;" horiz-adv-x="502" 
d="M178 232v3c0 65 54 106 114 106c25 0 49 -7 69 -18c25 -14 66 -20 91 5c28 28 24 79 -9 102c-42 30 -95 46 -151 46c-134 0 -256 -94 -256 -241v-3c0 -147 122 -241 256 -241c56 0 109 16 151 46c33 23 37 74 9 102c-25 25 -66 19 -91 5c-20 -11 -44 -18 -69 -18
c-60 0 -114 41 -114 106zM205 626c0 42 34 74 77 74s77 -32 77 -74c0 -44 -34 -75 -77 -75s-77 31 -77 75z" />
    <glyph glyph-name="Ccaron" unicode="&#x10c;" horiz-adv-x="672" 
d="M42 344c0 196 149 353 346 353c98 0 183 -36 244 -95c26 -24 19 -75 -9 -100c-28 -24 -69 -23 -94 -1c-36 34 -85 54 -141 54c-114 0 -200 -94 -200 -211s86 -211 200 -211c56 0 105 20 141 54c25 22 66 23 94 -1c28 -25 35 -76 9 -100c-61 -59 -146 -95 -244 -95
c-197 0 -346 157 -346 353zM392 735h-38c-41 0 -63 30 -74 47l-52 68c-12 17 0 42 27 42c15 0 30 -7 60 -28l58 -46l58 46c30 21 45 28 60 28c27 0 39 -25 27 -42l-52 -68c-11 -17 -33 -47 -74 -47z" />
    <glyph glyph-name="ccaron" unicode="&#x10d;" horiz-adv-x="502" 
d="M178 232c0 -65 54 -106 114 -106c25 0 49 7 69 18c25 14 66 20 91 -5c28 -28 24 -79 -9 -102c-42 -30 -95 -46 -151 -46c-134 0 -256 94 -256 241v3c0 147 122 241 256 241c56 0 109 -16 151 -46c33 -23 37 -74 9 -102c-25 -25 -66 -19 -91 -5c-20 11 -44 18 -69 18
c-60 0 -114 -41 -114 -106v-3zM298 521h-44c-41 0 -61 34 -73 54l-49 87c-12 19 0 48 27 48c15 0 32 -4 59 -32l58 -61l58 61c27 28 44 32 59 32c27 0 39 -29 27 -48l-49 -87c-12 -20 -32 -54 -73 -54z" />
    <glyph glyph-name="Dcaron" unicode="&#x10e;" horiz-adv-x="705" 
d="M225 560v-432h124c110 0 165 102 165 215c0 114 -55 217 -165 217h-124zM349 0h-212c-37 0 -58 29 -58 62v565c1 34 21 62 58 62h212c198 0 311 -150 311 -346c0 -195 -113 -343 -311 -343zM329 735h-38c-41 0 -63 30 -74 47l-52 68c-12 17 0 42 27 42c15 0 30 -7 60 -28
l58 -46l58 46c30 21 45 28 60 28c27 0 39 -25 27 -42l-52 -68c-11 -17 -33 -47 -74 -47z" />
    <glyph glyph-name="Aogonek" unicode="&#x104;" horiz-adv-x="640" 
d="M519 -45l-13 -45c-5 -17 5 -32 24 -32c9 0 21 9 23 19c4 17 19 35 47 32c27 -4 42 -26 37 -53c-13 -52 -61 -85 -107 -85c-79 0 -115 51 -115 106c0 14 4 34 18 60l49 87l-44 119h-236l-47 -126c-13 -34 -55 -50 -92 -38c-36 12 -56 57 -44 91l199 536c16 42 48 68 99 68
h6c51 0 83 -26 99 -68l199 -536c12 -34 -8 -79 -44 -91c-15 -5 -49 -13 -58 -44zM250 290h140l-70 240z" />
    <glyph glyph-name="aogonek" unicode="&#x105;" horiz-adv-x="603" 
d="M181 233c0 -62 40 -118 110 -118c63 0 114 56 114 118s-51 118 -114 118c-70 0 -110 -56 -110 -118zM447 -29l-19 -61c-5 -17 5 -32 24 -32c9 0 21 9 23 19c4 17 19 35 47 32c27 -4 42 -26 37 -53c-13 -52 -61 -85 -107 -85c-79 0 -115 51 -115 106c0 14 4 34 18 60
l49 87v22c-30 -49 -87 -75 -140 -75c-119 0 -227 88 -227 243s108 242 227 242c30 0 100 -13 140 -75v9c1 34 33 62 70 62c38 0 70 -27 70 -62v-353c0 -35 -32 -62 -70 -62c-13 0 -23 -7 -27 -24z" />
    <glyph glyph-name="Emacron" unicode="&#x112;" horiz-adv-x="564" 
d="M454 689h-318c-37 0 -57 -28 -58 -62v-565c1 -34 21 -62 58 -62h327c32 0 60 31 60 64c0 35 -27 64 -60 64h-239v148h199c32 0 60 30 60 63c0 35 -27 63 -60 63h-199v158h230c32 0 60 31 60 64c0 36 -27 65 -60 65zM184 839h201c26 0 46 -22 46 -49
c0 -25 -21 -48 -46 -48h-201c-25 0 -46 23 -46 48c0 27 20 49 46 49z" />
    <glyph glyph-name="emacron" unicode="&#x113;" horiz-adv-x="544" 
d="M177 275h202c-7 57 -46 85 -98 85s-92 -26 -104 -85zM459 126c26 -30 16 -73 -18 -93c-47 -31 -106 -42 -161 -42c-134 0 -244 97 -244 244s110 241 244 241c133 0 239 -98 239 -245c0 -25 -21 -43 -43 -43h-301c7 -54 66 -77 115 -77c28 0 52 2 81 22c32 22 68 16 88 -7
zM174 653h201c26 0 46 -22 46 -49c0 -25 -21 -48 -46 -48h-201c-25 0 -46 23 -46 48c0 27 20 49 46 49z" />
    <glyph glyph-name="Ebreve" unicode="&#x114;" horiz-adv-x="564" 
d="M136 689h318c33 0 60 -29 60 -65c0 -33 -28 -64 -60 -64h-230v-158h199c33 0 60 -28 60 -63c0 -33 -28 -63 -60 -63h-199v-148h239c33 0 60 -29 60 -64c0 -33 -28 -64 -60 -64h-327c-37 0 -57 28 -58 62v565c1 34 21 62 58 62zM285 739c-79 0 -147 57 -147 127
c0 26 16 44 41 44c20 0 31 -11 38 -28c10 -25 27 -48 68 -48s58 23 68 48c7 17 18 28 38 28c25 0 41 -18 41 -44c0 -70 -68 -127 -147 -127z" />
    <glyph glyph-name="ebreve" unicode="&#x115;" horiz-adv-x="544" 
d="M177 275h202c-7 57 -46 85 -98 85s-92 -26 -104 -85zM459 126c26 -30 16 -73 -18 -93c-47 -31 -106 -42 -161 -42c-134 0 -244 97 -244 244s110 241 244 241c133 0 239 -98 239 -245c0 -25 -21 -43 -43 -43h-301c7 -54 66 -77 115 -77c28 0 52 2 81 22c32 22 68 16 88 -7
zM275 544c-79 0 -147 57 -147 127c0 26 16 44 41 44c20 0 31 -11 38 -28c10 -25 27 -48 68 -48s58 23 68 48c7 17 18 28 38 28c25 0 41 -18 41 -44c0 -70 -68 -127 -147 -127z" />
    <glyph glyph-name="Edotaccent" unicode="&#x116;" horiz-adv-x="564" 
d="M454 689h-318c-37 0 -57 -28 -58 -62v-565c1 -34 21 -62 58 -62h327c32 0 60 31 60 64c0 35 -27 64 -60 64h-239v148h199c32 0 60 30 60 63c0 35 -27 63 -60 63h-199v158h230c32 0 60 31 60 64c0 36 -27 65 -60 65zM218 813c0 42 34 74 77 74s77 -32 77 -74
c0 -44 -34 -75 -77 -75s-77 31 -77 75z" />
    <glyph glyph-name="edotaccent" unicode="&#x117;" horiz-adv-x="544" 
d="M177 275h202c-7 57 -46 85 -98 85s-92 -26 -104 -85zM459 126c26 -30 16 -73 -18 -93c-47 -31 -106 -42 -161 -42c-134 0 -244 97 -244 244s110 241 244 241c133 0 239 -98 239 -245c0 -25 -21 -43 -43 -43h-301c7 -54 66 -77 115 -77c28 0 52 2 81 22c32 22 68 16 88 -7
zM203 626c0 42 34 74 77 74s77 -32 77 -74c0 -44 -34 -75 -77 -75s-77 31 -77 75z" />
    <glyph glyph-name="Ecaron" unicode="&#x11a;" horiz-adv-x="564" 
d="M136 689h318c33 0 60 -29 60 -65c0 -33 -28 -64 -60 -64h-230v-158h199c33 0 60 -28 60 -63c0 -33 -28 -63 -60 -63h-199v-148h239c33 0 60 -29 60 -64c0 -33 -28 -64 -60 -64h-327c-37 0 -57 28 -58 62v565c1 34 21 62 58 62zM309 735h-38c-41 0 -63 30 -74 47l-52 68
c-12 17 0 42 27 42c15 0 30 -7 60 -28l58 -46l58 46c30 21 45 28 60 28c27 0 39 -25 27 -42l-52 -68c-11 -17 -33 -47 -74 -47z" />
    <glyph glyph-name="ecaron" unicode="&#x11b;" horiz-adv-x="544" 
d="M177 275h202c-7 57 -46 85 -98 85s-92 -26 -104 -85zM459 126c26 -30 16 -73 -18 -93c-47 -31 -106 -42 -161 -42c-134 0 -244 97 -244 244s110 241 244 241c133 0 239 -98 239 -245c0 -25 -21 -43 -43 -43h-301c7 -54 66 -77 115 -77c28 0 52 2 81 22c32 22 68 16 88 -7
zM297 521h-44c-41 0 -61 34 -73 54l-49 87c-12 19 0 48 27 48c15 0 32 -4 59 -32l58 -61l58 61c27 28 44 32 59 32c27 0 39 -29 27 -48l-49 -87c-12 -20 -32 -54 -73 -54z" />
    <glyph glyph-name="Gcircumflex" unicode="&#x11c;" horiz-adv-x="749" 
d="M728 307c-24 -219 -151 -316 -334 -316c-198 0 -353 158 -353 352c0 196 155 354 353 354c85 0 157 -26 215 -72c26 -20 22 -77 -6 -102c-26 -22 -63 -23 -88 -5c-32 24 -75 37 -121 37c-116 0 -207 -95 -207 -212c0 -116 91 -210 207 -210c79 0 140 35 170 110h-136
c-31 0 -59 28 -59 59c0 34 27 60 59 60h257c34 0 47 -18 43 -55zM357 888h38c41 0 63 -30 74 -47l52 -68c12 -17 0 -42 -27 -42c-15 0 -30 7 -60 28l-58 46l-58 -46c-30 -21 -45 -28 -60 -28c-27 0 -39 25 -27 42l52 68c11 17 33 47 74 47z" />
    <glyph glyph-name="gcircumflex" unicode="&#x11d;" horiz-adv-x="605" 
d="M82 -140c-19 24 -17 64 8 86c25 23 67 18 86 -3c26 -28 66 -51 104 -51c106 0 135 73 129 166v13c-30 -53 -87 -80 -145 -80c-119 0 -227 88 -227 243s108 242 227 242c30 0 100 -13 140 -75v9c1 34 33 62 70 62c38 0 70 -27 70 -62v-345c0 -201 -98 -298 -264 -298
c-81 0 -152 36 -198 93zM181 233c0 -62 40 -118 110 -118c63 0 114 56 114 118s-51 118 -114 118c-70 0 -110 -56 -110 -118zM282 710h44c41 0 61 -34 73 -54l49 -87c12 -19 0 -48 -27 -48c-15 0 -32 4 -59 32l-58 61l-58 -61c-27 -28 -44 -32 -59 -32c-27 0 -39 29 -27 48
l49 87c12 20 32 54 73 54z" />
    <glyph glyph-name="Gbreve" unicode="&#x11e;" horiz-adv-x="749" 
d="M728 307c-24 -219 -151 -316 -334 -316c-198 0 -353 158 -353 352c0 196 155 354 353 354c85 0 157 -26 215 -72c26 -20 22 -77 -6 -102c-26 -22 -63 -23 -88 -5c-32 24 -75 37 -121 37c-116 0 -207 -95 -207 -212c0 -116 91 -210 207 -210c79 0 140 35 170 110h-136
c-31 0 -59 28 -59 59c0 34 27 60 59 60h257c34 0 47 -18 43 -55zM377 739c-79 0 -147 57 -147 127c0 26 16 44 41 44c20 0 31 -11 38 -28c10 -25 27 -48 68 -48s58 23 68 48c7 17 18 28 38 28c25 0 41 -18 41 -44c0 -70 -68 -127 -147 -127z" />
    <glyph glyph-name="gbreve" unicode="&#x11f;" horiz-adv-x="605" 
d="M82 -140c-19 24 -17 64 8 86c25 23 67 18 86 -3c26 -28 66 -51 104 -51c106 0 135 73 129 166v13c-30 -53 -87 -80 -145 -80c-119 0 -227 88 -227 243s108 242 227 242c30 0 100 -13 140 -75v9c1 34 33 62 70 62c38 0 70 -27 70 -62v-345c0 -201 -98 -298 -264 -298
c-81 0 -152 36 -198 93zM181 233c0 -62 40 -118 110 -118c63 0 114 56 114 118s-51 118 -114 118c-70 0 -110 -56 -110 -118zM304 544c-79 0 -147 57 -147 127c0 26 16 44 41 44c20 0 31 -11 38 -28c10 -25 27 -48 68 -48s58 23 68 48c7 17 18 28 38 28c25 0 41 -18 41 -44
c0 -70 -68 -127 -147 -127z" />
    <glyph glyph-name="Eogonek" unicode="&#x118;" horiz-adv-x="563" 
d="M478 -90c-5 -17 5 -32 24 -32c9 0 21 9 23 19c4 17 19 35 47 32c27 -4 42 -26 37 -53c-13 -52 -61 -85 -107 -85c-79 0 -115 51 -115 106c0 14 4 34 18 60l24 43h-294c-37 0 -57 28 -58 62v565c1 34 21 62 58 62h318c33 0 60 -29 60 -65c0 -33 -28 -64 -60 -64h-230v-158
h199c33 0 60 -28 60 -63c0 -33 -28 -63 -60 -63h-199v-148h239c33 0 60 -29 60 -64c0 -9 -19 -74 -44 -154z" />
    <glyph glyph-name="eogonek" unicode="&#x119;" horiz-adv-x="545" 
d="M417 -9l-25 -81c-5 -17 5 -32 24 -32c9 0 21 9 23 19c4 17 19 35 47 32c27 -4 42 -26 37 -53c-13 -52 -61 -85 -107 -85c-79 0 -115 51 -115 106c0 14 2 34 18 60l24 39c-21 -4 -43 -5 -63 -5c-134 0 -244 97 -244 244s110 241 244 241c133 0 239 -98 239 -245
c0 -25 -21 -43 -43 -43h-301c7 -54 66 -77 115 -77c28 0 52 2 81 22c32 22 68 16 88 -7c49 -56 -26 -79 -42 -135zM177 275h202c-7 57 -46 85 -98 85s-92 -26 -104 -85z" />
    <glyph glyph-name="dcaron" unicode="&#x10f;" horiz-adv-x="686" 
d="M404 401v263c1 34 33 62 70 62c38 0 70 -27 70 -62v-607c0 -35 -32 -62 -70 -62c-37 0 -69 28 -70 62v9c-30 -49 -87 -75 -140 -75c-119 0 -227 88 -227 243s108 242 227 242c30 0 100 -13 140 -75zM181 233c0 -62 40 -118 110 -118c63 0 114 56 114 118
s-51 118 -114 118c-70 0 -110 -56 -110 -118zM769 651c-11 -102 -68 -228 -143 -228c-21 0 -36 19 -20 45c25 40 44 112 44 156c0 25 3 44 22 57c34 27 103 22 97 -30z" />
    <glyph glyph-name="Dcroat" unicode="&#x110;" horiz-adv-x="723" 
d="M329 284h-86v-156h124c110 0 165 102 165 215c0 114 -55 217 -165 217h-124v-178h86c24 0 43 -23 43 -49s-20 -49 -43 -49zM97 284h-55c-23 0 -43 23 -43 49s19 49 43 49h55v245c1 34 21 62 58 62h212c198 0 311 -150 311 -346c0 -195 -113 -343 -311 -343h-212
c-37 0 -58 29 -58 62v222z" />
    <glyph glyph-name="dcroat" unicode="&#x111;" horiz-adv-x="605" 
d="M581 532h-37v-475c0 -35 -32 -62 -70 -62c-37 0 -69 28 -70 62v9c-30 -49 -87 -75 -140 -75c-119 0 -227 88 -227 243s108 242 227 242c30 0 100 -13 140 -75v131h-112c-20 0 -35 18 -35 39s16 40 35 40h112v53c1 34 33 62 70 62c38 0 70 -27 70 -62v-53h37
c19 0 35 -19 35 -40s-15 -39 -35 -39zM181 233c0 -62 40 -118 110 -118c63 0 114 56 114 118s-51 118 -114 118c-70 0 -110 -56 -110 -118z" />
    <glyph glyph-name="Gdotaccent" unicode="&#x120;" horiz-adv-x="749" 
d="M728 307c-24 -219 -151 -316 -334 -316c-198 0 -353 158 -353 352c0 196 155 354 353 354c85 0 157 -26 215 -72c26 -20 22 -77 -6 -102c-26 -22 -63 -23 -88 -5c-32 24 -75 37 -121 37c-116 0 -207 -95 -207 -212c0 -116 91 -210 207 -210c79 0 140 35 170 110h-136
c-31 0 -59 28 -59 59c0 34 27 60 59 60h257c34 0 47 -18 43 -55zM312 814c0 42 34 74 77 74s77 -32 77 -74c0 -44 -34 -75 -77 -75s-77 31 -77 75z" />
    <glyph glyph-name="gdotaccent" unicode="&#x121;" horiz-adv-x="605" 
d="M82 -140c-19 24 -17 64 8 86c25 23 67 18 86 -3c26 -28 66 -51 104 -51c106 0 135 73 129 166v13c-30 -53 -87 -80 -145 -80c-119 0 -227 88 -227 243s108 242 227 242c30 0 100 -13 140 -75v9c1 34 33 62 70 62c38 0 70 -27 70 -62v-345c0 -201 -98 -298 -264 -298
c-81 0 -152 36 -198 93zM181 233c0 -62 40 -118 110 -118c63 0 114 56 114 118s-51 118 -114 118c-70 0 -110 -56 -110 -118zM227 626c0 42 34 74 77 74s77 -32 77 -74c0 -44 -34 -75 -77 -75s-77 31 -77 75z" />
    <glyph glyph-name="Hcircumflex" unicode="&#x124;" horiz-adv-x="691" 
d="M614 63v563c0 37 -33 68 -73 68c-38 0 -72 -32 -73 -68v-218h-245v218c0 37 -33 68 -73 68c-38 0 -72 -32 -73 -68v-563c0 -36 35 -68 73 -68c40 0 73 31 73 68v214h245v-214c0 -36 35 -68 73 -68c40 0 73 31 73 68zM324 888h38c41 0 63 -30 74 -47l52 -68
c12 -17 0 -42 -27 -42c-15 0 -30 7 -60 28l-58 46l-58 -46c-30 -21 -45 -28 -60 -28c-27 0 -39 25 -27 42l52 68c11 17 33 47 74 47z" />
    <glyph glyph-name="hcircumflex" unicode="&#x125;" horiz-adv-x="574" 
d="M379 57v192c0 61 -44 92 -86 92c-44 0 -92 -23 -92 -94v-190c0 -35 -32 -62 -70 -62c-37 0 -69 28 -70 62v607c1 34 33 62 70 62c38 0 70 -27 70 -62v-270c19 58 86 82 130 82c123 0 188 -81 188 -222v-197c0 -35 -32 -62 -70 -62c-37 0 -69 28 -70 62zM113 888h38
c41 0 63 -30 74 -47l52 -68c12 -17 0 -42 -27 -42c-15 0 -30 7 -60 28l-58 46l-58 -46c-30 -21 -45 -28 -60 -28c-27 0 -39 25 -27 42l52 68c11 17 33 47 74 47z" />
    <glyph glyph-name="Hbar" unicode="&#x126;" horiz-adv-x="708" 
d="M476 491h-245v-83h245v83zM622 491v-428c0 -37 -33 -68 -73 -68c-38 0 -73 32 -73 68v214h-245v-214c0 -37 -33 -68 -73 -68c-38 0 -73 32 -73 68v428h-42c-20 0 -35 18 -35 39s16 40 35 40h42v56c1 36 35 68 73 68c40 0 73 -31 73 -68v-56h245v56c0 36 35 68 73 68
c40 0 73 -31 73 -68v-56h44c19 0 35 -19 35 -40s-15 -39 -35 -39h-44z" />
    <glyph glyph-name="hbar" unicode="&#x127;" horiz-adv-x="574" 
d="M304 532h-103v-138c19 58 86 82 130 82c123 0 188 -81 188 -222v-197c0 -35 -32 -62 -70 -62c-37 0 -69 28 -70 62v192c0 61 -44 92 -86 92c-44 0 -92 -23 -92 -94v-190c0 -35 -32 -62 -70 -62c-37 0 -69 28 -70 62v475h-46c-20 0 -35 18 -35 39s16 40 35 40h46v53
c1 34 33 62 70 62c38 0 70 -27 70 -62v-53h103c19 0 35 -19 35 -40s-15 -39 -35 -39z" />
    <glyph glyph-name="Itilde" unicode="&#x128;" horiz-adv-x="300" 
d="M223 626v-563c0 -37 -33 -68 -73 -68c-38 0 -73 32 -73 68v563c1 36 35 68 73 68c40 0 73 -31 73 -68zM131 759c-9 7 -18 13 -25 13c-8 0 -17 -6 -19 -19c-2 -10 -6 -22 -25 -27c-17 -5 -38 5 -46 20c-3 6 -3 15 -2 22c12 64 55 84 92 84c28 0 47 -14 61 -25
c9 -7 18 -13 26 -13s16 6 18 19c2 10 5 23 26 27c16 4 39 -5 46 -20c3 -6 3 -16 2 -22c-12 -64 -56 -84 -92 -84c-29 0 -47 14 -62 25z" />
    <glyph glyph-name="itilde" unicode="&#x129;" horiz-adv-x="258" 
d="M199 410v-353c0 -35 -32 -62 -70 -62c-37 0 -69 28 -70 62v353c1 34 33 62 70 62c38 0 70 -27 70 -62zM111 584c-9 8 -18 15 -25 15c-8 0 -17 -7 -19 -21c-2 -11 -6 -24 -25 -30c-17 -5 -38 6 -46 22c-3 7 -3 17 -2 24c12 70 55 92 92 92c28 0 46 -15 60 -27
c9 -8 18 -15 26 -15s16 7 18 21c2 11 5 25 26 30c16 4 39 -6 46 -22c3 -7 3 -18 2 -24c-12 -70 -56 -92 -92 -92c-29 0 -46 15 -61 27z" />
    <glyph glyph-name="Imacron" unicode="&#x12a;" horiz-adv-x="300" 
d="M223 626v-563c0 -37 -33 -68 -73 -68c-38 0 -73 32 -73 68v563c1 36 35 68 73 68c40 0 73 -31 73 -68zM50 839h201c26 0 46 -22 46 -49c0 -25 -21 -48 -46 -48h-201c-25 0 -46 23 -46 48c0 27 20 49 46 49z" />
    <glyph glyph-name="imacron" unicode="&#x12b;" horiz-adv-x="258" 
d="M199 410v-353c0 -35 -32 -62 -70 -62c-37 0 -69 28 -70 62v353c1 34 33 62 70 62c38 0 70 -27 70 -62zM29 653h201c26 0 46 -22 46 -49c0 -25 -21 -48 -46 -48h-201c-25 0 -46 23 -46 48c0 27 20 49 46 49z" />
    <glyph glyph-name="Iogonek" unicode="&#x12e;" horiz-adv-x="304" 
d="M154 -5c-19 0 -27 -10 -31 -23l-18 -62c-5 -17 5 -32 24 -32c9 0 21 9 23 19c4 17 19 35 47 32c27 -4 42 -26 37 -53c-13 -52 -61 -85 -107 -85c-79 0 -115 51 -115 106c0 14 4 34 18 60l49 87v582c1 36 35 68 73 68c40 0 73 -31 73 -68v-563c0 -37 -33 -68 -73 -68z" />
    <glyph glyph-name="iogonek" unicode="&#x12f;" horiz-adv-x="263" 
d="M47 640c0 46 40 81 87 81s85 -35 85 -81s-38 -82 -85 -82s-87 36 -87 82zM64 44l-49 -87c-14 -26 -18 -46 -18 -60c0 -55 36 -106 115 -106c46 0 94 33 107 85c5 27 -10 49 -37 53c-28 3 -43 -15 -47 -32c-2 -10 -14 -19 -23 -19c-19 0 -29 15 -24 32l19 61
c4 17 14 24 27 24c38 0 70 27 70 62v353c0 35 -32 62 -70 62c-37 0 -69 -28 -70 -62v-366z" />
    <glyph glyph-name="Idotaccent" unicode="&#x130;" horiz-adv-x="300" 
d="M223 626v-563c0 -37 -33 -68 -73 -68c-38 0 -73 32 -73 68v563c1 36 35 68 73 68c40 0 73 -31 73 -68zM73 814c0 42 34 74 77 74s77 -32 77 -74c0 -44 -34 -75 -77 -75s-77 31 -77 75z" />
    <glyph glyph-name="IJ" unicode="&#x132;" horiz-adv-x="604" 
d="M223 626v-563c0 -37 -33 -68 -73 -68c-38 0 -73 32 -73 68v563c1 36 35 68 73 68c40 0 73 -31 73 -68zM261 -93c19 -2 36 -2 39 -2c57 0 79 43 79 95v626c1 36 35 68 73 68c40 0 73 -31 73 -68v-626c0 -126 -61 -233 -226 -233c-11 0 -30 2 -52 7c-34 8 -59 36 -55 72
c3 36 34 64 69 61z" />
    <glyph glyph-name="ij" unicode="&#x133;" horiz-adv-x="520" 
d="M42 640c0 46 40 81 87 81s85 -35 85 -81s-38 -82 -85 -82s-87 36 -87 82zM199 410v-353c0 -35 -32 -62 -70 -62c-37 0 -69 28 -70 62v353c1 34 33 62 70 62c38 0 70 -27 70 -62zM303 640c0 46 40 81 87 81c48 0 86 -35 86 -81s-38 -82 -86 -82c-47 0 -87 36 -87 82z
M255 -103h3c51 0 61 41 61 74v439c1 34 33 62 70 62c38 0 70 -27 70 -62v-436c0 -124 -44 -203 -176 -203h-28c-36 0 -66 27 -66 64s31 61 66 62z" />
    <glyph glyph-name="Jcircumflex" unicode="&#x134;" horiz-adv-x="304" 
d="M-39 -93c19 -2 36 -2 39 -2c57 0 79 43 79 95v626c1 36 35 68 73 68c40 0 73 -31 73 -68v-626c0 -126 -61 -233 -226 -233c-11 0 -30 2 -52 7c-34 8 -59 36 -55 72c3 36 34 64 69 61zM134 888h38c41 0 63 -30 74 -47l52 -68c12 -17 0 -42 -27 -42c-15 0 -30 7 -60 28
l-58 46l-58 -46c-30 -21 -45 -28 -60 -28c-27 0 -39 25 -27 42l52 68c11 17 33 47 74 47z" />
    <glyph glyph-name="jcircumflex" unicode="&#x135;" horiz-adv-x="262" 
d="M-3 -103h3c51 0 61 41 61 74v439c1 34 33 62 70 62c38 0 70 -27 70 -62v-436c0 -124 -44 -203 -176 -203h-28c-36 0 -66 27 -66 64s31 61 66 62zM106 710h44c41 0 61 -34 73 -54l49 -87c12 -19 0 -48 -27 -48c-15 0 -32 4 -59 32l-58 61l-58 -61c-27 -28 -44 -32 -59 -32
c-27 0 -39 29 -27 48l49 87c12 20 32 54 73 54z" />
    <glyph glyph-name="kgreenlandic" unicode="&#x138;" horiz-adv-x="465" 
d="M271 242l152 -136c24 -21 20 -68 -7 -92c-25 -24 -68 -24 -92 0l-124 121v-75c0 -35 -32 -65 -71 -65c-36 0 -70 31 -70 65v347c1 34 34 65 70 65c39 0 71 -30 71 -65v-66l93 105c21 27 60 34 88 17c30 -20 43 -67 17 -93z" />
    <glyph glyph-name="Lacute" unicode="&#x139;" horiz-adv-x="496" 
d="M224 626v-498h199c33 0 60 -29 60 -64c0 -33 -28 -63 -60 -64h-287c-37 0 -58 28 -58 62v564c1 36 35 68 73 68c40 0 73 -31 73 -68zM133 732c-29 0 -43 23 -22 63l34 64c18 34 40 64 99 49c41 -10 64 -40 20 -83l-65 -59c-29 -28 -47 -34 -66 -34z" />
    <glyph glyph-name="lacute" unicode="&#x13a;" horiz-adv-x="262" 
d="M201 664v-607c0 -35 -32 -62 -70 -62c-37 0 -69 28 -70 62v607c1 34 33 62 70 62c38 0 70 -27 70 -62zM108 766c-29 0 -43 23 -22 63l34 64c18 34 40 64 99 49c41 -10 64 -40 20 -83l-65 -59c-29 -28 -47 -34 -66 -34z" />
    <glyph glyph-name="Lcaron" unicode="&#x13d;" horiz-adv-x="497" 
d="M223 128v498c0 37 -33 68 -73 68c-38 0 -72 -32 -73 -68v-564c0 -34 21 -62 58 -62h287c32 1 60 31 60 64c0 35 -27 64 -60 64h-199zM455 651c-11 -102 -68 -228 -143 -228c-21 0 -36 19 -20 45c25 40 44 112 44 156c0 25 3 44 22 57c34 27 103 22 97 -30z" />
    <glyph glyph-name="lcaron" unicode="&#x13e;" horiz-adv-x="348" 
d="M201 664v-607c0 -35 -32 -62 -70 -62c-37 0 -69 28 -70 62v607c1 34 33 62 70 62c38 0 70 -27 70 -62zM431 651c-11 -102 -68 -228 -143 -228c-21 0 -36 19 -20 45c25 40 44 112 44 156c0 25 3 44 22 57c34 27 103 22 97 -30z" />
    <glyph glyph-name="Ldot" unicode="&#x13f;" horiz-adv-x="496" 
d="M224 626v-498h199c33 0 60 -29 60 -64c0 -33 -28 -63 -60 -64h-287c-37 0 -58 28 -58 62v564c1 36 35 68 73 68c40 0 73 -31 73 -68zM273 318c0 46 37 79 81 79c45 0 83 -33 83 -79s-38 -79 -83 -79c-44 0 -81 33 -81 79z" />
    <glyph glyph-name="ldot" unicode="&#x140;" horiz-adv-x="404" 
d="M201 664v-607c0 -35 -32 -62 -70 -62c-37 0 -69 28 -70 62v607c1 34 33 62 70 62c38 0 70 -27 70 -62zM251 318c0 46 37 79 81 79c45 0 83 -33 83 -79s-38 -79 -83 -79c-44 0 -81 33 -81 79z" />
    <glyph glyph-name="Nacute" unicode="&#x143;" horiz-adv-x="670" 
d="M593 626v-558c0 -41 -30 -73 -65 -73h-13c-30 0 -55 10 -78 50l-214 372v-354c0 -37 -33 -68 -73 -68c-38 0 -73 32 -73 68v556c0 42 31 75 67 75h13c31 0 58 -10 81 -51l209 -366v349c0 36 35 68 73 68c40 0 73 -31 73 -68zM282 732c-29 0 -43 23 -22 63l34 64
c18 34 40 64 99 49c41 -10 64 -40 20 -83l-65 -59c-29 -28 -47 -34 -66 -34z" />
    <glyph glyph-name="nacute" unicode="&#x144;" horiz-adv-x="562" 
d="M199 410v-11c25 47 80 78 135 78c105 0 172 -65 172 -198v-222c0 -35 -32 -62 -70 -62c-37 0 -69 28 -70 62v192c0 62 -34 93 -81 93c-49 0 -86 -24 -86 -95v-190c0 -35 -32 -62 -70 -62c-37 0 -69 28 -70 62v353c1 34 33 62 70 62c38 0 70 -27 70 -62zM245 533
c-29 0 -34 31 -17 63l45 84c15 27 34 63 93 48c41 -10 63 -39 26 -84l-72 -74c-31 -31 -51 -37 -75 -37z" />
    <glyph glyph-name="Ncaron" unicode="&#x147;" horiz-adv-x="670" 
d="M593 626v-558c0 -41 -30 -73 -65 -73h-13c-30 0 -55 10 -78 50l-214 372v-354c0 -37 -33 -68 -73 -68c-38 0 -73 32 -73 68v556c0 42 31 75 67 75h13c31 0 58 -10 81 -51l209 -366v349c0 36 35 68 73 68c40 0 73 -31 73 -68zM346 735h-38c-41 0 -63 30 -74 47l-52 68
c-12 17 0 42 27 42c15 0 30 -7 60 -28l58 -46l58 46c30 21 45 28 60 28c27 0 39 -25 27 -42l-52 -68c-11 -17 -33 -47 -74 -47z" />
    <glyph glyph-name="ncaron" unicode="&#x148;" horiz-adv-x="562" 
d="M199 410v-11c25 47 80 78 135 78c105 0 172 -65 172 -198v-222c0 -35 -32 -62 -70 -62c-37 0 -69 28 -70 62v192c0 62 -34 93 -81 93c-49 0 -86 -24 -86 -95v-190c0 -35 -32 -62 -70 -62c-37 0 -69 28 -70 62v353c1 34 33 62 70 62c38 0 70 -27 70 -62zM302 521h-44
c-41 0 -61 34 -73 54l-49 87c-12 19 0 48 27 48c15 0 32 -4 59 -32l58 -61l58 61c27 28 44 32 59 32c27 0 39 -29 27 -48l-49 -87c-12 -20 -32 -54 -73 -54z" />
    <glyph glyph-name="napostrophe" unicode="&#x149;" horiz-adv-x="656" 
d="M293 410v-11c25 47 80 78 135 78c105 0 172 -65 172 -198v-222c0 -35 -32 -62 -70 -62c-37 0 -69 28 -70 62v192c0 62 -34 93 -81 93c-49 0 -86 -24 -86 -95v-190c0 -35 -32 -62 -70 -62c-37 0 -69 28 -70 62v353c1 34 33 62 70 62c38 0 70 -27 70 -62zM161 578
c0 -72 -65 -162 -131 -162c-18 0 -36 10 -36 25c0 7 1 17 18 35c33 38 32 70 32 95c0 44 26 62 58 62c33 0 59 -24 59 -55z" />
    <glyph glyph-name="Omacron" unicode="&#x14c;" horiz-adv-x="781" 
d="M187 343c0 115 86 212 203 212s204 -97 204 -212s-87 -210 -204 -210s-203 95 -203 210zM41 343c0 -194 154 -352 349 -352c196 0 350 158 350 352c0 196 -154 354 -350 354c-195 0 -349 -158 -349 -354zM290 839h201c26 0 46 -22 46 -49c0 -25 -21 -48 -46 -48h-201
c-25 0 -46 23 -46 48c0 27 20 49 46 49z" />
    <glyph glyph-name="omacron" unicode="&#x14d;" horiz-adv-x="563" 
d="M281 -9c136 0 246 97 246 244s-110 241 -246 241s-245 -94 -245 -241s109 -244 245 -244zM281 126c-57 0 -105 45 -105 109c0 63 48 106 105 106c58 0 106 -43 106 -106c0 -64 -48 -109 -106 -109zM181 653h201c26 0 46 -22 46 -49c0 -25 -21 -48 -46 -48h-201
c-25 0 -46 23 -46 48c0 27 20 49 46 49z" />
    <glyph glyph-name="Obreve" unicode="&#x14e;" horiz-adv-x="781" 
d="M187 343c0 -115 86 -210 203 -210s204 95 204 210s-87 212 -204 212s-203 -97 -203 -212zM41 343c0 196 154 354 349 354c196 0 350 -158 350 -354c0 -194 -154 -352 -350 -352c-195 0 -349 158 -349 352zM390 739c-79 0 -147 57 -147 127c0 26 16 44 41 44
c20 0 31 -11 38 -28c10 -25 27 -48 68 -48s58 23 68 48c7 17 18 28 38 28c25 0 41 -18 41 -44c0 -70 -68 -127 -147 -127z" />
    <glyph glyph-name="obreve" unicode="&#x14f;" horiz-adv-x="563" 
d="M281 -9c-136 0 -245 97 -245 244s109 241 245 241s246 -94 246 -241s-110 -244 -246 -244zM281 126c58 0 106 45 106 109c0 63 -48 106 -106 106c-57 0 -105 -43 -105 -106c0 -64 48 -109 105 -109zM281 544c-79 0 -147 57 -147 127c0 26 16 44 41 44c20 0 31 -11 38 -28
c10 -25 27 -48 68 -48s58 23 68 48c7 17 18 28 38 28c25 0 41 -18 41 -44c0 -70 -68 -127 -147 -127z" />
    <glyph glyph-name="Ohungarumlaut" unicode="&#x150;" horiz-adv-x="781" 
d="M187 343c0 115 86 212 203 212s204 -97 204 -212s-87 -210 -204 -210s-203 95 -203 210zM41 343c0 -194 154 -352 349 -352c196 0 350 158 350 352c0 196 -154 354 -350 354c-195 0 -349 -158 -349 -354zM415 858l-74 -95c-15 -19 -26 -24 -49 -24c-16 0 -27 9 -27 23
c0 6 3 16 6 21l50 95c9 17 18 30 37 36c21 8 57 -5 65 -25c2 -6 2 -17 -8 -31zM575 858l-73 -95c-15 -19 -27 -24 -49 -24c-17 0 -28 9 -28 23c0 6 3 16 6 21l50 95c9 17 18 29 37 36c22 8 57 -5 66 -25c2 -6 1 -17 -9 -31z" />
    <glyph glyph-name="ohungarumlaut" unicode="&#x151;" horiz-adv-x="563" 
d="M281 -9c136 0 246 97 246 244s-110 241 -246 241s-245 -94 -245 -241s109 -244 245 -244zM281 126c-57 0 -105 45 -105 109c0 63 48 106 105 106c58 0 106 -43 106 -106c0 -64 -48 -109 -106 -109zM306 661l-74 -95c-15 -19 -26 -24 -49 -24c-16 0 -27 9 -27 23
c0 6 3 16 6 21l50 95c9 17 18 30 37 36c21 8 57 -5 65 -25c2 -6 2 -17 -8 -31zM466 661l-73 -95c-15 -19 -27 -24 -49 -24c-17 0 -28 9 -28 23c0 6 3 16 6 21l50 95c9 17 18 29 37 36c22 8 57 -5 66 -25c2 -6 1 -17 -9 -31z" />
    <glyph glyph-name="Racute" unicode="&#x154;" horiz-adv-x="629" 
d="M358 560h-135v-194h131c57 0 87 52 87 97c0 43 -28 97 -83 97zM587 467c-3 -90 -53 -176 -155 -206l112 -161c20 -30 7 -75 -27 -95c-32 -19 -76 -10 -95 20l-132 218h-67v-180c0 -37 -33 -68 -73 -68c-38 0 -73 32 -73 68v551c1 41 26 75 70 75h211
c154 0 227 -110 229 -222zM257 732c-29 0 -43 23 -22 63l34 64c18 34 40 64 99 49c41 -10 64 -40 20 -83l-65 -59c-29 -28 -47 -34 -66 -34z" />
    <glyph glyph-name="racute" unicode="&#x155;" horiz-adv-x="413" 
d="M322 476c46 0 95 -11 86 -77c-5 -35 -38 -51 -69 -51c-10 0 -25 1 -34 1c-78 0 -104 -60 -106 -177v-115c0 -35 -32 -62 -70 -62c-37 0 -69 28 -70 62v353c1 34 33 62 70 62c38 0 70 -27 70 -62v-51c26 87 75 117 123 117zM118 533c-29 0 -34 31 -17 63l45 84
c15 27 34 63 93 48c41 -10 63 -39 26 -84l-72 -74c-31 -31 -51 -37 -75 -37z" />
    <glyph glyph-name="Rcaron" unicode="&#x158;" horiz-adv-x="629" 
d="M358 560h-135v-194h131c57 0 87 52 87 97c0 43 -28 97 -83 97zM587 467c-3 -90 -53 -176 -155 -206l112 -161c20 -30 7 -75 -27 -95c-32 -19 -76 -10 -95 20l-132 218h-67v-180c0 -37 -33 -68 -73 -68c-38 0 -73 32 -73 68v551c1 41 26 75 70 75h211
c154 0 227 -110 229 -222zM307 735h-38c-41 0 -63 30 -74 47l-52 68c-12 17 0 42 27 42c15 0 30 -7 60 -28l58 -46l58 46c30 21 45 28 60 28c27 0 39 -25 27 -42l-52 -68c-11 -17 -33 -47 -74 -47z" />
    <glyph glyph-name="rcaron" unicode="&#x159;" horiz-adv-x="413" 
d="M322 476c46 0 95 -11 86 -77c-5 -35 -38 -51 -69 -51c-10 0 -25 1 -34 1c-78 0 -104 -60 -106 -177v-115c0 -35 -32 -62 -70 -62c-37 0 -69 28 -70 62v353c1 34 33 62 70 62c38 0 70 -27 70 -62v-51c26 87 75 117 123 117zM230 521h-44c-41 0 -61 34 -73 54l-49 87
c-12 19 0 48 27 48c15 0 32 -4 59 -32l58 -61l58 61c27 28 44 32 59 32c27 0 39 -29 27 -48l-49 -87c-12 -20 -32 -54 -73 -54z" />
    <glyph glyph-name="Sacute" unicode="&#x15a;" horiz-adv-x="573" 
d="M260 732c-29 0 -43 23 -22 63l34 64c18 34 40 64 99 49c41 -10 64 -40 20 -83l-65 -59c-29 -28 -47 -34 -66 -34zM50 139c-11 35 5 69 39 82c39 15 76 -6 90 -35c15 -31 49 -65 111 -65c59 0 100 28 101 73c1 31 -13 58 -83 78l-83 23c-152 47 -178 134 -178 196
c0 123 105 206 237 206c99 0 173 -43 210 -115c17 -33 3 -65 -22 -81c-36 -23 -68 -13 -92 17c-29 37 -67 48 -98 48c-51 0 -89 -30 -89 -71c0 -18 7 -51 74 -70l82 -24c167 -48 191 -142 189 -208c-2 -137 -126 -202 -248 -202s-210 59 -240 148z" />
    <glyph glyph-name="sacute" unicode="&#x15b;" horiz-adv-x="460" 
d="M38 90c-10 29 2 60 25 70c31 14 60 1 75 -17c25 -27 55 -41 88 -41c31 0 60 5 60 29c0 20 -12 27 -46 38l-53 19c-140 47 -139 113 -139 156c0 69 83 133 181 133c67 0 136 -21 168 -77c17 -30 9 -59 -12 -71c-31 -18 -60 -11 -89 11c-20 15 -38 21 -56 21
c-30 0 -51 -10 -51 -28c0 -15 12 -24 40 -33l71 -24c113 -37 127 -110 127 -140c0 -99 -104 -146 -202 -146c-75 0 -163 31 -187 100zM198 533c-29 0 -34 31 -17 63l45 84c15 27 34 63 93 48c41 -10 63 -39 26 -84l-72 -74c-31 -31 -51 -37 -75 -37z" />
    <glyph glyph-name="Scircumflex" unicode="&#x15c;" horiz-adv-x="573" 
d="M268 888h38c41 0 63 -30 74 -47l52 -68c12 -17 0 -42 -27 -42c-15 0 -30 7 -60 28l-58 46l-58 -46c-30 -21 -45 -28 -60 -28c-27 0 -39 25 -27 42l52 68c11 17 33 47 74 47zM50 139c30 -89 118 -148 240 -148s246 65 248 202c2 66 -22 160 -189 208l-82 24
c-67 19 -74 52 -74 70c0 41 38 71 89 71c31 0 69 -11 98 -48c24 -30 56 -40 92 -17c25 16 39 48 22 81c-37 72 -111 115 -210 115c-132 0 -237 -83 -237 -206c0 -62 26 -149 178 -196l83 -23c70 -20 84 -47 83 -78c-1 -45 -42 -73 -101 -73c-62 0 -96 34 -111 65
c-14 29 -51 50 -90 35c-34 -13 -50 -47 -39 -82z" />
    <glyph glyph-name="scircumflex" unicode="&#x15d;" horiz-adv-x="460" 
d="M38 90c24 -69 112 -100 187 -100c98 0 202 47 202 146c0 30 -14 103 -127 140l-71 24c-28 9 -40 18 -40 33c0 18 21 28 51 28c18 0 36 -6 56 -21c29 -22 58 -29 89 -11c21 12 29 41 12 71c-32 56 -101 77 -168 77c-98 0 -181 -64 -181 -133c0 -43 -1 -109 139 -156
l53 -19c34 -11 46 -18 46 -38c0 -24 -29 -29 -60 -29c-33 0 -63 14 -88 41c-15 18 -44 31 -75 17c-23 -10 -35 -41 -25 -70zM209 710h44c41 0 61 -34 73 -54l49 -87c12 -19 0 -48 -27 -48c-15 0 -32 4 -59 32l-58 61l-58 -61c-27 -28 -44 -32 -59 -32c-27 0 -39 29 -27 48
l49 87c12 20 32 54 73 54z" />
    <glyph glyph-name="scedilla" unicode="&#x15f;" horiz-adv-x="460" 
d="M38 90c-10 29 2 60 25 70c31 14 60 1 75 -17c25 -27 55 -41 88 -41c31 0 60 5 60 29c0 20 -12 27 -46 38l-53 19c-140 47 -139 113 -139 156c0 69 83 133 181 133c67 0 136 -21 168 -77c17 -30 9 -59 -12 -71c-31 -18 -60 -11 -89 11c-20 15 -38 21 -56 21
c-30 0 -51 -10 -51 -28c0 -15 12 -24 40 -33l71 -24c113 -37 127 -110 127 -140c0 -77 -63 -123 -138 -139l23 -40c14 -26 18 -46 18 -60c0 -55 -36 -106 -115 -106c-46 0 -94 33 -107 85c-5 27 10 49 37 53c28 3 43 -15 47 -32c2 -10 14 -19 23 -19c19 0 29 15 24 32
l-24 80c-73 3 -154 34 -177 100z" />
    <glyph glyph-name="Scedilla" unicode="&#x15e;" horiz-adv-x="573" 
d="M50 139c-11 35 5 69 39 82c39 15 76 -6 90 -35c15 -31 49 -65 111 -65c59 0 100 28 101 73c1 31 -13 58 -83 78l-83 23c-152 47 -178 134 -178 196c0 123 105 206 237 206c99 0 173 -43 210 -115c17 -33 3 -65 -22 -81c-36 -23 -68 -13 -92 17c-29 37 -67 48 -98 48
c-51 0 -89 -30 -89 -71c0 -18 7 -51 74 -70l82 -24c167 -48 191 -142 189 -208c-2 -115 -89 -179 -189 -197l22 -39c14 -26 18 -46 18 -60c0 -55 -36 -106 -115 -106c-46 0 -94 33 -107 85c-5 27 10 49 37 53c28 3 43 -15 47 -32c2 -10 14 -19 23 -19c19 0 29 15 24 32
l-25 82c-113 5 -195 62 -223 147z" />
    <glyph glyph-name="Utilde" unicode="&#x168;" horiz-adv-x="680" 
d="M339 -9h2c-142 0 -268 100 -268 256v379c1 36 35 68 73 68c40 0 73 -31 73 -68v-379c0 -71 60 -118 122 -118c60 0 120 47 120 118v379c0 37 33 68 73 68c38 0 72 -32 73 -68v-379c0 -156 -126 -256 -268 -256zM319 759c-9 7 -18 13 -25 13c-8 0 -17 -6 -19 -19
c-2 -10 -6 -22 -25 -27c-17 -5 -38 5 -46 20c-3 6 -3 15 -2 22c12 64 55 84 92 84c28 0 47 -14 61 -25c9 -7 18 -13 26 -13s16 6 18 19c2 10 5 23 26 27c16 4 39 -5 46 -20c3 -6 3 -16 2 -22c-12 -64 -56 -84 -92 -84c-29 0 -47 14 -62 25z" />
    <glyph glyph-name="utilde" unicode="&#x169;" horiz-adv-x="562" 
d="M363 57v11c-25 -47 -80 -77 -135 -77c-105 0 -172 52 -172 185v234c0 35 32 62 70 62c37 0 69 -28 70 -62v-192c0 -62 23 -92 81 -92c49 0 86 23 86 94v190c0 35 32 62 70 62c37 0 69 -28 70 -62v-353c-1 -34 -33 -62 -70 -62c-38 0 -70 27 -70 62zM262 584
c-9 8 -18 15 -25 15c-8 0 -17 -7 -19 -21c-2 -11 -6 -24 -25 -30c-17 -5 -38 6 -46 22c-3 7 -3 17 -2 24c12 70 55 92 92 92c28 0 46 -15 60 -27c9 -8 18 -15 26 -15s16 7 18 21c2 11 5 25 26 30c16 4 39 -6 46 -22c3 -7 3 -18 2 -24c-12 -70 -56 -92 -92 -92
c-29 0 -46 15 -61 27z" />
    <glyph glyph-name="Umacron" unicode="&#x16a;" horiz-adv-x="680" 
d="M341 -9h-2c142 0 268 100 268 256v379c-1 36 -35 68 -73 68c-40 0 -73 -31 -73 -68v-379c0 -71 -60 -118 -120 -118c-62 0 -122 47 -122 118v379c0 37 -33 68 -73 68c-38 0 -72 -32 -73 -68v-379c0 -156 126 -256 268 -256zM239 839h201c26 0 46 -22 46 -49
c0 -25 -21 -48 -46 -48h-201c-25 0 -46 23 -46 48c0 27 20 49 46 49z" />
    <glyph glyph-name="umacron" unicode="&#x16b;" horiz-adv-x="562" 
d="M363 57v11c-25 -47 -80 -77 -135 -77c-105 0 -172 52 -172 185v234c0 35 32 62 70 62c37 0 69 -28 70 -62v-192c0 -62 23 -92 81 -92c49 0 86 23 86 94v190c0 35 32 62 70 62c37 0 69 -28 70 -62v-353c-1 -34 -33 -62 -70 -62c-38 0 -70 27 -70 62zM179 653h201
c26 0 46 -22 46 -49c0 -25 -21 -48 -46 -48h-201c-25 0 -46 23 -46 48c0 27 20 49 46 49z" />
    <glyph glyph-name="Ubreve" unicode="&#x16c;" horiz-adv-x="680" 
d="M339 -9h2c-142 0 -268 100 -268 256v379c1 36 35 68 73 68c40 0 73 -31 73 -68v-379c0 -71 60 -118 122 -118c60 0 120 47 120 118v379c0 37 33 68 73 68c38 0 72 -32 73 -68v-379c0 -156 -126 -256 -268 -256zM340 739c-79 0 -147 57 -147 127c0 26 16 44 41 44
c20 0 31 -11 38 -28c10 -25 27 -48 68 -48s58 23 68 48c7 17 18 28 38 28c25 0 41 -18 41 -44c0 -70 -68 -127 -147 -127z" />
    <glyph glyph-name="ubreve" unicode="&#x16d;" horiz-adv-x="562" 
d="M363 57v11c-25 -47 -80 -77 -135 -77c-105 0 -172 52 -172 185v234c0 35 32 62 70 62c37 0 69 -28 70 -62v-192c0 -62 23 -92 81 -92c49 0 86 23 86 94v190c0 35 32 62 70 62c37 0 69 -28 70 -62v-353c-1 -34 -33 -62 -70 -62c-38 0 -70 27 -70 62zM280 544
c-79 0 -147 57 -147 127c0 26 16 44 41 44c20 0 31 -11 38 -28c10 -25 27 -48 68 -48s58 23 68 48c7 17 18 28 38 28c25 0 41 -18 41 -44c0 -70 -68 -127 -147 -127z" />
    <glyph glyph-name="Uring" unicode="&#x16e;" horiz-adv-x="680" 
d="M341 -9h-2c142 0 268 100 268 256v379c-1 36 -35 68 -73 68c-40 0 -73 -31 -73 -68v-379c0 -71 -60 -118 -120 -118c-62 0 -122 47 -122 118v379c0 37 -33 68 -73 68c-38 0 -72 -32 -73 -68v-379c0 -156 126 -256 268 -256zM219 852c0 69 53 123 120 123
c68 0 122 -54 122 -123c0 -67 -54 -120 -122 -120c-67 0 -120 53 -120 120zM284 852c0 -31 24 -55 55 -55c32 0 57 24 57 55c0 33 -25 58 -57 58c-31 0 -55 -25 -55 -58z" />
    <glyph glyph-name="uring" unicode="&#x16f;" horiz-adv-x="562" 
d="M363 57v11c-25 -47 -80 -77 -135 -77c-105 0 -172 52 -172 185v234c0 35 32 62 70 62c37 0 69 -28 70 -62v-192c0 -62 23 -92 81 -92c49 0 86 23 86 94v190c0 35 32 62 70 62c37 0 69 -28 70 -62v-353c-1 -34 -33 -62 -70 -62c-38 0 -70 27 -70 62zM159 644
c0 69 53 123 120 123c68 0 122 -54 122 -123c0 -67 -54 -120 -122 -120c-67 0 -120 53 -120 120zM224 644c0 -31 24 -55 55 -55c32 0 57 24 57 55c0 33 -25 58 -57 58c-31 0 -55 -25 -55 -58z" />
    <glyph glyph-name="Uhungarumlaut" unicode="&#x170;" horiz-adv-x="680" 
d="M341 -9h-2c142 0 268 100 268 256v379c-1 36 -35 68 -73 68c-40 0 -73 -31 -73 -68v-379c0 -71 -60 -118 -120 -118c-62 0 -122 47 -122 118v379c0 37 -33 68 -73 68c-38 0 -72 -32 -73 -68v-379c0 -156 126 -256 268 -256zM364 858l-74 -95c-15 -19 -26 -24 -49 -24
c-16 0 -27 9 -27 23c0 6 3 16 6 21l50 95c9 17 18 30 37 36c21 8 57 -5 65 -25c2 -6 2 -17 -8 -31zM524 858l-73 -95c-15 -19 -27 -24 -49 -24c-17 0 -28 9 -28 23c0 6 3 16 6 21l50 95c9 17 18 29 37 36c22 8 57 -5 66 -25c2 -6 1 -17 -9 -31z" />
    <glyph glyph-name="uhungarumlaut" unicode="&#x171;" horiz-adv-x="562" 
d="M363 57v11c-25 -47 -80 -77 -135 -77c-105 0 -172 52 -172 185v234c0 35 32 62 70 62c37 0 69 -28 70 -62v-192c0 -62 23 -92 81 -92c49 0 86 23 86 94v190c0 35 32 62 70 62c37 0 69 -28 70 -62v-353c-1 -34 -33 -62 -70 -62c-38 0 -70 27 -70 62zM290 661l-74 -95
c-15 -19 -26 -24 -49 -24c-16 0 -27 9 -27 23c0 6 3 16 6 21l50 95c9 17 18 30 37 36c21 8 57 -5 65 -25c2 -6 2 -17 -8 -31zM450 661l-73 -95c-15 -19 -27 -24 -49 -24c-17 0 -28 9 -28 23c0 6 3 16 6 21l50 95c9 17 18 29 37 36c22 8 57 -5 66 -25c2 -6 1 -17 -9 -31z" />
    <glyph glyph-name="Uogonek" unicode="&#x172;" horiz-adv-x="680" 
d="M385 -5l-25 -85c-5 -17 5 -32 24 -32c9 0 21 9 23 19c4 17 19 35 47 32c27 -4 42 -26 37 -53c-13 -52 -61 -85 -107 -85c-79 0 -115 51 -115 106c0 14 4 34 18 60l20 36c-128 14 -234 110 -234 254v379c1 36 35 68 73 68c40 0 73 -31 73 -68v-379c0 -71 60 -118 122 -118
c60 0 120 47 120 118v379c0 37 33 68 73 68c38 0 72 -32 73 -68v-379c0 -139 -100 -234 -222 -252z" />
    <glyph glyph-name="uogonek" unicode="&#x173;" horiz-adv-x="562" 
d="M363 44v24c-25 -47 -80 -77 -135 -77c-105 0 -172 52 -172 185v234c0 35 32 62 70 62c37 0 69 -28 70 -62v-192c0 -62 23 -92 81 -92c49 0 86 23 86 94v190c0 35 32 62 70 62c37 0 69 -28 70 -62v-353c0 -35 -32 -62 -70 -62c-13 0 -23 -7 -27 -24l-19 -61
c-5 -17 5 -32 24 -32c9 0 21 9 23 19c4 17 19 35 47 32c27 -4 42 -26 37 -53c-13 -52 -61 -85 -107 -85c-79 0 -115 51 -115 106c0 14 4 34 18 60z" />
    <glyph glyph-name="Wcircumflex" unicode="&#x174;" horiz-adv-x="882" 
d="M444 602h-6c-35 0 -58 -18 -66 -48l-82 -299l-125 394c-11 34 -55 52 -91 42c-38 -11 -59 -54 -47 -89l186 -551c11 -34 36 -56 68 -56h10c33 0 60 23 69 56l81 311l81 -311c9 -33 36 -56 69 -56h10c32 0 57 22 68 56l186 551c12 35 -9 78 -47 89c-36 10 -80 -8 -91 -42
l-125 -394l-82 299c-8 30 -31 48 -66 48zM421 888h38c41 0 63 -30 74 -47l52 -68c12 -17 0 -42 -27 -42c-15 0 -30 7 -60 28l-58 46l-58 -46c-30 -21 -45 -28 -60 -28c-27 0 -39 25 -27 42l52 68c11 17 33 47 74 47z" />
    <glyph glyph-name="wcircumflex" unicode="&#x175;" horiz-adv-x="737" 
d="M509 189l-67 227c-11 38 -35 56 -70 56h-8c-35 0 -60 -18 -71 -56l-67 -227l-73 240c-8 31 -44 52 -88 40c-34 -9 -53 -51 -41 -83l122 -337c13 -34 39 -54 73 -54h6c34 0 59 20 70 54l73 248l76 -248c10 -34 36 -54 70 -54h6c34 0 61 20 73 54l118 337
c12 32 -7 74 -41 83c-44 12 -80 -9 -88 -40zM346 710h44c41 0 61 -34 73 -54l49 -87c12 -19 0 -48 -27 -48c-15 0 -32 4 -59 32l-58 61l-58 -61c-27 -28 -44 -32 -59 -32c-27 0 -39 29 -27 48l49 87c12 20 32 54 73 54z" />
    <glyph glyph-name="Ycircumflex" unicode="&#x176;" horiz-adv-x="599" 
d="M568 586l-196 -276v-247c0 -37 -33 -68 -73 -68c-38 0 -73 32 -73 68v249l-194 274c-19 29 -10 74 20 95c31 21 75 16 95 -13l152 -237l154 237c19 29 64 34 95 13c30 -21 39 -66 20 -95zM278 888h38c41 0 63 -30 74 -47l52 -68c12 -17 0 -42 -27 -42c-15 0 -30 7 -60 28
l-58 46l-58 -46c-30 -21 -45 -28 -60 -28c-27 0 -39 25 -27 42l52 68c11 17 33 47 74 47z" />
    <glyph glyph-name="ycircumflex" unicode="&#x177;" horiz-adv-x="482" 
d="M219 -191l239 577c13 36 -7 74 -41 83c-44 11 -76 -9 -87 -40l-90 -228l-88 228c-11 31 -43 51 -87 40c-34 -9 -54 -47 -41 -83l145 -338l-78 -194c-14 -36 6 -76 40 -84c43 -10 75 8 88 39zM219 710h44c41 0 61 -34 73 -54l49 -87c12 -19 0 -48 -27 -48
c-15 0 -32 4 -59 32l-58 61l-58 -61c-27 -28 -44 -32 -59 -32c-27 0 -39 29 -27 48l49 87c12 20 32 54 73 54z" />
    <glyph glyph-name="Tcaron" unicode="&#x164;" horiz-adv-x="558" 
d="M484 560h-132v-497c0 -37 -33 -68 -73 -68c-38 0 -73 32 -73 68v497h-132c-31 0 -60 31 -60 64c0 36 27 65 60 65h410c33 0 60 -29 60 -65c0 -33 -29 -64 -60 -64zM301 735h-38c-41 0 -63 30 -74 47l-52 68c-12 17 0 42 27 42c15 0 30 -7 60 -28l58 -46l58 46
c30 21 45 28 60 28c27 0 39 -25 27 -42l-52 -68c-11 -17 -33 -47 -74 -47z" />
    <glyph glyph-name="tcaron" unicode="&#x165;" horiz-adv-x="353" 
d="M62 467h38v122c1 34 33 62 70 62c38 0 70 -27 70 -62v-122h53c28 0 50 -25 50 -55c0 -29 -22 -54 -50 -55h-53v-300c0 -35 -32 -62 -70 -62c-37 0 -69 28 -70 62v300h-38c-28 1 -50 26 -50 55c0 30 22 55 50 55zM453 737c-11 -102 -68 -205 -136 -205
c-21 0 -36 19 -20 45c25 40 44 89 44 133c0 25 3 44 22 57c34 27 96 22 90 -30z" />
    <glyph glyph-name="Tbar" unicode="&#x166;" horiz-adv-x="558" 
d="M352 560h132c31 0 60 31 60 64c0 36 -27 65 -60 65h-410c-33 0 -60 -29 -60 -65c0 -33 29 -64 60 -64h132v-497c0 -36 35 -68 73 -68c40 0 73 31 73 68v497zM178 839h201c26 0 46 -22 46 -49c0 -25 -21 -48 -46 -48h-201c-25 0 -46 23 -46 48c0 27 20 49 46 49z" />
    <glyph glyph-name="tbar" unicode="&#x167;" horiz-adv-x="353" 
d="M279 183h-39v-126c0 -35 -32 -62 -70 -62c-37 0 -69 28 -70 62v126h-22c-20 0 -35 18 -35 38c0 21 15 39 35 39h22v97h-38c-28 1 -50 26 -50 55c0 30 22 55 50 55h38v122c1 34 33 62 70 62c38 0 70 -27 70 -62v-122h53c28 0 50 -25 50 -55c0 -29 -22 -54 -50 -55h-53v-97
h39c20 0 35 -18 35 -39c0 -20 -15 -38 -35 -38z" />
    <glyph glyph-name="Zacute" unicode="&#x179;" horiz-adv-x="586" 
d="M54 145l293 415h-230c-32 0 -60 31 -60 64c0 36 27 65 60 65h360c34 0 65 -27 65 -60v-7c0 -29 -14 -56 -29 -78l-297 -416h276c33 0 60 -28 60 -64c0 -33 -28 -64 -60 -64h-402c-34 0 -64 27 -64 60v7c0 29 13 56 28 78zM264 732c-29 0 -43 23 -22 63l34 64
c18 34 40 64 99 49c41 -10 64 -40 20 -83l-65 -59c-29 -28 -47 -34 -66 -34z" />
    <glyph glyph-name="zacute" unicode="&#x17a;" horiz-adv-x="499" 
d="M428 337l-192 -209h169c31 0 60 -30 60 -64c0 -35 -28 -64 -60 -64h-304c-31 0 -65 20 -65 60v3c0 22 8 46 28 67l192 209h-154c-31 0 -60 30 -60 64c0 35 28 64 60 64h289c31 0 65 -20 65 -60v-3c0 -22 -8 -46 -28 -67zM212 533c-29 0 -34 31 -17 63l45 84
c15 27 34 63 93 48c41 -10 63 -39 26 -84l-72 -74c-31 -31 -51 -37 -75 -37z" />
    <glyph glyph-name="Zdotaccent" unicode="&#x17b;" horiz-adv-x="586" 
d="M54 145l293 415h-230c-32 0 -60 31 -60 64c0 36 27 65 60 65h360c34 0 65 -27 65 -60v-7c0 -29 -14 -56 -29 -78l-297 -416h276c33 0 60 -28 60 -64c0 -33 -28 -64 -60 -64h-402c-34 0 -64 27 -64 60v7c0 29 13 56 28 78zM220 814c0 42 34 74 77 74s77 -32 77 -74
c0 -44 -34 -75 -77 -75s-77 31 -77 75z" />
    <glyph glyph-name="zdotaccent" unicode="&#x17c;" horiz-adv-x="499" 
d="M236 128l192 209c20 21 28 45 28 67v3c0 40 -34 60 -65 60h-289c-32 0 -60 -29 -60 -64c0 -34 29 -64 60 -64h154l-192 -209c-20 -21 -28 -45 -28 -67v-3c0 -40 34 -60 65 -60h304c32 0 60 29 60 64c0 34 -29 64 -60 64h-169zM176 626c0 42 34 74 77 74s77 -32 77 -74
c0 -44 -34 -75 -77 -75s-77 31 -77 75z" />
    <glyph glyph-name="longs" unicode="&#x17f;" horiz-adv-x="326" 
d="M245 504v-447c0 -35 -32 -62 -70 -62c-37 0 -69 28 -70 62v300h-44c-28 1 -50 26 -50 55c0 30 22 55 50 55h44v32c0 143 71 222 205 222h12c36 0 64 -29 64 -64c0 -34 -29 -63 -64 -64h-12c-48 0 -65 -34 -65 -89z" />
    <glyph glyph-name="Wgrave" unicode="&#x1e80;" horiz-adv-x="882" 
d="M444 602h-6c-35 0 -58 -18 -66 -48l-82 -299l-125 394c-11 34 -55 52 -91 42c-38 -11 -59 -54 -47 -89l186 -551c11 -34 36 -56 68 -56h10c33 0 60 23 69 56l81 311l81 -311c9 -33 36 -56 69 -56h10c32 0 57 22 68 56l186 551c12 35 -9 78 -47 89c-36 10 -80 -8 -91 -42
l-125 -394l-82 299c-8 30 -31 48 -66 48zM441 732c-19 0 -37 6 -66 34l-65 59c-44 43 -21 73 20 83c59 15 81 -15 99 -49l34 -64c21 -40 7 -63 -22 -63z" />
    <glyph glyph-name="wgrave" unicode="&#x1e81;" horiz-adv-x="737" 
d="M509 189l-67 227c-11 38 -35 56 -70 56h-8c-35 0 -60 -18 -71 -56l-67 -227l-73 240c-8 31 -44 52 -88 40c-34 -9 -53 -51 -41 -83l122 -337c13 -34 39 -54 73 -54h6c34 0 59 20 70 54l73 248l76 -248c10 -34 36 -54 70 -54h6c34 0 61 20 73 54l118 337
c12 32 -7 74 -41 83c-44 12 -80 -9 -88 -40zM380 533c-24 0 -44 6 -75 37l-72 74c-37 45 -15 74 26 84c59 15 78 -21 93 -48l45 -84c17 -32 12 -63 -17 -63z" />
    <glyph glyph-name="Wacute" unicode="&#x1e82;" horiz-adv-x="882" 
d="M444 602c35 0 58 -18 66 -48l82 -299l125 394c11 34 55 52 91 42c38 -11 59 -54 47 -89l-186 -551c-11 -34 -36 -56 -68 -56h-10c-33 0 -60 23 -69 56l-81 311l-81 -311c-9 -33 -36 -56 -69 -56h-10c-32 0 -57 22 -68 56l-186 551c-12 35 9 78 47 89c36 10 80 -8 91 -42
l125 -394l82 299c8 30 31 48 66 48h6zM408 732c-29 0 -43 23 -22 63l34 64c18 34 40 64 99 49c41 -10 64 -40 20 -83l-65 -59c-29 -28 -47 -34 -66 -34z" />
    <glyph glyph-name="wacute" unicode="&#x1e83;" horiz-adv-x="737" 
d="M442 416l67 -227l73 240c8 31 44 52 88 40c34 -9 53 -51 41 -83l-118 -337c-12 -34 -39 -54 -73 -54h-6c-34 0 -60 20 -70 54l-76 248l-73 -248c-11 -34 -36 -54 -70 -54h-6c-34 0 -60 20 -73 54l-122 337c-12 32 7 74 41 83c44 12 80 -9 88 -40l73 -240l67 227
c11 38 36 56 71 56h8c35 0 59 -18 70 -56zM349 533c-29 0 -34 31 -17 63l45 84c15 27 34 63 93 48c41 -10 63 -39 26 -84l-72 -74c-31 -31 -51 -37 -75 -37z" />
    <glyph glyph-name="Wdieresis" unicode="&#x1e84;" horiz-adv-x="882" 
d="M444 602h-6c-35 0 -58 -18 -66 -48l-82 -299l-125 394c-11 34 -55 52 -91 42c-38 -11 -59 -54 -47 -89l186 -551c11 -34 36 -56 68 -56h10c33 0 60 23 69 56l81 311l81 -311c9 -33 36 -56 69 -56h10c32 0 57 22 68 56l186 551c12 35 -9 78 -47 89c-36 10 -80 -8 -91 -42
l-125 -394l-82 299c-8 30 -31 48 -66 48zM272 801c0 38 33 68 73 68c39 0 71 -30 71 -68c0 -39 -32 -69 -71 -69c-40 0 -73 30 -73 69zM467 801c0 38 33 68 73 68c39 0 71 -30 71 -68c0 -39 -32 -69 -71 -69c-40 0 -73 30 -73 69z" />
    <glyph glyph-name="wdieresis" unicode="&#x1e85;" horiz-adv-x="737" 
d="M509 189l-67 227c-11 38 -35 56 -70 56h-8c-35 0 -60 -18 -71 -56l-67 -227l-73 240c-8 31 -44 52 -88 40c-34 -9 -53 -51 -41 -83l122 -337c13 -34 39 -54 73 -54h6c34 0 59 20 70 54l73 248l76 -248c10 -34 36 -54 70 -54h6c34 0 61 20 73 54l118 337
c12 32 -7 74 -41 83c-44 12 -80 -9 -88 -40zM199 613c0 38 33 68 73 68c39 0 71 -30 71 -68c0 -39 -32 -69 -71 -69c-40 0 -73 30 -73 69zM394 613c0 38 33 68 73 68c39 0 71 -30 71 -68c0 -39 -32 -69 -71 -69c-40 0 -73 30 -73 69z" />
    <glyph glyph-name="estimated" unicode="&#x212e;" horiz-adv-x="642" 
d="M601 279h-429v-193c42 -40 92 -63 152 -63c112 0 165 59 210 127l31 -19c-52 -81 -116 -141 -241 -141c-163 0 -271 133 -271 290c0 159 104 290 275 290c170 0 273 -134 273 -291zM481 312v163c-36 33 -95 62 -153 62c-60 0 -116 -21 -156 -62v-163h309z" />
    <glyph glyph-name="greaterequal" unicode="&#x2265;" horiz-adv-x="640" 
d="M588 359v-6c0 -29 -16 -56 -47 -69l-401 -137c-26 -9 -56 7 -66 32c-9 27 3 57 28 68l332 109l-332 110c-25 11 -37 41 -28 68c10 25 40 40 66 32l401 -137c31 -13 47 -40 47 -70zM531 0h-413c-27 0 -47 25 -47 52c0 28 20 52 47 52h413c26 0 46 -24 46 -52
c0 -27 -21 -52 -46 -52z" />
    <glyph glyph-name="lessequal" unicode="&#x2264;" horiz-adv-x="640" 
d="M53 353v6c0 30 16 57 47 70l401 137c26 8 56 -7 66 -32c9 -27 -3 -57 -28 -68l-332 -110l332 -109c25 -11 37 -41 28 -68c-10 -25 -40 -41 -66 -32l-401 137c-31 13 -47 40 -47 69zM110 0c-25 0 -46 25 -46 52c0 28 20 52 46 52h413c27 0 47 -24 47 -52
c0 -27 -20 -52 -47 -52h-413z" />
    <glyph glyph-name="notequal" unicode="&#x2260;" horiz-adv-x="628" 
d="M164 87l29 62h-70c-25 0 -45 24 -45 51c0 28 19 51 45 51h117l44 95h-161c-25 0 -45 24 -45 51c0 28 19 51 45 51h208l39 83c9 16 29 22 47 13s26 -29 18 -46l-24 -50h93c26 0 45 -23 45 -51c0 -27 -20 -51 -45 -51h-140l-44 -95h184c26 0 45 -23 45 -51
c0 -27 -20 -51 -45 -51h-232l-43 -94c-8 -17 -30 -22 -48 -13c-17 8 -26 28 -17 45z" />
    <glyph glyph-name="Aringacute" unicode="&#x1fa;" horiz-adv-x="640" 
d="M438 163h-236l-47 -126c-13 -34 -55 -50 -92 -38c-36 12 -56 57 -44 91l199 536c16 42 48 68 99 68h6c51 0 83 -26 99 -68l199 -536c12 -34 -8 -79 -44 -91c-37 -12 -79 4 -92 38zM250 290h140l-70 240zM420 1002l-33 -53c32 -22 53 -59 53 -101
c0 -67 -54 -120 -122 -120c-67 0 -120 53 -120 120c0 56 35 103 85 118l13 46c8 30 20 69 81 67c42 -1 70 -25 43 -77zM263 848c0 -31 24 -55 55 -55c32 0 57 24 57 55c0 33 -25 58 -57 58c-31 0 -55 -25 -55 -58z" />
    <glyph glyph-name="aringacute" unicode="&#x1fb;" horiz-adv-x="603" 
d="M404 401v9c1 34 33 62 70 62c38 0 70 -27 70 -62v-353c0 -35 -32 -62 -70 -62c-37 0 -69 28 -70 62v9c-30 -49 -87 -75 -140 -75c-119 0 -227 88 -227 243s108 242 227 242c30 0 100 -13 140 -75zM392 791l-33 -53c32 -22 53 -59 53 -101c0 -67 -54 -120 -122 -120
c-67 0 -120 53 -120 120c0 56 35 103 85 118l13 46c8 30 20 69 81 67c42 -1 70 -25 43 -77zM181 233c0 -62 40 -118 110 -118c63 0 114 56 114 118s-51 118 -114 118c-70 0 -110 -56 -110 -118zM235 637c0 -31 24 -55 55 -55c32 0 57 24 57 55c0 33 -25 58 -57 58
c-31 0 -55 -25 -55 -58z" />
    <glyph glyph-name="AEacute" unicode="&#x1fc;" horiz-adv-x="888" 
d="M11 104l325 517c34 55 58 68 119 68h323c33 0 60 -29 60 -65c0 -33 -28 -64 -60 -64h-230v-158h199c33 0 60 -28 60 -63c0 -33 -28 -63 -60 -63h-199v-148h239c33 0 60 -29 60 -64c0 -33 -28 -64 -60 -64h-327c-37 0 -57 28 -58 62v96h-183l-84 -132
c-20 -32 -64 -40 -98 -20c-33 19 -45 67 -26 98zM403 493l-101 -194h101v194zM526 732c-29 0 -43 23 -22 63l34 64c18 34 40 64 99 49c41 -10 64 -40 20 -83l-65 -59c-29 -28 -47 -34 -66 -34z" />
    <glyph glyph-name="aeacute" unicode="&#x1fd;" horiz-adv-x="848" 
d="M152 332c-21 -11 -51 -9 -69 12c-20 23 -21 58 0 77c61 56 137 55 176 55c70 0 129 -21 164 -69c37 44 91 69 160 69c133 0 239 -98 239 -245c0 -25 -21 -43 -43 -43h-301c7 -54 66 -77 115 -77c28 0 52 2 81 22c32 22 68 16 88 -7c26 -30 16 -73 -18 -93
c-47 -31 -106 -42 -161 -42c-79 0 -139 33 -175 91c-72 -88 -165 -91 -204 -91c-107 0 -177 61 -177 150c0 77 75 141 200 141c33 0 82 -8 110 -27c0 59 -23 101 -94 101c-16 0 -53 -1 -91 -24zM480 275h202c-7 57 -46 85 -98 85s-92 -26 -104 -85zM230 95
c21 0 89 11 118 65c-29 26 -80 31 -100 31c-59 0 -79 -25 -79 -49c0 -25 28 -47 61 -47zM382 533c-29 0 -34 31 -17 63l45 84c15 27 34 63 93 48c41 -10 63 -39 26 -84l-72 -74c-31 -31 -51 -37 -75 -37z" />
    <glyph glyph-name="Oslashacute" unicode="&#x1fe;" horiz-adv-x="780" 
d="M358 749c-29 0 -34 31 -17 63l45 84c15 27 34 63 93 48c41 -10 63 -39 26 -84l-72 -74c-31 -31 -51 -37 -75 -37zM557 464l-286 -293c32 -24 73 -38 118 -38c117 0 204 95 204 210c0 45 -13 87 -36 121zM224 218l287 295c-33 26 -75 42 -122 42
c-117 0 -203 -97 -203 -212c0 -47 14 -90 38 -125zM721 633l-62 -64c50 -62 80 -140 80 -226c0 -194 -154 -352 -350 -352c-84 0 -159 29 -219 77l-63 -65c-13 -12 -33 -11 -46 1c-12 12 -14 33 -2 45l64 65c-52 62 -83 142 -83 229c0 196 154 354 349 354
c85 0 163 -31 223 -81l62 64c12 11 33 10 44 -1c13 -13 14 -33 3 -46z" />
    <glyph glyph-name="oslashacute" unicode="&#x1ff;" horiz-adv-x="563" 
d="M252 533c-29 0 -34 31 -17 63l45 84c15 27 34 63 93 48c41 -10 63 -39 26 -84l-72 -74c-31 -31 -51 -37 -75 -37zM138 33l-39 -40c-13 -12 -33 -11 -46 1c-12 12 -14 33 -2 45l38 39c-33 41 -53 94 -53 157c0 147 109 241 245 241c57 0 109 -17 151 -47l34 35
c12 11 33 10 44 -1c13 -13 14 -33 3 -46l-33 -34c29 -39 47 -90 47 -148c0 -147 -110 -244 -246 -244c-54 0 -103 15 -143 42zM378 279l-140 -144c13 -6 27 -9 43 -9c58 0 106 45 106 109c0 16 -4 31 -9 44zM189 180l144 148c-16 8 -33 13 -52 13c-57 0 -105 -43 -105 -106
c0 -21 5 -39 13 -55z" />
    <glyph glyph-name="Ibreve" unicode="&#x12c;" horiz-adv-x="300" 
d="M223 626v-563c0 -37 -33 -68 -73 -68c-38 0 -73 32 -73 68v563c1 36 35 68 73 68c40 0 73 -31 73 -68zM150 739c-79 0 -147 57 -147 127c0 26 16 44 41 44c20 0 31 -11 38 -28c10 -25 27 -48 68 -48s58 23 68 48c7 17 18 28 38 28c25 0 41 -18 41 -44
c0 -70 -68 -127 -147 -127z" />
    <glyph glyph-name="ibreve" unicode="&#x12d;" horiz-adv-x="258" 
d="M199 410v-353c0 -35 -32 -62 -70 -62c-37 0 -69 28 -70 62v353c1 34 33 62 70 62c38 0 70 -27 70 -62zM129 544c-79 0 -147 57 -147 127c0 26 16 44 41 44c20 0 31 -11 38 -28c10 -25 27 -48 68 -48s58 23 68 48c7 17 18 28 38 28c25 0 41 -18 41 -44
c0 -70 -68 -127 -147 -127z" />
    <glyph glyph-name="Eng" unicode="&#x14a;" horiz-adv-x="672" 
d="M447 0c0 31 -10 45 -10 45l-214 372v-354c0 -37 -33 -68 -73 -68c-38 0 -73 32 -73 68v556c0 42 31 75 67 75h13c31 0 58 -10 81 -51l209 -366v349c0 36 35 68 73 68c40 0 73 -31 73 -68v-626c0 -126 -61 -233 -226 -233c-11 0 -30 2 -52 7c-34 8 -59 36 -55 72
c3 36 34 64 69 61c19 -2 36 -2 39 -2c57 0 79 43 79 95z" />
    <glyph glyph-name="eng" unicode="&#x14b;" horiz-adv-x="564" 
d="M366 -29v278c0 62 -34 93 -81 93c-49 0 -86 -24 -86 -95v-190c0 -35 -32 -62 -70 -62c-37 0 -69 28 -70 62v353c1 34 33 62 70 62c38 0 70 -27 70 -62v-11c25 47 80 78 135 78c105 0 172 -65 172 -198v-305c0 -124 -44 -203 -176 -203h-28c-36 0 -66 27 -66 64
s31 61 66 62h3c51 0 61 41 61 74z" />
    <glyph glyph-name="Ygrave" unicode="&#x1ef2;" horiz-adv-x="599" 
d="M568 586l-196 -276v-247c0 -37 -33 -68 -73 -68c-38 0 -73 32 -73 68v249l-194 274c-19 29 -10 74 20 95c31 21 75 16 95 -13l152 -237l154 237c19 29 64 34 95 13c30 -21 39 -66 20 -95zM329 732c-19 0 -37 6 -66 34l-65 59c-44 43 -21 73 20 83c59 15 81 -15 99 -49
l34 -64c21 -40 7 -63 -22 -63z" />
    <glyph glyph-name="ygrave" unicode="&#x1ef3;" horiz-adv-x="482" 
d="M219 -191l239 577c13 36 -7 74 -41 83c-44 11 -76 -9 -87 -40l-90 -228l-88 228c-11 31 -43 51 -87 40c-34 -9 -54 -47 -41 -83l145 -338l-78 -194c-14 -36 6 -76 40 -84c43 -10 75 8 88 39zM275 533c-24 0 -44 6 -75 37l-72 74c-37 45 -15 74 26 84c59 15 78 -21 93 -48
l45 -84c17 -32 12 -63 -17 -63z" />
    <glyph glyph-name="commaaccent" unicode="&#xf6c3;" horiz-adv-x="315" 
d="M224 -101c0 -72 -65 -162 -131 -162c-18 0 -36 10 -36 25c0 7 1 17 18 35c33 38 32 70 32 95c0 44 26 62 58 62c33 0 59 -24 59 -55z" />
    <glyph glyph-name="apple" unicode="&#xf8ff;" horiz-adv-x="847" 
d="M590 152c0 107 -70 159 -139 169c23 61 51 122 74 165l15 -195h75l-26 334h-73c-35 -65 -69 -132 -94 -203c-25 71 -60 138 -94 203h-73l-26 -334h75l15 195c23 -43 49 -103 74 -163c-73 -9 -149 -58 -149 -171h76c0 74 53 106 98 106c44 0 97 -32 97 -106h75zM172 0v690
h502v-690h-502zM217 82v-39h8v27l9 -27h7l10 28v-28h8v39h-12l-9 -27l-9 27h-12zM281 83c-12 0 -19 -9 -19 -21c0 -11 7 -20 19 -20s20 9 20 20c0 12 -8 21 -20 21zM281 49c-7 0 -10 7 -10 13c0 7 3 14 10 14c8 0 11 -7 11 -14c0 -6 -3 -13 -11 -13zM309 56h-8
c0 -10 8 -14 17 -14c10 0 16 5 16 13c0 6 -4 9 -11 11c-11 3 -12 3 -12 6s3 4 6 4c4 0 7 -1 7 -6h9c0 10 -8 13 -16 13c-7 0 -15 -4 -15 -12c0 -7 6 -10 13 -11c8 -2 11 -3 11 -6c0 -4 -5 -5 -8 -5c-4 0 -9 2 -9 7zM345 75v-32h9v32h12v7h-33v-7h12zM374 82l-15 -39h9l3 9
h14l3 -9h9l-14 39h-9zM383 58h-10l5 14zM398 82v-39h9v15h8c5 0 7 -3 7 -7s0 -6 1 -8h9c-1 2 -2 4 -2 9c0 3 -1 8 -6 9v1c5 1 7 5 7 9c0 6 -5 11 -12 11h-21zM407 64v11h9c4 0 6 -1 6 -5s-2 -6 -6 -6h-9zM435 82v-39h17c12 0 18 8 18 20c0 13 -8 19 -18 19h-17zM444 50v25h6
c8 0 11 -5 11 -13c0 -9 -5 -12 -10 -12h-7zM473 82v-39h30v7h-22v10h19v7h-19v8h21v7h-29zM512 56h-9c0 -10 8 -14 17 -14c11 0 16 5 16 13c0 6 -4 9 -11 11c-11 3 -12 3 -12 6s3 4 6 4c4 0 7 -1 8 -6h8c0 10 -8 13 -16 13c-7 0 -15 -4 -15 -12c0 -7 6 -10 13 -11
c8 -2 11 -3 11 -6c0 -4 -5 -5 -8 -5c-4 0 -8 2 -8 7zM539 82v-39h8v39h-8zM580 47l1 -4h6v21h-17v-6h9c-1 -6 -4 -9 -9 -9c-8 0 -11 7 -11 13c0 7 3 14 11 14c4 0 7 -2 8 -7h8c-1 9 -8 14 -16 14c-13 0 -20 -9 -20 -21c0 -11 7 -20 20 -20c3 0 7 2 10 5zM591 82v-39h8v26
l16 -26h9v39h-8v-26l-17 26h-8z" />
    <glyph glyph-name="Gcommaaccent" unicode="&#x122;" horiz-adv-x="749" 
d="M728 307c-24 -219 -151 -316 -334 -316c-198 0 -353 158 -353 352c0 196 155 354 353 354c85 0 157 -26 215 -72c26 -20 22 -77 -6 -102c-26 -22 -63 -23 -88 -5c-32 24 -75 37 -121 37c-116 0 -207 -95 -207 -212c0 -116 91 -210 207 -210c79 0 140 35 170 110h-136
c-31 0 -59 28 -59 59c0 34 27 60 59 60h257c34 0 47 -18 43 -55zM461 -101c0 -72 -65 -162 -131 -162c-18 0 -36 10 -36 25c0 7 1 17 18 35c33 38 32 70 32 95c0 44 26 62 58 62c33 0 59 -24 59 -55z" />
    <glyph glyph-name="Kcommaaccent" unicode="&#x136;" horiz-adv-x="555" 
d="M297 348l222 -239c25 -24 21 -70 -7 -95c-26 -25 -73 -25 -95 0l-194 219v-170c0 -37 -33 -68 -73 -68c-38 0 -73 32 -73 68v563c1 36 35 68 73 68c40 0 73 -31 73 -68v-163l147 204c19 28 62 35 91 17c32 -20 47 -61 24 -90zM369 -101c0 -72 -65 -162 -131 -162
c-18 0 -36 10 -36 25c0 7 1 17 18 35c33 38 32 70 32 95c0 44 26 62 58 62c33 0 59 -24 59 -55z" />
    <glyph glyph-name="kcommaaccent" unicode="&#x137;" horiz-adv-x="492" 
d="M358 15l-157 169v-127c0 -35 -32 -62 -70 -62c-37 0 -69 28 -70 62v607c1 34 33 62 70 62c38 0 70 -27 70 -62v-326l109 110c22 25 63 30 90 8c26 -21 33 -61 9 -89l-109 -106l154 -161c26 -28 24 -70 -4 -91c-25 -21 -72 -18 -92 6zM327 -101c0 -72 -65 -162 -131 -162
c-18 0 -36 10 -36 25c0 7 1 17 18 35c33 38 32 70 32 95c0 44 26 62 58 62c33 0 59 -24 59 -55z" />
    <glyph glyph-name="Lcommaaccent" unicode="&#x13b;" horiz-adv-x="496" 
d="M224 626v-498h199c33 0 60 -29 60 -64c0 -33 -28 -63 -60 -64h-287c-37 0 -58 28 -58 62v564c1 36 35 68 73 68c40 0 73 -31 73 -68zM336 -101c0 -72 -65 -162 -131 -162c-18 0 -36 10 -36 25c0 7 1 17 18 35c33 38 32 70 32 95c0 44 26 62 58 62c33 0 59 -24 59 -55z
" />
    <glyph glyph-name="lcommaaccent" unicode="&#x13c;" horiz-adv-x="262" 
d="M201 664v-607c0 -35 -32 -62 -70 -62c-37 0 -69 28 -70 62v607c1 34 33 62 70 62c38 0 70 -27 70 -62zM188 -101c0 -72 -65 -162 -131 -162c-18 0 -36 10 -36 25c0 7 1 17 18 35c33 38 32 70 32 95c0 44 26 62 58 62c33 0 59 -24 59 -55z" />
    <glyph glyph-name="Ncommaaccent" unicode="&#x145;" horiz-adv-x="670" 
d="M593 626v-558c0 -41 -30 -73 -65 -73h-13c-30 0 -55 10 -78 50l-214 372v-354c0 -37 -33 -68 -73 -68c-38 0 -73 32 -73 68v556c0 42 31 75 67 75h13c31 0 58 -10 81 -51l209 -366v349c0 36 35 68 73 68c40 0 73 -31 73 -68zM401 -101c0 -72 -65 -162 -131 -162
c-18 0 -36 10 -36 25c0 7 1 17 18 35c33 38 32 70 32 95c0 44 26 62 58 62c33 0 59 -24 59 -55z" />
    <glyph glyph-name="ncommaaccent" unicode="&#x146;" horiz-adv-x="562" 
d="M199 410v-11c25 47 80 78 135 78c105 0 172 -65 172 -198v-222c0 -35 -32 -62 -70 -62c-37 0 -69 28 -70 62v192c0 62 -34 93 -81 93c-49 0 -86 -24 -86 -95v-190c0 -35 -32 -62 -70 -62c-37 0 -69 28 -70 62v353c1 34 33 62 70 62c38 0 70 -27 70 -62zM354 -101
c0 -72 -65 -162 -131 -162c-18 0 -36 10 -36 25c0 7 1 17 18 35c33 38 32 70 32 95c0 44 26 62 58 62c33 0 59 -24 59 -55z" />
    <glyph glyph-name="Rcommaaccent" unicode="&#x156;" horiz-adv-x="629" 
d="M377 -101c0 -72 -65 -162 -131 -162c-18 0 -36 10 -36 25c0 7 1 17 18 35c33 38 32 70 32 95c0 44 26 62 58 62c33 0 59 -24 59 -55zM358 560h-135v-194h131c57 0 87 52 87 97c0 43 -28 97 -83 97zM587 467c-3 -90 -53 -176 -155 -206l112 -161c20 -30 7 -75 -27 -95
c-32 -19 -76 -10 -95 20l-132 218h-67v-180c0 -37 -33 -68 -73 -68c-38 0 -73 32 -73 68v551c1 41 26 75 70 75h211c154 0 227 -110 229 -222z" />
    <glyph glyph-name="rcommaaccent" unicode="&#x157;" horiz-adv-x="413" 
d="M322 476c46 0 95 -11 86 -77c-5 -35 -38 -51 -69 -51c-10 0 -25 1 -34 1c-78 0 -104 -60 -106 -177v-115c0 -35 -32 -62 -70 -62c-37 0 -69 28 -70 62v353c1 34 33 62 70 62c38 0 70 -27 70 -62v-51c26 87 75 117 123 117zM185 -101c0 -72 -65 -162 -131 -162
c-18 0 -36 10 -36 25c0 7 1 17 18 35c33 38 32 70 32 95c0 44 26 62 58 62c33 0 59 -24 59 -55z" />
    <glyph glyph-name="Tcommaaccent" unicode="&#x162;" horiz-adv-x="558" 
d="M484 560h-132v-497c0 -37 -33 -68 -73 -68c-38 0 -73 32 -73 68v497h-132c-31 0 -60 31 -60 64c0 36 27 65 60 65h410c33 0 60 -29 60 -65c0 -33 -29 -64 -60 -64zM339 -101c0 -72 -65 -162 -131 -162c-18 0 -36 10 -36 25c0 7 1 17 18 35c33 38 32 70 32 95
c0 44 26 62 58 62c33 0 59 -24 59 -55z" />
    <glyph glyph-name="tcommaaccent" unicode="&#x163;" horiz-adv-x="353" 
d="M62 467h38v122c1 34 33 62 70 62c38 0 70 -27 70 -62v-122h53c28 0 50 -25 50 -55c0 -29 -22 -54 -50 -55h-53v-300c0 -35 -32 -62 -70 -62c-37 0 -69 28 -70 62v300h-38c-28 1 -50 26 -50 55c0 30 22 55 50 55zM230 -101c0 -72 -65 -162 -131 -162c-18 0 -36 10 -36 25
c0 7 1 17 18 35c33 38 32 70 32 95c0 44 26 62 58 62c33 0 59 -24 59 -55z" />
    <glyph glyph-name="Scommaaccent" unicode="&#x218;" horiz-adv-x="573" 
d="M342 -101c0 -72 -65 -162 -131 -162c-18 0 -36 10 -36 25c0 7 1 17 18 35c33 38 32 70 32 95c0 44 26 62 58 62c33 0 59 -24 59 -55zM50 139c-11 35 5 69 39 82c39 15 76 -6 90 -35c15 -31 49 -65 111 -65c59 0 100 28 101 73c1 31 -13 58 -83 78l-83 23
c-152 47 -178 134 -178 196c0 123 105 206 237 206c99 0 173 -43 210 -115c17 -33 3 -65 -22 -81c-36 -23 -68 -13 -92 17c-29 37 -67 48 -98 48c-51 0 -89 -30 -89 -71c0 -18 7 -51 74 -70l82 -24c167 -48 191 -142 189 -208c-2 -137 -126 -202 -248 -202s-210 59 -240 148
z" />
    <glyph glyph-name="scommaaccent" unicode="&#x219;" horiz-adv-x="460" 
d="M38 90c-10 29 2 60 25 70c31 14 60 1 75 -17c25 -27 55 -41 88 -41c31 0 60 5 60 29c0 20 -12 27 -46 38l-53 19c-140 47 -139 113 -139 156c0 69 83 133 181 133c67 0 136 -21 168 -77c17 -30 9 -59 -12 -71c-31 -18 -60 -11 -89 11c-20 15 -38 21 -56 21
c-30 0 -51 -10 -51 -28c0 -15 12 -24 40 -33l71 -24c113 -37 127 -110 127 -140c0 -99 -104 -146 -202 -146c-75 0 -163 31 -187 100zM291 -101c0 -72 -65 -162 -131 -162c-18 0 -36 10 -36 25c0 7 1 17 18 35c33 38 32 70 32 95c0 44 26 62 58 62c33 0 59 -24 59 -55z" />
    <glyph glyph-name="uni2113" unicode="&#x2113;" horiz-adv-x="400" 
d="M182 521v-248l27 3c18 0 23 19 23 38v208c0 29 -5 58 -23 58c-27 0 -27 -31 -27 -59zM233 113l59 -7c26 -3 47 -24 47 -53c0 -28 -21 -52 -47 -53h-84c-116 0 -149 76 -149 170v357c0 95 33 170 149 170c112 0 147 -79 147 -177v-186c0 -98 -27 -169 -173 -169
c0 -23 3 -47 51 -52z" />
    <glyph glyph-name="gcommaaccent" unicode="&#x123;" horiz-adv-x="605" 
d="M82 -140c-19 24 -17 64 8 86c25 23 67 18 86 -3c26 -28 66 -51 104 -51c106 0 135 73 129 166v13c-30 -53 -87 -80 -145 -80c-119 0 -227 88 -227 243s108 242 227 242c30 0 100 -13 140 -75v9c1 34 33 62 70 62c38 0 70 -27 70 -62v-345c0 -201 -98 -298 -264 -298
c-81 0 -152 36 -198 93zM181 233c0 -62 40 -118 110 -118c63 0 114 56 114 118s-51 118 -114 118c-70 0 -110 -56 -110 -118zM224 587c0 72 65 162 131 162c18 0 36 -10 36 -25c0 -7 -1 -17 -18 -35c-33 -38 -32 -70 -32 -95c0 -44 -26 -62 -58 -62c-33 0 -59 24 -59 55z
" />
    <glyph glyph-name="published" horiz-adv-x="797" 
d="M371 435h60c22 0 34 -24 34 -42c0 -19 -13 -41 -36 -41h-58v83zM371 198v80h60c81 0 118 56 118 115c0 58 -37 116 -118 116h-109c-21 0 -33 -17 -34 -36v-275c0 -21 21 -39 42 -39c23 0 41 18 41 39zM49 343c0 195 154 351 349 351s350 -156 350 -351
s-155 -352 -350 -352s-349 157 -349 352zM122 343c0 -154 122 -278 276 -278s276 124 276 278s-122 277 -276 277s-276 -123 -276 -277z" />
    <glyph glyph-name="rupiah" unicode="&#xf6dd;" horiz-adv-x="1186" 
d="M362 560h-135v-194h131c57 0 87 52 87 97c0 43 -28 97 -83 97zM591 467c-3 -90 -53 -176 -155 -206l112 -161c20 -30 7 -75 -27 -95c-32 -19 -76 -10 -95 20l-132 218h-67v-180c0 -37 -33 -68 -73 -68c-38 0 -73 32 -73 68v564c1 34 21 62 58 62h223
c154 0 227 -110 229 -222zM782 401c40 62 110 75 140 75c119 0 227 -87 227 -242s-108 -243 -227 -243c-53 0 -110 26 -140 75v-232c-1 -34 -33 -62 -70 -62c-38 0 -70 27 -70 62v576c0 35 32 62 70 62c37 0 69 -28 70 -62v-9zM1005 233c0 62 -40 118 -110 118
c-63 0 -114 -56 -114 -118s51 -118 114 -118c70 0 110 56 110 118z" />
    <glyph glyph-name="rupee" unicode="&#x20a8;" horiz-adv-x="704" 
d="M215 243v-180c0 -37 -33 -68 -73 -68c-38 0 -73 32 -73 68v228c1 41 26 75 70 75h172c44 0 72 31 82 66h-292c-17 0 -32 17 -32 34c0 19 15 35 32 35h290c-11 31 -37 59 -76 59h-186c-33 0 -60 29 -60 64c0 34 28 65 60 65h505c17 0 32 -16 32 -35c0 -17 -15 -34 -32 -34
h-148c30 -33 49 -75 55 -119h93c17 0 32 -16 32 -35c0 -17 -15 -34 -32 -34h-94c-13 -77 -63 -145 -151 -171l112 -161c20 -30 7 -75 -27 -95c-32 -19 -76 -10 -95 20l-132 218h-32z" />
    <glyph glyph-name="colonmonetary" unicode="&#x20a1;" horiz-adv-x="695" 
d="M215 230l112 316c-84 -25 -142 -106 -142 -202c0 -42 10 -81 30 -114zM320 143l142 398c-21 8 -44 13 -68 14l-134 -377c18 -15 38 -27 60 -35zM380 133h5c56 0 105 20 141 54c25 22 66 23 94 -1c28 -25 35 -76 9 -100c-61 -59 -146 -95 -244 -95c-19 0 -37 2 -54 4
l-30 -85c-6 -14 -23 -22 -39 -15c-15 4 -22 21 -17 36l28 78c-22 7 -44 17 -63 28l-33 -92c-6 -14 -23 -22 -39 -15c-15 4 -22 21 -17 36l38 108c-74 64 -120 161 -120 270c0 194 147 351 342 353l30 85c5 15 24 22 39 16c15 -5 22 -22 17 -37l-24 -68c23 -4 46 -10 67 -17
l25 71c5 15 24 22 39 16c15 -5 22 -22 17 -37l-27 -75c24 -14 45 -30 65 -49c26 -24 19 -75 -9 -100c-28 -24 -68 -23 -94 -1l-12 10z" />
    <glyph glyph-name="uni20A9" unicode="&#x20a9;" horiz-adv-x="998" 
d="M500 362l-37 -139h73zM618 374l33 -119l38 119h-71zM311 374l38 -119l32 119h-70zM916 374h-79l-51 -151h130c17 0 30 -15 30 -34c0 -18 -13 -34 -30 -34h-153l-35 -104c-11 -34 -36 -56 -68 -56h-10c-33 0 -60 23 -69 56l-27 104h-108l-27 -104c-9 -33 -36 -56 -69 -56
h-10c-32 0 -57 22 -68 56l-35 104h-155c-17 0 -30 16 -30 34c0 19 13 34 30 34h132l-51 151h-81c-17 0 -30 16 -30 34c0 19 13 34 30 34h58l-54 160c-12 35 9 78 47 89c36 10 80 -8 91 -42l65 -207h111l31 112c8 30 31 48 66 48h6c35 0 58 -18 66 -48l30 -112h111l66 207
c11 34 55 52 91 42c38 -11 59 -54 47 -89l-54 -160h56c17 0 30 -15 30 -34c0 -18 -13 -34 -30 -34z" />
    <glyph glyph-name="lira" unicode="&#x20a4;" horiz-adv-x="677" 
d="M88 323c-15 0 -28 16 -28 33s12 31 28 31h60v86c0 137 90 224 213 224c102 0 190 -50 219 -156c8 -35 -9 -68 -47 -76c-62 -13 -80 14 -96 46c-17 34 -42 41 -73 41c-46 0 -76 -33 -76 -79v-86h92c16 0 28 -14 28 -31s-13 -33 -28 -33h-92v-55h92c16 0 28 -14 28 -31
s-13 -33 -28 -33h-92v-80h184c18 0 30 16 30 36v5c0 35 31 61 68 61s68 -27 69 -61v-32c0 -76 -55 -133 -126 -133h-421c-31 0 -55 28 -55 62c0 33 25 62 55 62h56v80h-60c-15 0 -28 16 -28 33s12 31 28 31h60v55h-60z" />
    <glyph glyph-name="afii57636" unicode="&#x20aa;" horiz-adv-x="921" 
d="M848 477v-387c0 -51 -39 -90 -85 -90h-276c-128 0 -211 91 -211 206v58c0 36 34 66 70 66c40 0 70 -30 70 -66v-32c0 -50 39 -92 102 -92h190v337c0 36 34 66 70 66c40 0 70 -30 70 -66zM73 61v387c0 51 39 90 85 90h276c128 0 211 -91 211 -206v-58
c0 -36 -34 -66 -70 -66c-40 0 -70 30 -70 66v32c0 50 -39 92 -102 92h-190v-337c0 -36 -34 -66 -70 -66c-40 0 -70 30 -70 66z" />
    <glyph glyph-name="frenchfranc" horiz-adv-x="733" 
d="M349 57v240h-119v-234c0 -37 -33 -68 -73 -68c-38 0 -73 32 -73 68v564c1 34 21 62 58 62h317c33 0 60 -29 60 -65c0 -33 -28 -63 -60 -64h-229v-137h189c38 0 70 -27 70 -62v-51c26 87 75 117 123 117c46 0 95 -11 86 -77c-5 -35 -38 -51 -69 -51c-10 0 -25 1 -34 1
c-78 0 -104 -11 -106 -128v-115c0 -35 -32 -62 -70 -62c-37 0 -69 28 -70 62z" />
    <glyph glyph-name="uni20A6" unicode="&#x20a6;" horiz-adv-x="780" 
d="M409 436l91 -159v159h-91zM359 272l-83 145v-145h83zM646 203v-135c0 -41 -30 -73 -65 -73h-13c-30 0 -55 10 -78 50l-91 158h-123v-140c0 -37 -33 -68 -73 -68c-38 0 -73 32 -73 68v140h-49c-17 0 -32 17 -32 34c0 19 15 35 32 35h49v164h-49c-17 0 -32 17 -32 34
c0 19 15 35 32 35h49v114c0 42 31 75 67 75h13c31 0 58 -10 81 -51l79 -138h130v121c0 36 35 68 73 68c40 0 73 -31 73 -68v-121h55c17 0 32 -16 32 -35c0 -17 -15 -34 -32 -34h-55v-164h55c17 0 32 -16 32 -35c0 -17 -15 -34 -32 -34h-55z" />
    <glyph glyph-name="peseta" unicode="&#x20a7;" horiz-adv-x="760" 
d="M486 430h-211v-64h129c43 0 71 30 82 64zM275 499h210c-11 32 -37 61 -77 61h-133v-61zM695 430h-59c-13 -102 -83 -192 -225 -192h-136v-175c0 -37 -33 -68 -73 -68c-38 0 -73 32 -73 68v367h-54c-17 0 -32 17 -32 34c0 19 15 35 32 35h54v128c1 34 21 62 58 62h224
c140 0 211 -90 224 -190h60c17 0 32 -16 32 -35c0 -17 -15 -34 -32 -34z" />
    <glyph glyph-name="afii61352" unicode="&#x2116;" horiz-adv-x="976" 
d="M664 563c0 74 58 134 133 134c74 0 134 -60 134 -134c0 -75 -60 -133 -134 -133c-75 0 -133 58 -133 133zM739 563c0 -33 25 -58 58 -58c32 0 59 25 59 58c0 32 -27 59 -59 59c-33 0 -58 -27 -58 -59zM594 68v558c0 37 -33 68 -73 68c-38 0 -73 -32 -73 -68v-349
l-209 366c-23 41 -50 51 -81 51h-13c-36 0 -67 -33 -67 -75v-556c0 -36 35 -68 73 -68c40 0 73 31 73 68v354l214 -372c23 -40 48 -50 78 -50h13c35 0 65 32 65 73zM695 379h204c17 0 30 -15 30 -33s-13 -34 -30 -34h-204c-17 0 -30 16 -30 34s13 33 30 33z" />
    <glyph glyph-name="thinspace" unicode="&#x2009;" horiz-adv-x="14" 
 />
    <glyph glyph-name="parenleft.case" horiz-adv-x="310" 
d="M44 344c0 141 34 304 117 432c15 24 50 38 79 24c28 -14 38 -50 24 -77c-74 -108 -103 -254 -103 -379s29 -271 103 -379c14 -27 4 -63 -24 -77c-29 -14 -64 0 -79 24c-83 128 -117 291 -117 432z" />
    <glyph glyph-name="parenright.case" horiz-adv-x="310" 
d="M266 344c0 -141 -34 -304 -117 -432c-15 -24 -50 -38 -79 -24c-28 14 -38 50 -24 77c74 108 103 254 103 379s-29 271 -103 379c-14 27 -4 63 24 77c29 14 64 0 79 -24c83 -128 117 -291 117 -432z" />
    <glyph glyph-name="hyphen.case" horiz-adv-x="483" 
d="M109 398h265c28 0 49 -25 49 -55c0 -29 -22 -55 -49 -55h-265c-27 0 -49 26 -49 55c0 30 21 55 49 55z" />
    <glyph glyph-name="at.case" horiz-adv-x="981" 
d="M546 212c9 -49 -46 -61 -77 -61c-113 0 -205 90 -205 203c0 115 92 205 205 205c55 0 105 -21 142 -56c39 -35 62 -85 64 -139v-142c0 -47 32 -60 60 -60c87 0 105 129 105 205c0 192 -166 333 -361 333c-193 0 -343 -158 -343 -351s150 -346 343 -346h10
c22 0 42 -21 42 -45c0 -22 -20 -44 -42 -44h-10c-243 0 -432 192 -432 435s189 440 432 440s451 -180 451 -422c0 -119 -50 -293 -195 -293c-76 0 -150 39 -150 154v126c0 66 -52 117 -116 117c-63 0 -116 -51 -116 -117c0 -63 53 -115 116 -115l29 1c20 2 41 -2 48 -28z
" />
    <glyph glyph-name="bracketleft.case" horiz-adv-x="336" 
d="M188 692v-696h72c27 0 51 -27 51 -56c0 -31 -24 -55 -51 -55h-123c-37 0 -67 30 -67 67v784c0 37 30 67 67 67h123c27 0 51 -24 51 -55c0 -29 -24 -56 -51 -56h-72z" />
    <glyph glyph-name="bracketright.case" horiz-adv-x="336" 
d="M148 -4v696h-72c-27 0 -51 27 -51 56c0 31 24 55 51 55h123c37 0 67 -30 67 -67v-784c0 -37 -30 -67 -67 -67h-123c-27 0 -51 24 -51 55c0 29 24 56 51 56h72z" />
    <glyph glyph-name="braceleft.case" horiz-adv-x="401" 
d="M117 86v135c0 34 -14 69 -58 69c-40 3 -55 24 -55 55c0 30 15 51 55 54c44 0 58 32 58 67v142c-1 122 91 200 202 200h14c26 0 45 -23 45 -51c0 -26 -20 -49 -45 -50h-5c-45 0 -94 -42 -94 -97v-144c0 -46 -34 -110 -114 -122c80 -15 114 -77 114 -122v-138
c0 -55 49 -97 94 -97h5c25 -1 45 -24 45 -50c0 -28 -19 -51 -45 -51h-14c-111 0 -203 78 -202 200z" />
    <glyph glyph-name="braceright.case" horiz-adv-x="400" 
d="M284 220v-135c1 -122 -91 -200 -202 -200h-14c-26 0 -45 23 -45 51c0 26 20 49 45 50h5c45 0 94 42 94 97v138c0 45 34 107 114 122c-80 12 -114 76 -114 122v144c0 55 -49 97 -94 97h-5c-25 1 -45 24 -45 50c0 28 19 51 45 51h14c111 0 203 -78 202 -200v-142
c0 -35 14 -67 58 -67c40 -3 55 -24 55 -54c0 -31 -15 -52 -55 -55c-44 0 -58 -35 -58 -69z" />
    <glyph glyph-name="exclamdown.case" horiz-adv-x="277" 
d="M52 610c0 49 39 84 86 84s87 -35 87 -84c0 -48 -40 -83 -87 -83s-86 35 -86 83zM198 431l16 -373c3 -38 -34 -67 -75 -67c-39 0 -77 30 -75 67l16 373c1 29 28 52 59 52c32 0 58 -23 59 -52z" />
    <glyph glyph-name="guillemotleft.case" horiz-adv-x="511" 
d="M165 151l-101 150c-11 16 -18 28 -18 43c0 17 8 28 18 44l102 150c14 20 46 27 67 17c21 -12 33 -42 20 -66l-103 -145l102 -143c14 -22 4 -54 -19 -68c-22 -13 -53 -4 -68 18zM358 151l-101 150c-11 16 -18 28 -18 43c0 17 8 28 18 44l102 150c14 20 46 27 67 17
c21 -12 33 -42 20 -66l-103 -145l102 -143c14 -22 4 -54 -19 -68c-22 -13 -53 -4 -68 18z" />
    <glyph glyph-name="periodcentered.case" horiz-adv-x="279" 
d="M53 344c0 48 39 83 86 83s87 -35 87 -83c0 -49 -40 -84 -87 -84s-86 35 -86 84z" />
    <glyph glyph-name="guillemotright.case" horiz-adv-x="510" 
d="M446 301l-101 -150c-15 -22 -46 -31 -68 -18c-23 14 -33 46 -19 68l102 143l-103 145c-13 24 -1 54 20 66c21 10 53 3 67 -17l102 -150c10 -16 18 -27 18 -44c0 -15 -7 -27 -18 -43zM253 301l-101 -150c-15 -22 -46 -31 -68 -18c-23 14 -33 46 -19 68l102 143l-103 145
c-13 24 -1 54 20 66c21 10 53 3 67 -17l102 -150c10 -16 18 -27 18 -44c0 -15 -7 -27 -18 -43z" />
    <glyph glyph-name="questiondown.case" horiz-adv-x="486" 
d="M376 610c0 -48 -39 -83 -86 -83s-87 35 -87 83c0 49 40 84 87 84s86 -35 86 -84zM443 115c-30 -78 -101 -124 -196 -124c-125 0 -211 75 -211 195c0 97 56 165 134 189c29 8 47 21 49 47c3 35 33 63 72 63c37 0 68 -21 68 -78c0 -49 -22 -117 -106 -150l-40 -17
c-38 -15 -37 -43 -37 -55c0 -30 29 -59 71 -59c30 0 56 14 68 48c11 32 62 48 97 33s44 -60 31 -92z" />
    <glyph glyph-name="endash.case" horiz-adv-x="645" 
d="M115 282c-30 0 -55 29 -55 63c0 33 23 61 55 61h414c32 0 55 -28 55 -61c0 -34 -24 -63 -55 -63h-414z" />
    <glyph glyph-name="emdash.case" horiz-adv-x="860" 
d="M117 281c-30 0 -55 29 -55 63c0 33 23 61 55 61h627c32 0 55 -28 55 -61c0 -34 -24 -63 -55 -63h-627z" />
    <glyph glyph-name="bullet.case" horiz-adv-x="462" 
d="M71 344c0 89 73 154 160 154s160 -65 160 -154s-73 -154 -160 -154s-160 65 -160 154z" />
    <glyph glyph-name="guilsinglleft.case" horiz-adv-x="318" 
d="M165 151l-101 150c-11 16 -18 28 -18 43c0 17 8 28 18 44l102 150c14 20 46 27 67 17c21 -12 33 -42 20 -66l-103 -145l102 -143c14 -22 4 -54 -19 -68c-22 -13 -53 -4 -68 18z" />
    <glyph glyph-name="guilsinglright.case" horiz-adv-x="318" 
d="M254 301l-101 -150c-15 -22 -46 -31 -68 -18c-23 14 -33 46 -19 68l102 143l-103 145c-13 24 -1 54 20 66c21 10 53 3 67 -17l102 -150c10 -16 18 -27 18 -44c0 -15 -7 -27 -18 -43z" />
    <glyph glyph-name="cent.case" horiz-adv-x="522" 
d="M312 106v-80c0 -19 -17 -35 -38 -35c-19 0 -37 16 -37 35v85c-110 22 -199 109 -199 235v3c0 125 89 213 199 235v75c1 19 18 35 37 35c21 0 38 -16 38 -35v-70c49 -3 95 -18 133 -45c33 -23 37 -74 9 -102c-25 -25 -66 -19 -91 -5c-20 11 -44 18 -69 18
c-60 0 -114 -41 -114 -106v-3c0 -65 54 -106 114 -106c25 0 49 7 69 18c25 14 66 20 91 -5c28 -28 24 -79 -9 -102c-38 -27 -84 -42 -133 -45z" />
    <glyph glyph-name="zero.tnum" 
d="M46 328c0 189 54 340 245 340s243 -151 243 -340c0 -187 -52 -337 -243 -337s-245 150 -245 337zM186 328c0 -110 25 -201 105 -201c79 0 103 91 103 201c0 111 -24 204 -103 204c-80 0 -105 -93 -105 -204z" />
    <glyph glyph-name="one.tnum" 
d="M159 580l168 80c13 6 25 8 34 8h2c18 0 31 -15 31 -31v-577c0 -35 -32 -65 -70 -65c-36 0 -70 31 -70 65v437l-45 -19c-25 -11 -59 0 -72 28c-14 28 -4 62 22 74z" />
    <glyph glyph-name="two.tnum" 
d="M197 476c-12 -28 -43 -53 -85 -41c-32 9 -51 44 -39 82c33 94 110 151 216 151c116 0 214 -81 214 -199c0 -63 -31 -120 -69 -166l-148 -171h162c33 0 61 -30 61 -66c0 -34 -28 -66 -61 -66h-334c-27 0 -45 18 -45 47c0 19 9 39 21 53l238 295c18 23 35 49 35 74
c0 35 -30 65 -82 65c-39 0 -69 -22 -84 -58z" />
    <glyph glyph-name="three.tnum" 
d="M198 519c-42 -27 -69 -24 -94 2c-23 25 -19 63 4 85c43 41 106 66 176 62c114 -6 197 -90 194 -184c0 -54 -36 -101 -84 -128c72 -26 118 -108 112 -178c-11 -112 -127 -195 -258 -186c-66 4 -122 31 -165 76c-20 20 -27 61 -2 89c22 25 61 32 95 3c23 -19 56 -32 83 -33
c50 -3 90 36 94 70c1 12 5 87 -83 87h-32c-30 0 -56 27 -56 60c0 31 27 60 56 60h26c69 0 64 68 64 71c0 20 -17 63 -66 63c-26 0 -49 -9 -64 -19z" />
    <glyph glyph-name="four.tnum" 
d="M185 273h124v199zM44 250l229 365c21 33 43 53 87 53c52 0 90 -38 90 -86v-309h41c30 0 55 -27 55 -59c0 -30 -26 -59 -55 -59h-41v-95c0 -35 -32 -65 -71 -65c-36 0 -70 31 -70 65v95h-234c-29 0 -50 18 -50 45c0 21 10 35 19 50z" />
    <glyph glyph-name="five.tnum" 
d="M73 72c-24 25 -25 69 2 96c23 23 67 21 91 0c27 -23 66 -41 96 -41c89 0 130 51 130 104c0 67 -41 104 -109 104c-36 0 -90 -13 -131 -57c-15 -16 -37 -15 -61 -1s-27 36 -23 61l44 282c4 25 25 40 46 40h278c32 0 59 -29 59 -64c0 -33 -28 -64 -59 -64h-207l-20 -122
c26 23 74 35 117 35c106 0 203 -85 203 -214c0 -139 -102 -240 -267 -240c-70 0 -138 32 -189 81z" />
    <glyph glyph-name="six.tnum" 
d="M392 515c-19 16 -50 22 -72 22c-89 0 -125 -95 -124 -181v-16c9 29 50 76 142 76c67 0 195 -55 195 -206c0 -126 -95 -219 -238 -219c-124 0 -223 89 -235 228c-16 202 19 457 265 449c57 -2 118 -13 160 -64c23 -28 26 -63 -2 -90c-26 -26 -65 -20 -91 1zM388 210
c0 47 -39 86 -86 86s-86 -39 -86 -86s39 -86 86 -86s86 39 86 86z" />
    <glyph glyph-name="seven.tnum" 
d="M512 567l-233 -532c-14 -32 -61 -49 -97 -35c-36 16 -51 58 -36 92l194 447h-221c-32 0 -61 31 -61 64c0 36 28 65 61 65h354c32 0 56 -13 56 -45c0 -16 -10 -41 -17 -56z" />
    <glyph glyph-name="eight.tnum" 
d="M88 485c0 101 91 183 202 183s203 -82 203 -183c0 -46 -18 -83 -48 -110c57 -33 94 -94 94 -165c0 -125 -112 -219 -249 -219s-249 94 -249 219c0 72 37 132 94 165c-29 28 -47 65 -47 110zM181 217c0 -55 51 -96 109 -96s109 41 109 96c0 50 -37 98 -110 98
c-71 0 -108 -48 -108 -98zM223 481c0 -33 22 -63 67 -63s67 30 67 63c0 32 -24 61 -67 61s-67 -29 -67 -61z" />
    <glyph glyph-name="nine.tnum" 
d="M189 147c19 -16 50 -25 72 -25c98 0 124 107 124 197c-9 -29 -50 -76 -142 -76c-67 0 -195 55 -195 206c0 126 95 219 238 219c123 0 221 -109 235 -248c2 -22 3 -46 3 -70c0 -168 -50 -359 -257 -359c-59 0 -127 10 -171 64c-12 14 -18 31 -18 47c0 31 28 63 62 63
c17 0 35 -7 49 -18zM193 449c0 -47 39 -86 86 -86s86 39 86 86s-39 86 -86 86s-86 -39 -86 -86z" />
    <glyph glyph-name="zero.taboldstyle" 
d="M289 -9c-137 0 -262 108 -262 271c0 166 125 270 262 270c140 0 263 -104 263 -270c0 -163 -123 -271 -263 -271zM289 122c70 0 131 56 131 139c0 85 -61 138 -131 138c-68 0 -130 -53 -130 -138c0 -83 62 -139 130 -139z" />
    <glyph glyph-name="one.taboldstyle" 
d="M136 438l223 86c13 6 25 8 34 8h2c18 0 31 -15 31 -31v-445c0 -35 -32 -65 -70 -65c-36 0 -70 31 -70 65v301l-100 -35c-26 -9 -59 3 -72 31c-14 28 -4 73 22 85z" />
    <glyph glyph-name="two.taboldstyle" 
d="M212 361c-16 -22 -58 -38 -89 -19c-32 19 -39 46 -26 77c29 68 94 113 194 113c125 0 197 -78 197 -163c0 -46 -30 -90 -62 -121l-125 -126h148c31 0 57 -28 57 -61c0 -31 -27 -61 -57 -61h-340c-24 0 -40 19 -40 45c0 15 8 35 29 54l205 215c18 19 32 33 32 47
c0 22 -15 43 -52 43c-11 0 -29 -2 -45 -13c-10 -7 -18 -19 -26 -30z" />
    <glyph glyph-name="six.taboldstyle" 
d="M392 515c-19 16 -50 22 -72 22c-89 0 -125 -95 -124 -181v-16c9 29 50 76 142 76c67 0 195 -55 195 -206c0 -126 -95 -219 -238 -219c-124 0 -223 89 -235 228c-16 202 19 457 265 449c57 -2 118 -13 160 -64c23 -28 26 -63 -2 -90c-26 -26 -65 -20 -91 1zM388 210
c0 47 -39 86 -86 86s-86 -39 -86 -86s39 -86 86 -86s86 39 86 86z" />
    <glyph glyph-name="eight.taboldstyle" 
d="M88 485c0 101 91 183 202 183s203 -82 203 -183c0 -46 -18 -83 -48 -110c57 -33 94 -94 94 -165c0 -125 -112 -219 -249 -219s-249 94 -249 219c0 72 37 132 94 165c-29 28 -47 65 -47 110zM181 217c0 -55 51 -96 109 -96s109 41 109 96c0 50 -37 98 -110 98
c-71 0 -108 -48 -108 -98zM223 481c0 -33 22 -63 67 -63s67 30 67 63c0 32 -24 61 -67 61s-67 -29 -67 -61z" />
    <glyph glyph-name="three.taboldstyle" 
d="M198 326c-42 -27 -69 -24 -94 2c-23 25 -19 63 4 85c43 41 106 66 176 62c114 -6 197 -90 194 -184c0 -54 -36 -101 -84 -128c72 -26 118 -108 112 -178c-11 -112 -127 -195 -258 -186c-66 4 -122 31 -165 76c-20 20 -27 61 -2 89c22 25 61 32 95 3c23 -19 56 -32 83 -33
c50 -3 90 36 94 70c1 12 5 87 -83 87h-32c-30 0 -56 27 -56 60c0 31 27 60 56 60h26c69 0 64 68 64 71c0 20 -17 63 -66 63c-26 0 -49 -9 -64 -19z" />
    <glyph glyph-name="four.taboldstyle" 
d="M185 81h124v199zM44 58l229 365c21 33 43 53 87 53c52 0 90 -38 90 -86v-309h41c30 0 55 -27 55 -59c0 -30 -26 -59 -55 -59h-41v-95c0 -35 -32 -65 -71 -65c-36 0 -70 31 -70 65v95h-234c-29 0 -50 18 -50 45c0 21 10 35 19 50z" />
    <glyph glyph-name="five.taboldstyle" 
d="M73 -121c-24 25 -25 69 2 96c23 23 67 21 91 0c27 -23 66 -41 96 -41c89 0 130 51 130 104c0 67 -41 104 -109 104c-36 0 -90 -13 -131 -57c-15 -16 -37 -15 -61 -1s-27 36 -23 61l44 282c4 25 25 40 46 40h278c32 0 59 -29 59 -64c0 -33 -28 -64 -59 -64h-207l-20 -122
c26 23 74 35 117 35c106 0 203 -85 203 -214c0 -139 -102 -240 -267 -240c-70 0 -138 32 -189 81z" />
    <glyph glyph-name="seven.taboldstyle" 
d="M512 366l-233 -532c-14 -32 -61 -49 -97 -35c-36 16 -51 58 -36 92l194 447h-221c-32 0 -61 31 -61 64c0 36 28 65 61 65h354c32 0 56 -13 56 -45c0 -16 -10 -41 -17 -56z" />
    <glyph glyph-name="nine.taboldstyle" 
d="M194 -45c19 -16 50 -25 72 -25c98 0 124 107 124 197c-9 -29 -50 -76 -142 -76c-67 0 -195 55 -195 206c0 126 95 219 238 219c123 0 221 -109 235 -248c2 -22 3 -46 3 -70c0 -168 -50 -359 -257 -359c-59 0 -127 10 -171 64c-12 14 -18 31 -18 47c0 31 28 63 62 63
c17 0 35 -7 49 -18zM198 257c0 -47 39 -86 86 -86s86 39 86 86s-39 86 -86 86s-86 -39 -86 -86z" />
    <glyph glyph-name="zero.oldstyle" horiz-adv-x="633" 
d="M316 -9c-137 0 -262 108 -262 271c0 166 125 270 262 270c140 0 263 -104 263 -270c0 -163 -123 -271 -263 -271zM316 122c70 0 131 56 131 139c0 85 -61 138 -131 138c-68 0 -130 -53 -130 -138c0 -83 62 -139 130 -139z" />
    <glyph glyph-name="one.oldstyle" horiz-adv-x="428" 
d="M60 438l223 87c13 6 25 8 34 8h2c18 0 31 -15 31 -31v-446c0 -35 -32 -65 -70 -65c-36 0 -70 31 -70 65v301l-100 -35c-26 -9 -59 3 -72 31c-14 28 -4 73 22 85z" />
    <glyph glyph-name="two.oldstyle" horiz-adv-x="536" 
d="M190 361c-16 -22 -58 -38 -89 -19c-32 19 -39 46 -26 77c29 68 94 113 194 113c125 0 197 -78 197 -163c0 -46 -30 -90 -62 -121l-125 -126h148c31 0 57 -28 57 -61c0 -31 -27 -61 -57 -61h-340c-24 0 -40 19 -40 45c0 15 8 35 29 54l205 215c18 19 32 33 32 47
c0 22 -15 43 -52 43c-11 0 -29 -2 -45 -13c-10 -7 -18 -19 -26 -30z" />
    <glyph glyph-name="three.oldstyle" horiz-adv-x="521" 
d="M168 326c-42 -27 -69 -24 -94 2c-23 25 -19 63 4 85c43 41 106 66 176 62c114 -6 197 -90 194 -184c0 -54 -36 -101 -84 -128c72 -26 118 -108 112 -178c-11 -112 -127 -195 -258 -186c-66 4 -122 31 -165 76c-20 20 -27 61 -2 89c22 25 61 32 95 3c23 -19 56 -32 83 -33
c50 -3 90 36 94 70c1 12 5 87 -83 87h-32c-30 0 -56 27 -56 60c0 31 27 60 56 60h26c69 0 64 68 64 71c0 20 -17 63 -66 63c-26 0 -49 -9 -64 -19z" />
    <glyph glyph-name="four.oldstyle" horiz-adv-x="569" 
d="M180 81h124v199zM39 58l229 365c21 33 43 53 87 53c52 0 90 -38 90 -86v-309h41c30 0 55 -27 55 -59c0 -30 -26 -59 -55 -59h-41v-95c0 -35 -32 -65 -71 -65c-36 0 -70 31 -70 65v95h-234c-29 0 -50 18 -50 45c0 21 10 35 19 50z" />
    <glyph glyph-name="five.oldstyle" horiz-adv-x="555" 
d="M60 -121c-24 25 -25 69 2 96c23 23 67 21 91 0c27 -23 66 -41 96 -41c89 0 130 51 130 104c0 67 -41 104 -109 104c-36 0 -90 -13 -131 -57c-15 -16 -37 -15 -61 -1s-27 36 -23 61l44 282c4 25 25 40 46 40h278c32 0 59 -29 59 -64c0 -33 -28 -64 -59 -64h-207l-20 -122
c26 23 74 35 117 35c106 0 203 -85 203 -214c0 -139 -102 -240 -267 -240c-70 0 -138 32 -189 81z" />
    <glyph glyph-name="six.oldstyle" horiz-adv-x="579" 
d="M392 515c-19 16 -50 22 -72 22c-89 0 -125 -95 -124 -181v-16c9 29 50 76 142 76c67 0 195 -55 195 -206c0 -126 -95 -219 -238 -219c-124 0 -223 89 -235 228c-16 202 19 457 265 449c57 -2 118 -13 160 -64c23 -28 26 -63 -2 -90c-26 -26 -65 -20 -91 1zM388 210
c0 47 -39 86 -86 86s-86 -39 -86 -86s39 -86 86 -86s86 39 86 86z" />
    <glyph glyph-name="seven.oldstyle" horiz-adv-x="506" 
d="M475 366l-233 -532c-14 -32 -61 -49 -97 -35c-36 16 -51 58 -36 92l194 447h-221c-32 0 -61 31 -61 64c0 36 28 65 61 65h354c32 0 56 -13 56 -45c0 -16 -10 -41 -17 -56z" />
    <glyph glyph-name="eight.oldstyle" horiz-adv-x="596" 
d="M96 485c0 101 91 183 202 183s203 -82 203 -183c0 -46 -18 -83 -48 -110c57 -33 94 -94 94 -165c0 -125 -112 -219 -249 -219s-249 94 -249 219c0 72 37 132 94 165c-29 28 -47 65 -47 110zM189 217c0 -55 51 -96 109 -96s109 41 109 96c0 50 -37 98 -110 98
c-71 0 -108 -48 -108 -98zM231 481c0 -33 22 -63 67 -63s67 30 67 63c0 32 -24 61 -67 61s-67 -29 -67 -61z" />
    <glyph glyph-name="nine.oldstyle" horiz-adv-x="577" 
d="M193 -45c19 -16 50 -25 72 -25c98 0 124 107 124 197c-9 -29 -50 -76 -142 -76c-67 0 -195 55 -195 206c0 126 95 219 238 219c123 0 221 -109 235 -248c2 -22 3 -46 3 -70c0 -168 -50 -359 -257 -359c-59 0 -127 10 -171 64c-12 14 -18 31 -18 47c0 31 28 63 62 63
c17 0 35 -7 49 -18zM197 257c0 -47 39 -86 86 -86s86 39 86 86s-39 86 -86 86s-86 -39 -86 -86z" />
    <glyph glyph-name="Edieresis" unicode="&#xcb;" horiz-adv-x="564" 
d="M454 689h-318c-37 0 -57 -28 -58 -62v-565c1 -34 21 -62 58 -62h327c32 0 60 31 60 64c0 35 -27 64 -60 64h-239v148h199c32 0 60 30 60 63c0 35 -27 63 -60 63h-199v158h230c32 0 60 31 60 64c0 36 -27 65 -60 65zM121 801c0 38 33 68 73 68c39 0 71 -30 71 -68
c0 -39 -32 -69 -71 -69c-40 0 -73 30 -73 69zM316 801c0 38 33 68 73 68c39 0 71 -30 71 -68c0 -39 -32 -69 -71 -69c-40 0 -73 30 -73 69z" />
    <glyph glyph-name="zero.numr" horiz-adv-x="367" 
d="M33 453c0 115 33 207 150 207c118 0 151 -92 151 -207s-33 -207 -151 -207c-117 0 -150 92 -150 207zM124 453c0 -65 15 -117 59 -117c46 0 58 52 58 117c0 64 -12 118 -58 118c-44 0 -59 -54 -59 -118z" />
    <glyph glyph-name="one.numr" horiz-adv-x="225" 
d="M32 607c108 50 118 53 124 53c13 0 23 -6 23 -23v-346c0 -23 -21 -43 -46 -43c-23 0 -46 21 -46 43v256l-21 -9c-5 -2 -10 -3 -15 -3c-20 0 -38 16 -38 39c0 13 7 27 19 33z" />
    <glyph glyph-name="two.numr" horiz-adv-x="330" 
d="M113 539c-8 -19 -28 -34 -56 -26c-20 6 -34 29 -26 54c20 59 68 93 133 93c72 0 133 -50 133 -123c0 -39 -14 -74 -42 -102l-83 -95h88c21 0 40 -21 40 -45c0 -21 -19 -43 -40 -43h-194c-24 0 -37 14 -37 33c0 12 6 24 13 33l143 177c10 13 20 28 20 42
c0 19 -17 36 -46 36c-21 0 -37 -13 -46 -34z" />
    <glyph glyph-name="three.numr" horiz-adv-x="323" 
d="M109 564c-12 -9 -23 -13 -32 -13c-11 0 -21 5 -30 14c-15 17 -11 43 3 57c27 23 66 40 108 38c71 -4 122 -56 120 -114c0 -32 -17 -60 -44 -77c38 -18 58 -56 59 -96c0 -81 -64 -124 -142 -124c-41 0 -89 20 -116 47c-13 13 -18 41 -1 59c8 9 20 15 32 15
c10 0 21 -11 30 -17c13 -9 28 -18 48 -18c33 0 56 21 56 46c0 19 -10 41 -55 41h-14c-20 0 -37 18 -37 40c0 20 17 40 37 40h16c37 0 34 36 34 38c0 11 -9 35 -35 35c-15 0 -29 -5 -37 -11z" />
    <glyph glyph-name="four.numr" horiz-adv-x="347" 
d="M118 423h63v102zM22 403l138 223c13 20 29 34 56 34c33 0 58 -25 58 -56v-181h20c21 0 38 -19 38 -39c0 -21 -18 -40 -38 -40h-20v-53c0 -23 -21 -43 -47 -43c-23 0 -46 21 -46 43v53h-137c-18 0 -33 13 -33 31c0 10 6 20 11 28z" />
    <glyph glyph-name="five.numr" horiz-adv-x="346" 
d="M40 295c-7 9 -12 20 -12 32s4 22 13 32c13 15 45 15 60 0c15 -13 38 -23 56 -23c50 0 73 28 73 58c0 37 -23 59 -62 59c-20 0 -45 -4 -68 -28c-11 -12 -34 -16 -46 -8c-23 15 -19 34 -17 51l25 161c3 15 18 26 32 26h167c20 0 39 -19 39 -42c0 -22 -19 -42 -39 -42h-122
l-11 -67c21 14 44 20 67 20c65 0 125 -51 125 -130c0 -85 -63 -148 -163 -148c-44 0 -87 20 -117 49z" />
    <glyph glyph-name="six.numr" horiz-adv-x="352" 
d="M234 562c-13 10 -27 12 -40 12c-48 0 -73 -51 -72 -109c12 17 44 39 83 39c47 0 121 -29 121 -122c0 -78 -59 -136 -147 -136c-76 0 -137 55 -144 141c-1 16 -2 32 -2 49c0 111 33 228 164 224c35 -1 72 -8 99 -40c8 -10 12 -19 12 -30c0 -10 -4 -20 -13 -29
c-16 -17 -43 -13 -61 1zM231 382c0 25 -21 47 -48 47c-25 0 -47 -22 -47 -47c0 -27 22 -48 47 -48c27 0 48 21 48 48z" />
    <glyph glyph-name="seven.numr" horiz-adv-x="315" 
d="M294 588l-139 -318c-10 -22 -41 -33 -64 -23c-24 10 -34 38 -24 61l113 262h-126c-20 0 -40 20 -40 42c0 24 19 43 40 43h213c21 0 37 -9 37 -30c0 -12 -6 -27 -10 -37z" />
    <glyph glyph-name="eight.numr" horiz-adv-x="364" 
d="M182 332c33 0 61 22 61 54c0 27 -20 55 -62 55c-40 0 -60 -28 -60 -55c0 -32 28 -54 61 -54zM182 510c24 0 37 16 37 34c0 17 -14 33 -37 33s-37 -16 -37 -33c0 -18 13 -34 37 -34zM182 246c-84 0 -154 55 -154 133c0 42 26 87 64 101c-24 15 -36 44 -36 76
c0 54 41 104 126 104s126 -50 126 -104c0 -32 -12 -61 -36 -76c38 -14 64 -59 64 -101c0 -78 -70 -133 -154 -133z" />
    <glyph glyph-name="nine.numr" horiz-adv-x="352" 
d="M118 344c13 -10 27 -12 40 -12c54 0 72 51 72 119c-16 -37 -50 -49 -83 -49c-47 0 -121 29 -121 122c0 78 59 136 147 136c76 0 137 -55 144 -141c1 -16 2 -32 2 -49c0 -111 -33 -228 -164 -224c-35 1 -72 8 -99 40c-8 10 -12 19 -12 30c0 10 4 20 13 29
c16 17 43 13 61 -1zM121 524c0 -25 21 -47 48 -47c25 0 47 22 47 47c0 27 -22 48 -47 48c-27 0 -48 -21 -48 -48z" />
    <glyph glyph-name="zerosuperior" unicode="&#x2070;" horiz-adv-x="367" 
d="M33 630c0 115 33 207 150 207c118 0 151 -92 151 -207s-33 -207 -151 -207c-117 0 -150 92 -150 207zM124 630c0 -65 15 -117 59 -117c46 0 58 52 58 117c0 64 -12 118 -58 118c-44 0 -59 -54 -59 -118z" />
    <glyph glyph-name="foursuperior" unicode="&#x2074;" horiz-adv-x="350" 
d="M122 598h63v102zM26 578l138 223c13 20 29 34 56 34c33 0 58 -25 58 -56v-181h20c21 0 38 -19 38 -39c0 -21 -18 -40 -38 -40h-20v-53c0 -23 -21 -43 -47 -43c-23 0 -46 21 -46 43v53h-137c-18 0 -33 13 -33 31c0 10 6 20 11 28z" />
    <glyph glyph-name="fivesuperior" unicode="&#x2075;" horiz-adv-x="347" 
d="M40 472c-7 9 -12 20 -12 32s4 22 13 32c13 15 45 15 60 0c15 -13 38 -23 56 -23c50 0 73 28 73 58c0 37 -23 59 -62 59c-20 0 -45 -4 -68 -28c-11 -12 -34 -16 -46 -8c-23 15 -19 34 -17 51l25 161c3 15 18 26 32 26h167c20 0 39 -19 39 -42c0 -22 -19 -42 -39 -42h-122
l-11 -67c21 14 44 20 67 20c65 0 125 -51 125 -130c0 -85 -63 -148 -163 -148c-44 0 -87 20 -117 49z" />
    <glyph glyph-name="sixsuperior" unicode="&#x2076;" horiz-adv-x="352" 
d="M234 739c-13 10 -27 12 -40 12c-48 0 -73 -51 -72 -109c12 17 44 39 83 39c47 0 121 -29 121 -122c0 -78 -59 -136 -147 -136c-76 0 -137 55 -144 141c-1 16 -2 32 -2 49c0 111 33 228 164 224c35 -1 72 -8 99 -40c8 -10 12 -19 12 -30c0 -10 -4 -20 -13 -29
c-16 -17 -43 -13 -61 1zM231 559c0 25 -21 47 -48 47c-25 0 -47 -22 -47 -47c0 -27 22 -48 47 -48c27 0 48 21 48 48z" />
    <glyph glyph-name="sevensuperior" unicode="&#x2077;" horiz-adv-x="319" 
d="M296 765l-139 -318c-10 -22 -41 -33 -64 -23c-24 10 -34 38 -24 61l113 262h-126c-20 0 -40 20 -40 42c0 24 19 43 40 43h213c21 0 37 -9 37 -30c0 -12 -6 -27 -10 -37z" />
    <glyph glyph-name="eightsuperior" unicode="&#x2078;" horiz-adv-x="366" 
d="M183 509c33 0 61 22 61 54c0 27 -20 55 -62 55c-40 0 -60 -28 -60 -55c0 -32 28 -54 61 -54zM183 687c24 0 37 16 37 34c0 17 -14 33 -37 33s-37 -16 -37 -33c0 -18 13 -34 37 -34zM183 423c-84 0 -154 55 -154 133c0 42 26 87 64 101c-24 15 -36 44 -36 76
c0 54 41 104 126 104s126 -50 126 -104c0 -32 -12 -61 -36 -76c38 -14 64 -59 64 -101c0 -78 -70 -133 -154 -133z" />
    <glyph glyph-name="ninesuperior" unicode="&#x2079;" horiz-adv-x="352" 
d="M118 521c13 -10 27 -12 40 -12c54 0 72 51 72 119c-16 -37 -50 -49 -83 -49c-47 0 -121 29 -121 122c0 78 59 136 147 136c76 0 137 -55 144 -141c1 -16 2 -32 2 -49c0 -111 -33 -228 -164 -224c-35 1 -72 8 -99 40c-8 10 -12 19 -12 30c0 10 4 20 13 29
c16 17 43 13 61 -1zM121 701c0 -25 21 -47 48 -47c25 0 47 22 47 47c0 27 -22 48 -47 48c-27 0 -48 -21 -48 -48z" />
    <glyph glyph-name="zeroinferior" unicode="&#x2080;" horiz-adv-x="367" 
d="M33 25c0 115 33 207 150 207c118 0 151 -92 151 -207s-33 -207 -151 -207c-117 0 -150 92 -150 207zM124 25c0 -65 15 -117 59 -117c46 0 58 52 58 117c0 64 -12 118 -58 118c-44 0 -59 -54 -59 -118z" />
    <glyph glyph-name="oneinferior" unicode="&#x2081;" horiz-adv-x="225" 
d="M32 178c108 50 118 53 124 53c13 0 23 -6 23 -23v-346c0 -23 -21 -43 -46 -43c-23 0 -46 21 -46 43v256l-21 -9c-5 -2 -10 -3 -15 -3c-20 0 -38 16 -38 39c0 13 7 27 19 33z" />
    <glyph glyph-name="twoinferior" unicode="&#x2082;" horiz-adv-x="331" 
d="M113 111c-8 -19 -28 -34 -56 -26c-20 6 -34 29 -26 54c20 59 68 93 133 93c72 0 133 -50 133 -123c0 -39 -14 -74 -42 -102l-83 -95h88c21 0 40 -21 40 -45c0 -21 -19 -43 -40 -43h-194c-24 0 -37 14 -37 33c0 12 6 24 13 33l143 177c10 13 20 28 20 42
c0 19 -17 36 -46 36c-21 0 -37 -13 -46 -34z" />
    <glyph glyph-name="threeinferior" unicode="&#x2083;" horiz-adv-x="323" 
d="M109 136c-12 -9 -23 -13 -32 -13c-11 0 -21 5 -30 14c-15 17 -11 43 3 57c27 23 66 40 108 38c71 -4 122 -56 120 -114c0 -32 -17 -60 -44 -77c38 -18 58 -56 59 -96c0 -81 -64 -124 -142 -124c-41 0 -89 20 -116 47c-13 13 -18 41 -1 59c8 9 20 15 32 15
c10 0 21 -11 30 -17c13 -9 28 -18 48 -18c33 0 56 21 56 46c0 19 -10 41 -55 41h-14c-20 0 -37 18 -37 40c0 20 17 40 37 40h16c37 0 34 36 34 38c0 11 -9 35 -35 35c-15 0 -29 -5 -37 -11z" />
    <glyph glyph-name="fourinferior" unicode="&#x2084;" horiz-adv-x="346" 
d="M118 -6h63v102zM22 -26l138 223c13 20 29 34 56 34c33 0 58 -25 58 -56v-181h20c21 0 38 -19 38 -39c0 -21 -18 -40 -38 -40h-20v-53c0 -23 -21 -43 -47 -43c-23 0 -46 21 -46 43v53h-137c-18 0 -33 13 -33 31c0 10 6 20 11 28z" />
    <glyph glyph-name="fiveinferior" unicode="&#x2085;" horiz-adv-x="345" 
d="M40 -133c-7 9 -12 20 -12 32s4 22 13 32c13 15 45 15 60 0c15 -13 38 -23 56 -23c50 0 73 28 73 58c0 37 -23 59 -62 59c-20 0 -45 -4 -68 -28c-11 -12 -34 -16 -46 -8c-23 15 -19 34 -17 51l25 161c3 15 18 26 32 26h167c20 0 39 -19 39 -42c0 -22 -19 -42 -39 -42h-122
l-11 -67c21 14 44 20 67 20c65 0 125 -51 125 -130c0 -85 -63 -148 -163 -148c-44 0 -87 20 -117 49z" />
    <glyph glyph-name="sixinferior" unicode="&#x2086;" horiz-adv-x="352" 
d="M234 134c-13 10 -27 12 -40 12c-48 0 -73 -51 -72 -109c12 17 44 39 83 39c47 0 121 -29 121 -122c0 -78 -59 -136 -147 -136c-76 0 -137 55 -144 141c-1 16 -2 32 -2 49c0 111 33 228 164 224c35 -1 72 -8 99 -40c8 -10 12 -19 12 -30c0 -10 -4 -20 -13 -29
c-16 -17 -43 -13 -61 1zM231 -46c0 25 -21 47 -48 47c-25 0 -47 -22 -47 -47c0 -27 22 -48 47 -48c27 0 48 21 48 48z" />
    <glyph glyph-name="seveninferior" unicode="&#x2087;" horiz-adv-x="314" 
d="M294 160l-139 -318c-10 -22 -41 -33 -64 -23c-24 10 -34 38 -24 61l113 262h-126c-20 0 -40 20 -40 42c0 24 19 43 40 43h213c21 0 37 -9 37 -30c0 -12 -6 -27 -10 -37z" />
    <glyph glyph-name="eightinferior" unicode="&#x2088;" horiz-adv-x="364" 
d="M182 -96c33 0 61 22 61 54c0 27 -20 55 -62 55c-40 0 -60 -28 -60 -55c0 -32 28 -54 61 -54zM182 82c24 0 37 16 37 34c0 17 -14 33 -37 33s-37 -16 -37 -33c0 -18 13 -34 37 -34zM182 -182c-84 0 -154 55 -154 133c0 42 26 87 64 101c-24 15 -36 44 -36 76
c0 54 41 104 126 104s126 -50 126 -104c0 -32 -12 -61 -36 -76c38 -14 64 -59 64 -101c0 -78 -70 -133 -154 -133z" />
    <glyph glyph-name="nineinferior" unicode="&#x2089;" horiz-adv-x="352" 
d="M118 -84c13 -10 27 -12 40 -12c54 0 72 51 72 119c-16 -37 -50 -49 -83 -49c-47 0 -121 29 -121 122c0 78 59 136 147 136c76 0 137 -55 144 -141c1 -16 2 -32 2 -49c0 -111 -33 -228 -164 -224c-35 1 -72 8 -99 40c-8 10 -12 19 -12 30c0 10 4 20 13 29
c16 17 43 13 61 -1zM121 96c0 -25 21 -47 48 -47c25 0 47 22 47 47c0 27 -22 48 -47 48c-27 0 -48 -21 -48 -48z" />
    <glyph glyph-name="zero.dnom" horiz-adv-x="367" 
d="M33 198c0 115 33 207 150 207c118 0 151 -92 151 -207s-33 -207 -151 -207c-117 0 -150 92 -150 207zM124 198c0 -65 15 -117 59 -117c46 0 58 52 58 117c0 64 -12 118 -58 118c-44 0 -59 -54 -59 -118z" />
    <glyph glyph-name="one.dnom" horiz-adv-x="225" 
d="M32 354c108 50 118 53 124 53c13 0 23 -6 23 -23v-346c0 -23 -21 -43 -46 -43c-23 0 -46 21 -46 43v256l-21 -9c-5 -2 -10 -3 -15 -3c-20 0 -38 16 -38 39c0 13 7 27 19 33z" />
    <glyph glyph-name="two.dnom" horiz-adv-x="330" 
d="M113 287c-8 -19 -28 -34 -56 -26c-20 6 -34 29 -26 54c20 59 68 93 133 93c72 0 133 -50 133 -123c0 -39 -14 -74 -42 -102l-83 -95h88c21 0 40 -21 40 -45c0 -21 -19 -43 -40 -43h-194c-24 0 -37 14 -37 33c0 12 6 24 13 33l143 177c10 13 20 28 20 42
c0 19 -17 36 -46 36c-21 0 -37 -13 -46 -34z" />
    <glyph glyph-name="three.dnom" horiz-adv-x="323" 
d="M109 306c-12 -9 -23 -13 -32 -13c-11 0 -21 5 -30 14c-15 17 -11 43 3 57c27 23 66 40 108 38c71 -4 122 -56 120 -114c0 -32 -17 -60 -44 -77c38 -18 58 -56 59 -96c0 -81 -64 -124 -142 -124c-41 0 -89 20 -116 47c-13 13 -18 41 -1 59c8 9 20 15 32 15
c10 0 21 -11 30 -17c13 -9 28 -18 48 -18c33 0 56 21 56 46c0 19 -10 41 -55 41h-14c-20 0 -37 18 -37 40c0 20 17 40 37 40h16c37 0 34 36 34 38c0 11 -9 35 -35 35c-15 0 -29 -5 -37 -11z" />
    <glyph glyph-name="four.dnom" horiz-adv-x="347" 
d="M118 170h63v102zM22 150l138 223c13 20 29 34 56 34c33 0 58 -25 58 -56v-181h20c21 0 38 -19 38 -39c0 -21 -18 -40 -38 -40h-20v-53c0 -23 -21 -43 -47 -43c-23 0 -46 21 -46 43v53h-137c-18 0 -33 13 -33 31c0 10 6 20 11 28z" />
    <glyph glyph-name="five.dnom" horiz-adv-x="346" 
d="M40 40c-7 9 -12 20 -12 32s4 22 13 32c13 15 45 15 60 0c15 -13 38 -23 56 -23c50 0 73 28 73 58c0 37 -23 59 -62 59c-20 0 -45 -4 -68 -28c-11 -12 -34 -16 -46 -8c-23 15 -19 34 -17 51l25 161c3 15 18 26 32 26h167c20 0 39 -19 39 -42c0 -22 -19 -42 -39 -42h-122
l-11 -67c21 14 44 20 67 20c65 0 125 -51 125 -130c0 -85 -63 -148 -163 -148c-44 0 -87 20 -117 49z" />
    <glyph glyph-name="six.dnom" horiz-adv-x="352" 
d="M234 307c-13 10 -27 12 -40 12c-48 0 -73 -51 -72 -109c12 17 44 39 83 39c47 0 121 -29 121 -122c0 -78 -59 -136 -147 -136c-76 0 -137 55 -144 141c-1 16 -2 32 -2 49c0 111 33 228 164 224c35 -1 72 -8 99 -40c8 -10 12 -19 12 -30c0 -10 -4 -20 -13 -29
c-16 -17 -43 -13 -61 1zM231 127c0 25 -21 47 -48 47c-25 0 -47 -22 -47 -47c0 -27 22 -48 47 -48c27 0 48 21 48 48z" />
    <glyph glyph-name="seven.dnom" horiz-adv-x="315" 
d="M294 336l-139 -318c-10 -22 -41 -33 -64 -23c-24 10 -34 38 -24 61l113 262h-126c-20 0 -40 20 -40 42c0 24 19 43 40 43h213c21 0 37 -9 37 -30c0 -12 -6 -27 -10 -37z" />
    <glyph glyph-name="eight.dnom" horiz-adv-x="366" 
d="M183 77c33 0 61 22 61 54c0 27 -20 55 -62 55c-40 0 -60 -28 -60 -55c0 -32 28 -54 61 -54zM183 255c24 0 37 16 37 34c0 17 -14 33 -37 33s-37 -16 -37 -33c0 -18 13 -34 37 -34zM183 -9c-84 0 -154 55 -154 133c0 42 26 87 64 101c-24 15 -36 44 -36 76
c0 54 41 104 126 104s126 -50 126 -104c0 -32 -12 -61 -36 -76c38 -14 64 -59 64 -101c0 -78 -70 -133 -154 -133z" />
    <glyph glyph-name="nine.dnom" horiz-adv-x="352" 
d="M118 89c13 -10 27 -12 40 -12c54 0 72 51 72 119c-16 -37 -50 -49 -83 -49c-47 0 -121 29 -121 122c0 78 59 136 147 136c76 0 137 -55 144 -141c1 -16 2 -32 2 -49c0 -111 -33 -228 -164 -224c-35 1 -72 8 -99 40c-8 10 -12 19 -12 30c0 10 4 20 13 29
c16 17 43 13 61 -1zM121 269c0 -25 21 -47 48 -47c25 0 47 22 47 47c0 27 -22 48 -47 48c-27 0 -48 -21 -48 -48z" />
    <glyph glyph-name="twosuperior" unicode="&#xb2;" horiz-adv-x="330" 
d="M113 716c-8 -19 -28 -34 -56 -26c-20 6 -34 29 -26 54c20 59 68 93 133 93c72 0 133 -50 133 -123c0 -39 -14 -74 -42 -102l-83 -95h88c21 0 40 -21 40 -45c0 -21 -19 -43 -40 -43h-194c-24 0 -37 14 -37 33c0 12 6 24 13 33l143 177c10 13 20 28 20 42
c0 19 -17 36 -46 36c-21 0 -37 -13 -46 -34z" />
    <glyph glyph-name="threesuperior" unicode="&#xb3;" horiz-adv-x="324" 
d="M110 741c-12 -9 -23 -13 -32 -13c-11 0 -21 5 -30 14c-15 17 -11 43 3 57c27 23 66 40 108 38c71 -4 122 -56 120 -114c0 -32 -17 -60 -44 -77c38 -18 58 -56 59 -96c0 -81 -64 -124 -142 -124c-41 0 -89 20 -116 47c-13 13 -18 41 -1 59c8 9 20 15 32 15
c10 0 21 -11 30 -17c13 -9 28 -18 48 -18c33 0 56 21 56 46c0 19 -10 41 -55 41h-14c-20 0 -37 18 -37 40c0 20 17 40 37 40h16c37 0 34 36 34 38c0 11 -9 35 -35 35c-15 0 -29 -5 -37 -11z" />
    <glyph glyph-name="onesuperior" unicode="&#xb9;" horiz-adv-x="225" 
d="M32 782c108 50 118 53 124 53c13 0 23 -6 23 -23v-346c0 -23 -21 -43 -46 -43c-23 0 -46 21 -46 43v256l-21 -9c-5 -2 -10 -3 -15 -3c-20 0 -38 16 -38 39c0 13 7 27 19 33z" />
    <glyph glyph-name="onequarter" unicode="&#xbc;" horiz-adv-x="802" 
d="M613 626l-416 -624c-10 -16 -30 -18 -46 -9c-18 10 -21 31 -11 46l416 626c9 13 31 17 45 8c17 -11 22 -32 12 -47zM55 607c108 50 118 53 124 53c13 0 23 -6 23 -23v-346c0 -23 -21 -43 -46 -43c-23 0 -46 21 -46 43v256l-21 -9c-5 -2 -10 -3 -15 -3
c-20 0 -38 16 -38 39c0 13 7 27 19 33zM616 170h-63l63 102v-102zM595 373l-138 -223c-5 -8 -11 -18 -11 -28c0 -18 15 -31 33 -31h137v-53c0 -22 23 -43 46 -43c26 0 47 20 47 43v53h20c20 0 38 19 38 40c0 20 -17 39 -38 39h-20v181c0 31 -25 56 -58 56
c-27 0 -43 -14 -56 -34z" />
    <glyph glyph-name="threequarters" unicode="&#xbe;" horiz-adv-x="897" 
d="M708 626l-416 -624c-10 -16 -30 -18 -46 -9c-18 10 -21 31 -11 46l416 626c9 13 31 17 45 8c17 -11 22 -32 12 -47zM711 170h-63l63 102v-102zM690 373l-138 -223c-5 -8 -11 -18 -11 -28c0 -18 15 -31 33 -31h137v-53c0 -22 23 -43 46 -43c26 0 47 20 47 43v53h20
c20 0 38 19 38 40c0 20 -17 39 -38 39h-20v181c0 31 -25 56 -58 56c-27 0 -43 -14 -56 -34zM130 564c-12 -9 -23 -13 -32 -13c-11 0 -21 5 -30 14c-15 17 -11 43 3 57c27 23 66 40 108 38c71 -4 122 -56 120 -114c0 -32 -17 -60 -44 -77c38 -18 58 -56 59 -96
c0 -81 -64 -124 -142 -124c-41 0 -89 20 -116 47c-13 13 -18 41 -1 59c8 9 20 15 32 15c10 0 21 -11 30 -17c13 -9 28 -18 48 -18c33 0 56 21 56 46c0 19 -10 41 -55 41h-14c-20 0 -37 18 -37 40c0 20 17 40 37 40h16c37 0 34 36 34 38c0 11 -9 35 -35 35
c-15 0 -29 -5 -37 -11z" />
    <glyph glyph-name="onehalf" unicode="&#xbd;" horiz-adv-x="810" 
d="M612 626l-416 -624c-10 -16 -30 -18 -46 -9c-18 10 -21 31 -11 46l416 626c9 13 31 17 45 8c17 -11 22 -32 12 -47zM54 607c108 50 118 53 124 53c13 0 23 -6 23 -23v-346c0 -23 -21 -43 -46 -43c-23 0 -46 21 -46 43v256l-21 -9c-5 -2 -10 -3 -15 -3
c-20 0 -38 16 -38 39c0 13 7 27 19 33zM578 287c9 21 25 34 46 34c29 0 46 -17 46 -36c0 -14 -10 -29 -20 -42l-143 -177c-7 -9 -13 -21 -13 -33c0 -19 13 -33 37 -33h194c21 0 40 22 40 43c0 24 -19 45 -40 45h-88l83 95c28 28 42 63 42 102c0 73 -61 123 -133 123
c-65 0 -113 -34 -133 -93c-8 -25 6 -48 26 -54c28 -8 48 7 56 26z" />
    <glyph glyph-name="ordfeminine" unicode="&#xaa;" horiz-adv-x="438" 
d="M294 605v6c1 25 24 45 50 45c28 0 51 -20 51 -45v-253c0 -25 -23 -45 -51 -45c-26 0 -49 20 -50 45v6c-22 -35 -62 -54 -101 -54c-85 0 -163 64 -163 175s78 174 163 174c22 0 72 -10 101 -54zM134 484c0 -44 29 -85 79 -85c45 0 82 41 82 85c0 45 -37 85 -82 85
c-50 0 -79 -40 -79 -85zM76 253h285c19 0 34 -18 34 -38c0 -21 -16 -40 -34 -40h-285c-18 0 -34 19 -34 40c0 20 15 38 34 38z" />
    <glyph glyph-name="ordmasculine" unicode="&#xba;" horiz-adv-x="413" 
d="M206 310c-98 0 -176 70 -176 176c0 105 78 173 176 173s177 -68 177 -173c0 -106 -79 -176 -177 -176zM206 407c42 0 76 33 76 79c0 45 -34 76 -76 76c-41 0 -75 -31 -75 -76c0 -46 34 -79 75 -79zM76 253h261c19 0 34 -18 34 -38c0 -21 -16 -40 -34 -40h-261
c-18 0 -34 19 -34 40c0 20 15 38 34 38z" />
    <glyph glyph-name="l.alt1" horiz-adv-x="310" 
d="M249 0h-28c-132 0 -163 79 -163 203v461c1 34 33 62 70 62c38 0 70 -27 70 -62v-474c-1 -33 13 -64 50 -64c47 0 69 -30 69 -63c0 -34 -24 -63 -68 -63z" />
    <glyph glyph-name="a.alt1" horiz-adv-x="532" 
d="M228 95c17 0 84 2 107 69c-26 24 -67 27 -87 27c-59 0 -79 -25 -79 -49c0 -25 26 -47 59 -47zM152 332c-21 -11 -51 -9 -69 12c-20 23 -21 58 0 77c61 56 137 55 176 55c116 0 218 -58 218 -199v-220c0 -35 -32 -62 -70 -62c-37 0 -69 28 -70 62v6
c-31 -54 -92 -72 -133 -72c-107 0 -177 61 -177 150c0 77 75 141 200 141c33 0 82 -12 110 -31c0 59 -23 105 -94 105c-16 0 -53 -1 -91 -24z" />
    <glyph glyph-name="y.alt1" horiz-adv-x="482" 
d="M-8 -165c2 33 25 52 58 52h9c47 0 63 38 81 83l29 78l-145 338c-13 36 7 74 41 83c44 11 76 -9 87 -40l88 -228l90 228c11 31 43 51 87 40c34 -9 54 -47 41 -83l-195 -469c-46 -106 -91 -150 -192 -150c-46 0 -82 22 -79 68z" />
    <glyph glyph-name="lslash.alt1" horiz-adv-x="337" 
d="M82 254l-27 -18c-17 -8 -40 -2 -52 15c-11 19 -6 44 10 52l69 46v315c1 34 33 62 70 62c38 0 70 -27 70 -62v-222l50 33c16 11 38 4 50 -16c11 -14 6 -41 -9 -50l-91 -61v-158c-1 -33 13 -64 50 -64c47 0 69 -30 69 -63c0 -34 -24 -63 -68 -63h-28
c-132 0 -163 79 -163 203v51z" />
    <glyph glyph-name="lacute.alt1" horiz-adv-x="310" 
d="M106 766c-29 0 -43 23 -22 63l34 64c18 34 40 64 99 49c41 -10 64 -40 20 -83l-65 -59c-29 -28 -47 -34 -66 -34zM249 0h-28c-132 0 -163 79 -163 203v461c1 34 33 62 70 62c38 0 70 -27 70 -62v-474c-1 -33 13 -64 50 -64c47 0 69 -30 69 -63c0 -34 -24 -63 -68 -63z
" />
    <glyph glyph-name="lcommaaccent.alt1" horiz-adv-x="310" 
d="M232 -101c0 -72 -65 -162 -131 -162c-18 0 -36 10 -36 25c0 7 1 17 18 35c33 38 32 70 32 95c0 44 26 62 58 62c33 0 59 -24 59 -55zM249 0h-28c-132 0 -163 79 -163 203v461c1 34 33 62 70 62c38 0 70 -27 70 -62v-474c-1 -33 13 -64 50 -64c47 0 69 -30 69 -63
c0 -34 -24 -63 -68 -63z" />
    <glyph glyph-name="lcaron.alt1" horiz-adv-x="352" 
d="M429 651c-11 -102 -68 -228 -143 -228c-21 0 -36 19 -20 45c25 40 44 112 44 156c0 25 3 44 22 57c34 27 103 22 97 -30zM249 0h-28c-132 0 -163 79 -163 203v461c1 34 33 62 70 62c38 0 70 -27 70 -62v-474c-1 -33 13 -64 50 -64c47 0 69 -30 69 -63
c0 -34 -24 -63 -68 -63z" />
    <glyph glyph-name="aacute.alt1" horiz-adv-x="532" 
d="M217 533c-29 0 -34 31 -17 63l45 84c15 27 34 63 93 48c41 -10 63 -39 26 -84l-72 -74c-31 -31 -51 -37 -75 -37zM228 95c17 0 84 2 107 69c-26 24 -67 27 -87 27c-59 0 -79 -25 -79 -49c0 -25 26 -47 59 -47zM152 332c-21 -11 -51 -9 -69 12c-20 23 -21 58 0 77
c61 56 137 55 176 55c116 0 218 -58 218 -199v-220c0 -35 -32 -62 -70 -62c-37 0 -69 28 -70 62v6c-31 -54 -92 -72 -133 -72c-107 0 -177 61 -177 150c0 77 75 141 200 141c33 0 82 -12 110 -31c0 59 -23 105 -94 105c-16 0 -53 -1 -91 -24z" />
    <glyph glyph-name="agrave.alt1" horiz-adv-x="532" 
d="M287 533c-24 0 -44 6 -75 37l-72 74c-37 45 -15 74 26 84c59 15 78 -21 93 -48l45 -84c17 -32 12 -63 -17 -63zM228 95c17 0 84 2 107 69c-26 24 -67 27 -87 27c-59 0 -79 -25 -79 -49c0 -25 26 -47 59 -47zM152 332c-21 -11 -51 -9 -69 12c-20 23 -21 58 0 77
c61 56 137 55 176 55c116 0 218 -58 218 -199v-220c0 -35 -32 -62 -70 -62c-37 0 -69 28 -70 62v6c-31 -54 -92 -72 -133 -72c-107 0 -177 61 -177 150c0 77 75 141 200 141c33 0 82 -12 110 -31c0 59 -23 105 -94 105c-16 0 -53 -1 -91 -24z" />
    <glyph glyph-name="acircumflex.alt1" horiz-adv-x="532" 
d="M238 710h44c41 0 61 -34 73 -54l49 -87c12 -19 0 -48 -27 -48c-15 0 -32 4 -59 32l-58 61l-58 -61c-27 -28 -44 -32 -59 -32c-27 0 -39 29 -27 48l49 87c12 20 32 54 73 54zM228 95c17 0 84 2 107 69c-26 24 -67 27 -87 27c-59 0 -79 -25 -79 -49c0 -25 26 -47 59 -47z
M152 332c-21 -11 -51 -9 -69 12c-20 23 -21 58 0 77c61 56 137 55 176 55c116 0 218 -58 218 -199v-220c0 -35 -32 -62 -70 -62c-37 0 -69 28 -70 62v6c-31 -54 -92 -72 -133 -72c-107 0 -177 61 -177 150c0 77 75 141 200 141c33 0 82 -12 110 -31c0 59 -23 105 -94 105
c-16 0 -53 -1 -91 -24z" />
    <glyph glyph-name="adieresis.alt1" horiz-adv-x="532" 
d="M94 613c0 38 33 68 73 68c39 0 71 -30 71 -68c0 -39 -32 -69 -71 -69c-40 0 -73 30 -73 69zM289 613c0 38 33 68 73 68c39 0 71 -30 71 -68c0 -39 -32 -69 -71 -69c-40 0 -73 30 -73 69zM228 95c17 0 84 2 107 69c-26 24 -67 27 -87 27c-59 0 -79 -25 -79 -49
c0 -25 26 -47 59 -47zM152 332c-21 -11 -51 -9 -69 12c-20 23 -21 58 0 77c61 56 137 55 176 55c116 0 218 -58 218 -199v-220c0 -35 -32 -62 -70 -62c-37 0 -69 28 -70 62v6c-31 -54 -92 -72 -133 -72c-107 0 -177 61 -177 150c0 77 75 141 200 141c33 0 82 -12 110 -31
c0 59 -23 105 -94 105c-16 0 -53 -1 -91 -24z" />
    <glyph glyph-name="atilde.alt1" horiz-adv-x="532" 
d="M242 584c-9 8 -18 15 -25 15c-8 0 -17 -7 -19 -21c-2 -11 -6 -24 -25 -30c-17 -5 -38 6 -46 22c-3 7 -3 17 -2 24c12 70 55 92 92 92c28 0 46 -15 60 -27c9 -8 18 -15 26 -15s16 7 18 21c2 11 5 25 26 30c16 4 39 -6 46 -22c3 -7 3 -18 2 -24c-12 -70 -56 -92 -92 -92
c-29 0 -46 15 -61 27zM228 95c17 0 84 2 107 69c-26 24 -67 27 -87 27c-59 0 -79 -25 -79 -49c0 -25 26 -47 59 -47zM152 332c-21 -11 -51 -9 -69 12c-20 23 -21 58 0 77c61 56 137 55 176 55c116 0 218 -58 218 -199v-220c0 -35 -32 -62 -70 -62c-37 0 -69 28 -70 62v6
c-31 -54 -92 -72 -133 -72c-107 0 -177 61 -177 150c0 77 75 141 200 141c33 0 82 -12 110 -31c0 59 -23 105 -94 105c-16 0 -53 -1 -91 -24z" />
    <glyph glyph-name="aring.alt1" horiz-adv-x="532" 
d="M139 644c0 69 53 123 120 123c68 0 122 -54 122 -123c0 -67 -54 -120 -122 -120c-67 0 -120 53 -120 120zM204 644c0 -31 24 -55 55 -55c32 0 57 24 57 55c0 33 -25 58 -57 58c-31 0 -55 -25 -55 -58zM228 95c17 0 84 2 107 69c-26 24 -67 27 -87 27
c-59 0 -79 -25 -79 -49c0 -25 26 -47 59 -47zM152 332c-21 -11 -51 -9 -69 12c-20 23 -21 58 0 77c61 56 137 55 176 55c116 0 218 -58 218 -199v-220c0 -35 -32 -62 -70 -62c-37 0 -69 28 -70 62v6c-31 -54 -92 -72 -133 -72c-107 0 -177 61 -177 150c0 77 75 141 200 141
c33 0 82 -12 110 -31c0 59 -23 105 -94 105c-16 0 -53 -1 -91 -24z" />
    <glyph glyph-name="amacron.alt1" horiz-adv-x="532" 
d="M159 653h201c26 0 46 -22 46 -49c0 -25 -21 -48 -46 -48h-201c-25 0 -46 23 -46 48c0 27 20 49 46 49zM228 95c17 0 84 2 107 69c-26 24 -67 27 -87 27c-59 0 -79 -25 -79 -49c0 -25 26 -47 59 -47zM152 332c-21 -11 -51 -9 -69 12c-20 23 -21 58 0 77
c61 56 137 55 176 55c116 0 218 -58 218 -199v-220c0 -35 -32 -62 -70 -62c-37 0 -69 28 -70 62v6c-31 -54 -92 -72 -133 -72c-107 0 -177 61 -177 150c0 77 75 141 200 141c33 0 82 -12 110 -31c0 59 -23 105 -94 105c-16 0 -53 -1 -91 -24z" />
    <glyph glyph-name="abreve.alt1" horiz-adv-x="532" 
d="M260 544c-79 0 -147 57 -147 127c0 26 16 44 41 44c20 0 31 -11 38 -28c10 -25 27 -48 68 -48s58 23 68 48c7 17 18 28 38 28c25 0 41 -18 41 -44c0 -70 -68 -127 -147 -127zM228 95c17 0 84 2 107 69c-26 24 -67 27 -87 27c-59 0 -79 -25 -79 -49c0 -25 26 -47 59 -47z
M152 332c-21 -11 -51 -9 -69 12c-20 23 -21 58 0 77c61 56 137 55 176 55c116 0 218 -58 218 -199v-220c0 -35 -32 -62 -70 -62c-37 0 -69 28 -70 62v6c-31 -54 -92 -72 -133 -72c-107 0 -177 61 -177 150c0 77 75 141 200 141c33 0 82 -12 110 -31c0 59 -23 105 -94 105
c-16 0 -53 -1 -91 -24z" />
    <glyph glyph-name="aogonek.alt1" horiz-adv-x="532" 
d="M228 95c17 0 84 2 107 69c-26 24 -67 27 -87 27c-59 0 -79 -25 -79 -49c0 -25 26 -47 59 -47zM337 44v19c-31 -54 -92 -72 -133 -72c-107 0 -177 61 -177 150c0 77 75 141 200 141c33 0 82 -12 110 -31c0 59 -23 105 -94 105c-16 0 -53 -1 -91 -24c-21 -11 -51 -9 -69 12
c-20 23 -21 58 0 77c61 56 137 55 176 55c116 0 218 -58 218 -199v-220c0 -35 -32 -62 -70 -62c-13 0 -23 -7 -27 -24l-19 -61c-5 -17 5 -32 24 -32c9 0 21 9 23 19c4 17 19 35 47 32c27 -4 42 -26 37 -53c-13 -52 -61 -85 -107 -85c-79 0 -115 51 -115 106c0 14 4 34 18 60
z" />
    <glyph glyph-name="yacute.alt1" horiz-adv-x="482" 
d="M218 533c-29 0 -34 31 -17 63l45 84c15 27 34 63 93 48c41 -10 63 -39 26 -84l-72 -74c-31 -31 -51 -37 -75 -37zM-8 -165c2 33 25 52 58 52h9c47 0 63 38 81 83l29 78l-145 338c-13 36 7 74 41 83c44 11 76 -9 87 -40l88 -228l90 228c11 31 43 51 87 40
c34 -9 54 -47 41 -83l-195 -469c-46 -106 -91 -150 -192 -150c-46 0 -82 22 -79 68z" />
    <glyph glyph-name="ydieresis.alt1" horiz-adv-x="482" 
d="M72 613c0 38 33 68 73 68c39 0 71 -30 71 -68c0 -39 -32 -69 -71 -69c-40 0 -73 30 -73 69zM267 613c0 38 33 68 73 68c39 0 71 -30 71 -68c0 -39 -32 -69 -71 -69c-40 0 -73 30 -73 69zM-8 -165c-3 -46 33 -68 79 -68c101 0 146 44 192 150l195 469c13 36 -7 74 -41 83
c-44 11 -76 -9 -87 -40l-90 -228l-88 228c-11 31 -43 51 -87 40c-34 -9 -54 -47 -41 -83l145 -338l-29 -78c-18 -45 -34 -83 -81 -83h-9c-33 0 -56 -19 -58 -52z" />
    <glyph glyph-name="ae.alt1" horiz-adv-x="848" 
d="M152 332c-21 -11 -51 -9 -69 12c-20 23 -21 58 0 77c61 56 137 55 176 55c70 0 129 -21 164 -69c37 44 91 69 160 69c133 0 239 -98 239 -245c0 -25 -21 -43 -43 -43h-301c7 -54 66 -77 115 -77c28 0 52 2 81 22c32 22 68 16 88 -7c26 -30 16 -73 -18 -93
c-47 -31 -106 -42 -161 -42c-79 0 -139 33 -175 91c-72 -88 -165 -91 -204 -91c-107 0 -177 61 -177 150c0 77 75 141 200 141c33 0 82 -8 110 -27c0 59 -23 101 -94 101c-16 0 -53 -1 -91 -24zM480 275h202c-7 57 -46 85 -98 85s-92 -26 -104 -85zM230 95
c21 0 89 11 118 65c-29 26 -80 31 -100 31c-59 0 -79 -25 -79 -49c0 -25 28 -47 61 -47z" />
    <glyph glyph-name="aeacute.alt1" horiz-adv-x="848" 
d="M152 332c-21 -11 -51 -9 -69 12c-20 23 -21 58 0 77c61 56 137 55 176 55c70 0 129 -21 164 -69c37 44 91 69 160 69c133 0 239 -98 239 -245c0 -25 -21 -43 -43 -43h-301c7 -54 66 -77 115 -77c28 0 52 2 81 22c32 22 68 16 88 -7c26 -30 16 -73 -18 -93
c-47 -31 -106 -42 -161 -42c-79 0 -139 33 -175 91c-72 -88 -165 -91 -204 -91c-107 0 -177 61 -177 150c0 77 75 141 200 141c33 0 82 -8 110 -27c0 59 -23 101 -94 101c-16 0 -53 -1 -91 -24zM480 275h202c-7 57 -46 85 -98 85s-92 -26 -104 -85zM230 95
c21 0 89 11 118 65c-29 26 -80 31 -100 31c-59 0 -79 -25 -79 -49c0 -25 28 -47 61 -47zM396 533c-29 0 -34 31 -17 63l45 84c15 27 34 63 93 48c41 -10 63 -39 26 -84l-72 -74c-31 -31 -51 -37 -75 -37z" />
    <glyph glyph-name="ycircumflex.alt1" horiz-adv-x="482" 
d="M219 710h44c41 0 61 -34 73 -54l49 -87c12 -19 0 -48 -27 -48c-15 0 -32 4 -59 32l-58 61l-58 -61c-27 -28 -44 -32 -59 -32c-27 0 -39 29 -27 48l49 87c12 20 32 54 73 54zM-8 -165c-3 -46 33 -68 79 -68c101 0 146 44 192 150l195 469c13 36 -7 74 -41 83
c-44 11 -76 -9 -87 -40l-90 -228l-88 228c-11 31 -43 51 -87 40c-34 -9 -54 -47 -41 -83l145 -338l-29 -78c-18 -45 -34 -83 -81 -83h-9c-33 0 -56 -19 -58 -52z" />
    <glyph glyph-name="ldot.alt1" horiz-adv-x="421" 
d="M249 0h-28c-132 0 -163 79 -163 203v461c1 34 33 62 70 62c38 0 70 -27 70 -62v-474c-1 -33 13 -64 50 -64c47 0 69 -30 69 -63c0 -34 -24 -63 -68 -63zM254 317c0 45 38 79 82 79s83 -34 83 -79c0 -46 -39 -80 -83 -80s-82 34 -82 80z" />
    <glyph glyph-name="t.alt1" horiz-adv-x="383" 
d="M240 563v-96h51c28 0 50 -25 50 -55c0 -29 -22 -54 -50 -55h-51v-167c-1 -30 9 -64 51 -64c47 0 64 -30 64 -63c0 -34 -24 -63 -68 -63h-10c-132 0 -177 69 -177 193v164h-40c-28 0 -50 26 -50 55c0 30 22 55 50 55h40v69c0 29 8 55 52 67l29 9c15 5 59 14 59 -49z" />
    <glyph glyph-name="tcaron.alt1" horiz-adv-x="383" 
d="M452 737c-11 -102 -68 -205 -136 -205c-21 0 -36 19 -20 45c25 40 44 89 44 133c0 25 3 44 22 57c34 27 96 22 90 -30zM240 563v-96h51c28 0 50 -25 50 -55c0 -29 -22 -54 -50 -55h-51v-167c-1 -30 9 -64 51 -64c47 0 64 -30 64 -63c0 -34 -24 -63 -68 -63h-10
c-132 0 -177 69 -177 193v164h-40c-28 0 -50 26 -50 55c0 30 22 55 50 55h40v69c0 29 8 55 52 67l29 9c15 5 59 14 59 -49z" />
    <glyph glyph-name="tbar.alt1" horiz-adv-x="383" 
d="M100 193v4h-22c-20 0 -35 18 -35 38c0 21 15 39 35 39h22v83h-40c-28 0 -50 26 -50 55c0 30 22 55 50 55h40v69c0 29 8 55 52 67l29 9c15 5 59 14 59 -49v-96h51c28 0 50 -25 50 -55c0 -29 -22 -54 -50 -55h-51v-83h39c20 0 35 -18 35 -39c0 -20 -15 -38 -35 -38h-39v-7
c-1 -30 9 -64 51 -64c47 0 64 -30 64 -63c0 -34 -24 -63 -68 -63h-10c-132 0 -177 69 -177 193z" />
    <glyph glyph-name="tcommaaccent.alt1" horiz-adv-x="383" 
d="M259 -101c0 -72 -65 -162 -131 -162c-18 0 -36 10 -36 25c0 7 1 17 18 35c33 38 32 70 32 95c0 44 26 62 58 62c33 0 59 -24 59 -55zM240 563v-96h51c28 0 50 -25 50 -55c0 -29 -22 -54 -50 -55h-51v-167c-1 -30 9 -64 51 -64c47 0 64 -30 64 -63c0 -34 -24 -63 -68 -63
h-10c-132 0 -177 69 -177 193v164h-40c-28 0 -50 26 -50 55c0 30 22 55 50 55h40v69c0 29 8 55 52 67l29 9c15 5 59 14 59 -49z" />
    <glyph glyph-name="aringacute.alt1" horiz-adv-x="532" 
d="M361 791l-33 -53c32 -22 53 -59 53 -101c0 -67 -54 -120 -122 -120c-67 0 -120 53 -120 120c0 56 35 103 85 118l13 46c8 30 20 69 81 67c42 -1 70 -25 43 -77zM204 637c0 -31 24 -55 55 -55c32 0 57 24 57 55c0 33 -25 58 -57 58c-31 0 -55 -25 -55 -58zM228 95
c17 0 84 2 107 69c-26 24 -67 27 -87 27c-59 0 -79 -25 -79 -49c0 -25 26 -47 59 -47zM152 332c-21 -11 -51 -9 -69 12c-20 23 -21 58 0 77c61 56 137 55 176 55c116 0 218 -58 218 -199v-220c0 -35 -32 -62 -70 -62c-37 0 -69 28 -70 62v6c-31 -54 -92 -72 -133 -72
c-107 0 -177 61 -177 150c0 77 75 141 200 141c33 0 82 -12 110 -31c0 59 -23 105 -94 105c-16 0 -53 -1 -91 -24z" />
    </font>
</defs>
</svg>
